SplineFontDB: 3.2
FontName: Kilroy5W75-8ptRegular
FullName: Kilroy5W75 8pt Regular
FamilyName: Kilroy5W75 8pt
Weight: Regular
Copyright: Copyright 2020 The Roboto Serif Project Authors (https://github.com/googlefonts/RobotoSerif) OFL
Version: 1.008
ItalicAngle: 0
UnderlinePosition: -200
UnderlineWidth: 100
Ascent: 800
Descent: 200
InvalidEm: 0
sfntRevision: 0x0001020c
LayerCount: 2
Layer: 0 1 "Back" 1
Layer: 1 1 "Fore" 0
XUID: [1021 1018 -1064020043 8427]
StyleMap: 0x0040
FSType: 0
OS2Version: 4
OS2_WeightWidthSlopeOnly: 0
OS2_UseTypoMetrics: 1
CreationTime: 1586430965
ModificationTime: 1751912336
PfmFamily: 81
TTFWeight: 400
TTFWidth: 3
LineGap: 0
VLineGap: 0
Panose: 0 0 0 0 0 0 0 0 0 0
OS2TypoAscent: 927
OS2TypoAOffset: 0
OS2TypoDescent: -244
OS2TypoDOffset: 0
OS2TypoLinegap: 0
OS2WinAscent: 1048
OS2WinAOffset: 0
OS2WinDescent: 251
OS2WinDOffset: 0
HheadAscent: 927
HheadAOffset: 0
HheadDescent: -244
HheadDOffset: 0
OS2SubXSize: 650
OS2SubYSize: 600
OS2SubXOff: 0
OS2SubYOff: 75
OS2SupXSize: 650
OS2SupYSize: 600
OS2SupXOff: 0
OS2SupYOff: 350
OS2StrikeYSize: 100
OS2StrikeYPos: 311
OS2CapHeight: 710
OS2XHeight: 518
OS2Vendor: 'COMM'
OS2CodePages: 20000193.00000000
OS2UnicodeRanges: a10000ef.4000267a.00000000.00000000
Lookup: 5 0 0 "'locl' Localized Forms in Latin lookup 0" { "'locl' Localized Forms in Latin lookup 0 subtable"  } ['locl' ('latn' <'AZE ' 'CRT ' 'TRK ' > ) ]
Lookup: 1 0 0 "Single Substitution lookup 1" { "Single Substitution lookup 1 subtable"  } []
Lookup: 5 0 0 "'locl' Localized Forms in Latin lookup 2" { "'locl' Localized Forms in Latin lookup 2 subtable"  } ['locl' ('latn' <'PLK ' > ) ]
Lookup: 1 0 0 "Single Substitution lookup 3" { "Single Substitution lookup 3 subtable"  } []
Lookup: 6 0 0 "'locl' Localized Forms in Latin lookup 4" { "'locl' Localized Forms in Latin lookup 4 subtable"  } ['locl' ('latn' <'CAT ' > ) ]
Lookup: 4 0 0 "Ligature Substitution lookup 5" { "Ligature Substitution lookup 5 subtable"  } []

StartChar: .notdef
Encoding: 65536 -1 0
Width: 400
GlyphClass: 1
Flags: W
LayerCount: 2
Fore
SplineSet
0 0 m 1,0,-1
 0 700 l 1,1,-1
 400 700 l 1,2,-1
 400 0 l 1,3,-1
 0 0 l 1,0,-1
50 650 m 1,4,-1
 50 50 l 1,5,-1
 350 50 l 1,6,-1
 350 650 l 1,7,-1
 50 650 l 1,4,-1
EndSplineSet
EndChar

StartChar: A
Encoding: 65 65 6
Width: 674
GlyphClass: 2
Flags: W
AnchorPoint: "Anchor-2" 533 0 basechar 0
AnchorPoint: "Anchor-1" 337 0 basechar 0
AnchorPoint: "Anchor-0" 337 721 basechar 0
LayerCount: 2
Fore
SplineSet
201 302 m 1,0,-1
 448 302 l 1,1,-1
 465 227 l 1,2,-1
 184 227 l 1,3,-1
 201 302 l 1,0,-1
311 688 m 1,4,-1
 342 681 l 1,5,-1
 165 97 l 2,6,7
 165 91 165 91 174 85.5 c 128,-1,8
 183 80 183 80 199 77 c 128,-1,9
 215 74 215 74 236 74 c 2,10,-1
 246 74 l 1,11,-1
 246 0 l 1,12,-1
 18 0 l 1,13,-1
 18 74 l 1,14,-1
 23 74 l 2,15,16
 45 74 45 74 62.5 86 c 128,-1,17
 80 98 80 98 92 138 c 2,18,-1
 274 722 l 1,19,-1
 395 722 l 1,20,-1
 578 138 l 2,21,22
 590 98 590 98 608.5 86 c 128,-1,23
 627 74 627 74 652 74 c 2,24,-1
 657 74 l 1,25,-1
 657 0 l 1,26,-1
 409 0 l 1,27,-1
 409 74 l 1,28,-1
 418 74 l 2,29,30
 442 74 442 74 459 75.5 c 128,-1,31
 476 77 476 77 485 79.5 c 128,-1,32
 494 82 494 82 494 85 c 2,33,-1
 311 688 l 1,4,-1
EndSplineSet
EndChar

StartChar: Aogonek
Encoding: 260 260 15
Width: 674
GlyphClass: 1
Flags: W
LayerCount: 2
Fore
SplineSet
201 302 m 1,0,-1
 448 302 l 1,1,-1
 465 227 l 1,2,-1
 184 227 l 1,3,-1
 201 302 l 1,0,-1
538 40 m 1,4,-1
 566 5 l 1,5,6
 523 -34 523 -34 499 -58 c 128,-1,7
 475 -82 475 -82 465.5 -101.5 c 128,-1,8
 456 -121 456 -121 456 -145 c 0,9,10
 456 -165 456 -165 466.5 -177 c 128,-1,11
 477 -189 477 -189 499 -189 c 0,12,13
 526 -189 526 -189 545 -174 c 128,-1,14
 564 -159 564 -159 575 -141 c 1,15,-1
 619 -178 l 1,16,17
 595 -211 595 -211 561.5 -231.5 c 128,-1,18
 528 -252 528 -252 479 -252 c 0,19,20
 425 -252 425 -252 388 -230 c 128,-1,21
 351 -208 351 -208 351 -157 c 0,22,23
 351 -130 351 -130 359 -110 c 128,-1,24
 367 -90 367 -90 387.5 -69.5 c 128,-1,25
 408 -49 408 -49 445 -23.5 c 128,-1,26
 482 2 482 2 538 40 c 1,4,-1
657 0 m 1,27,-1
 522 0 l 1,28,-1
 311 688 l 1,29,-1
 339 665 l 1,30,-1
 167 97 l 2,31,32
 167 91 167 91 176 85.5 c 128,-1,33
 185 80 185 80 201.5 77 c 128,-1,34
 218 74 218 74 239 74 c 2,35,-1
 248 74 l 1,36,-1
 248 0 l 1,37,-1
 18 0 l 1,38,-1
 18 74 l 1,39,-1
 23 74 l 2,40,41
 44 74 44 74 62 86 c 128,-1,42
 80 98 80 98 92 138 c 2,43,-1
 274 722 l 1,44,-1
 395 722 l 1,45,-1
 578 138 l 2,46,47
 591 98 591 98 609 86 c 128,-1,48
 627 74 627 74 652 74 c 2,49,-1
 657 74 l 1,50,-1
 657 0 l 1,27,-1
EndSplineSet
EndChar

StartChar: Acaron
Encoding: 461 461 16
Width: 674
GlyphClass: 1
Flags: W
LayerCount: 2
Fore
SplineSet
293 806 m 1,0,-1
 364 806 l 1,1,-1
 488 961 l 1,2,-1
 488 981 l 1,3,-1
 438 981 l 1,4,-1
 268 840 l 1,5,-1
 395 843 l 1,6,-1
 228 981 l 1,7,-1
 169 981 l 1,8,-1
 169 961 l 1,9,-1
 293 806 l 1,0,-1
201 302 m 1,10,-1
 448 302 l 1,11,-1
 465 227 l 1,12,-1
 184 227 l 1,13,-1
 201 302 l 1,10,-1
311 688 m 1,14,-1
 342 681 l 1,15,-1
 165 97 l 2,16,17
 165 91 165 91 174 85.5 c 128,-1,18
 183 80 183 80 199 77 c 128,-1,19
 215 74 215 74 237 74 c 2,20,-1
 246 74 l 1,21,-1
 246 0 l 1,22,-1
 18 0 l 1,23,-1
 18 74 l 1,24,-1
 23 74 l 2,25,26
 45 74 45 74 62.5 86 c 128,-1,27
 80 98 80 98 92 138 c 2,28,-1
 274 722 l 1,29,-1
 395 722 l 1,30,-1
 578 138 l 2,31,32
 591 98 591 98 609 86 c 128,-1,33
 627 74 627 74 652 74 c 2,34,-1
 657 74 l 1,35,-1
 657 0 l 1,36,-1
 409 0 l 1,37,-1
 409 74 l 1,38,-1
 418 74 l 2,39,40
 442 74 442 74 459 75.5 c 128,-1,41
 476 77 476 77 485 79.5 c 128,-1,42
 494 82 494 82 494 85 c 2,43,-1
 311 688 l 1,14,-1
EndSplineSet
EndChar

StartChar: Adblgrave
Encoding: 512 512 18
Width: 674
GlyphClass: 1
Flags: W
LayerCount: 2
Fore
SplineSet
423 926 m 2,0,-1
 465 825 l 1,1,-1
 465 793 l 1,2,-1
 424 793 l 1,3,-1
 356 857 l 2,4,5
 336 875 336 875 325.5 892.5 c 128,-1,6
 315 910 315 910 315 931 c 0,7,8
 315 948 315 948 328 960.5 c 128,-1,9
 341 973 341 973 363 973 c 0,10,11
 379 973 379 973 390.5 966.5 c 128,-1,12
 402 960 402 960 410 949.5 c 128,-1,13
 418 939 418 939 423 926 c 2,0,-1
240 926 m 2,14,-1
 279 825 l 1,15,-1
 279 793 l 1,16,-1
 238 793 l 1,17,-1
 170 857 l 2,18,19
 150 875 150 875 139 892.5 c 128,-1,20
 128 910 128 910 128 931 c 0,21,22
 128 948 128 948 141.5 960.5 c 128,-1,23
 155 973 155 973 177 973 c 0,24,25
 193 973 193 973 205 967 c 128,-1,26
 217 961 217 961 226 950 c 128,-1,27
 235 939 235 939 240 926 c 2,14,-1
201 302 m 1,28,-1
 448 302 l 1,29,-1
 465 227 l 1,30,-1
 184 227 l 1,31,-1
 201 302 l 1,28,-1
311 688 m 1,32,-1
 342 681 l 1,33,-1
 165 97 l 2,34,35
 165 91 165 91 174 85.5 c 128,-1,36
 183 80 183 80 199 77 c 128,-1,37
 215 74 215 74 237 74 c 2,38,-1
 246 74 l 1,39,-1
 246 0 l 1,40,-1
 18 0 l 1,41,-1
 18 74 l 1,42,-1
 23 74 l 2,43,44
 45 74 45 74 62.5 86 c 128,-1,45
 80 98 80 98 92 138 c 2,46,-1
 274 722 l 1,47,-1
 395 722 l 1,48,-1
 578 138 l 2,49,50
 591 98 591 98 609 86 c 128,-1,51
 627 74 627 74 652 74 c 2,52,-1
 657 74 l 1,53,-1
 657 0 l 1,54,-1
 409 0 l 1,55,-1
 409 74 l 1,56,-1
 418 74 l 2,57,58
 442 74 442 74 459 75.5 c 128,-1,59
 476 77 476 77 485 79.5 c 128,-1,60
 494 82 494 82 494 85 c 2,61,-1
 311 688 l 1,32,-1
EndSplineSet
EndChar

StartChar: Ainvertedbreve
Encoding: 514 514 19
Width: 674
GlyphClass: 1
Flags: W
LayerCount: 2
Fore
SplineSet
338 929 m 0,0,1
 285 929 285 929 248.5 912.5 c 128,-1,2
 212 896 212 896 192.5 859.5 c 128,-1,3
 173 823 173 823 172 762 c 1,4,-1
 243 762 l 1,5,6
 245 798 245 798 253.5 817.5 c 128,-1,7
 262 837 262 837 282.5 844.5 c 128,-1,8
 303 852 303 852 338 852 c 0,9,10
 371 852 371 852 390.5 844.5 c 128,-1,11
 410 837 410 837 419 818 c 128,-1,12
 428 799 428 799 430 762 c 1,13,-1
 506 762 l 1,14,15
 505 823 505 823 484.5 859.5 c 128,-1,16
 464 896 464 896 427 912.5 c 128,-1,17
 390 929 390 929 338 929 c 0,0,1
201 302 m 1,18,-1
 448 302 l 1,19,-1
 465 227 l 1,20,-1
 184 227 l 1,21,-1
 201 302 l 1,18,-1
311 688 m 1,22,-1
 342 681 l 1,23,-1
 165 97 l 2,24,25
 165 91 165 91 174 85.5 c 128,-1,26
 183 80 183 80 199 77 c 128,-1,27
 215 74 215 74 236 74 c 2,28,-1
 246 74 l 1,29,-1
 246 0 l 1,30,-1
 18 0 l 1,31,-1
 18 74 l 1,32,-1
 23 74 l 2,33,34
 45 74 45 74 62.5 86 c 128,-1,35
 80 98 80 98 92 138 c 2,36,-1
 274 722 l 1,37,-1
 395 722 l 1,38,-1
 578 138 l 2,39,40
 591 98 591 98 609 86 c 128,-1,41
 627 74 627 74 652 74 c 2,42,-1
 657 74 l 1,43,-1
 657 0 l 1,44,-1
 409 0 l 1,45,-1
 409 74 l 1,46,-1
 418 74 l 2,47,48
 442 74 442 74 459 75.5 c 128,-1,49
 476 77 476 77 485 79.5 c 128,-1,50
 494 82 494 82 494 85 c 2,51,-1
 311 688 l 1,22,-1
EndSplineSet
EndChar

StartChar: B
Encoding: 66 66 32
Width: 662
GlyphClass: 2
Flags: W
AnchorPoint: "Anchor-0" 319 741 basechar 0
LayerCount: 2
Fore
SplineSet
360 710 m 2,0,1
 412 710 412 710 451.5 699.5 c 128,-1,2
 491 689 491 689 518 666.5 c 128,-1,3
 545 644 545 644 559 610.5 c 128,-1,4
 573 577 573 577 573 532 c 0,5,6
 573 488 573 488 553.5 452.5 c 128,-1,7
 534 417 534 417 495.5 396.5 c 128,-1,8
 457 376 457 376 398 375 c 1,9,-1
 407 390 l 1,10,-1
 407 353 l 1,11,-1
 398 372 l 1,12,13
 465 369 465 369 509.5 346.5 c 128,-1,14
 554 324 554 324 577.5 287 c 128,-1,15
 601 250 601 250 601 198 c 0,16,17
 601 148 601 148 586 110.5 c 128,-1,18
 571 73 571 73 541 49 c 128,-1,19
 511 25 511 25 468 12.5 c 128,-1,20
 425 0 425 0 369 0 c 2,21,-1
 55 0 l 1,22,-1
 55 74 l 1,23,-1
 65 74 l 2,24,25
 92 74 92 74 112.5 81 c 128,-1,26
 133 88 133 88 133 110 c 2,27,-1
 133 600 l 2,28,29
 133 622 133 622 112.5 629 c 128,-1,30
 92 636 92 636 65 636 c 2,31,-1
 55 636 l 1,32,-1
 55 710 l 1,33,-1
 360 710 l 2,0,1
193 407 m 1,34,-1
 354 407 l 2,35,36
 396 407 396 407 421.5 420.5 c 128,-1,37
 447 434 447 434 459 460.5 c 128,-1,38
 471 487 471 487 471 528 c 0,39,40
 471 563 471 563 459.5 587 c 128,-1,41
 448 611 448 611 423 624 c 128,-1,42
 398 637 398 637 355 637 c 2,43,-1
 232 637 l 1,44,-1
 232 73 l 1,45,-1
 364 73 l 2,46,47
 411 73 411 73 440.5 88 c 128,-1,48
 470 103 470 103 484 132 c 128,-1,49
 498 161 498 161 498 202 c 0,50,51
 498 245 498 245 483 275 c 128,-1,52
 468 305 468 305 436 321 c 128,-1,53
 404 337 404 337 354 337 c 2,54,-1
 193 337 l 1,55,-1
 193 407 l 1,34,-1
EndSplineSet
EndChar

StartChar: C
Encoding: 67 67 33
Width: 713
GlyphClass: 2
Flags: W
AnchorPoint: "Anchor-1" 377 0 basechar 0
AnchorPoint: "Anchor-0" 377 741 basechar 0
LayerCount: 2
Fore
SplineSet
363 660 m 0,0,1
 312 660 312 660 274 642 c 128,-1,2
 236 624 236 624 211.5 587 c 128,-1,3
 187 550 187 550 174.5 492.5 c 128,-1,4
 162 435 162 435 162 356 c 256,5,6
 162 277 162 277 174.5 219 c 128,-1,7
 187 161 187 161 213 123.5 c 128,-1,8
 239 86 239 86 279 68 c 128,-1,9
 319 50 319 50 374 50 c 0,10,11
 438 50 438 50 480 76.5 c 128,-1,12
 522 103 522 103 547.5 145 c 128,-1,13
 573 187 573 187 588 234 c 1,14,-1
 658 206 l 1,15,16
 637 136 637 136 598 84.5 c 128,-1,17
 559 33 559 33 502 4.5 c 128,-1,18
 445 -24 445 -24 369 -24 c 0,19,20
 298 -24 298 -24 240.5 0 c 128,-1,21
 183 24 183 24 141.5 72 c 128,-1,22
 100 120 100 120 78 191 c 128,-1,23
 56 262 56 262 56 356 c 256,24,25
 56 450 56 450 78 521 c 128,-1,26
 100 592 100 592 141 639.5 c 128,-1,27
 182 687 182 687 238 710.5 c 128,-1,28
 294 734 294 734 361 734 c 0,29,30
 423 734 423 734 469 708 c 128,-1,31
 515 682 515 682 543.5 630.5 c 128,-1,32
 572 579 572 579 579 502 c 1,33,-1
 559 541 l 1,34,-1
 572 720 l 1,35,-1
 646 720 l 1,36,-1
 646 466 l 1,37,-1
 565 466 l 1,38,39
 548 526 548 526 521 569.5 c 128,-1,40
 494 613 494 613 455 636.5 c 128,-1,41
 416 660 416 660 363 660 c 0,0,1
EndSplineSet
EndChar

StartChar: Ccaron
Encoding: 268 268 38
Width: 713
GlyphClass: 1
Flags: W
LayerCount: 2
Fore
SplineSet
323 806 m 1,0,-1
 394 806 l 1,1,-1
 518 961 l 1,2,-1
 518 981 l 1,3,-1
 468 981 l 1,4,-1
 298 840 l 1,5,-1
 425 843 l 1,6,-1
 258 981 l 1,7,-1
 199 981 l 1,8,-1
 199 961 l 1,9,-1
 323 806 l 1,0,-1
363 660 m 0,10,11
 312 660 312 660 274 642 c 128,-1,12
 236 624 236 624 211.5 587 c 128,-1,13
 187 550 187 550 174.5 492.5 c 128,-1,14
 162 435 162 435 162 356 c 256,15,16
 162 277 162 277 174.5 219 c 128,-1,17
 187 161 187 161 213 123.5 c 128,-1,18
 239 86 239 86 279 68 c 128,-1,19
 319 50 319 50 374 50 c 0,20,21
 438 50 438 50 480 76.5 c 128,-1,22
 522 103 522 103 547.5 145 c 128,-1,23
 573 187 573 187 588 234 c 1,24,-1
 658 206 l 1,25,26
 637 136 637 136 598 84.5 c 128,-1,27
 559 33 559 33 502 4.5 c 128,-1,28
 445 -24 445 -24 369 -24 c 0,29,30
 298 -24 298 -24 240.5 0 c 128,-1,31
 183 24 183 24 141.5 72 c 128,-1,32
 100 120 100 120 78 191 c 128,-1,33
 56 262 56 262 56 356 c 256,34,35
 56 450 56 450 78 521 c 128,-1,36
 100 592 100 592 141 639.5 c 128,-1,37
 182 687 182 687 238 710.5 c 128,-1,38
 294 734 294 734 361 734 c 0,39,40
 423 734 423 734 469 708 c 128,-1,41
 515 682 515 682 543.5 630.5 c 128,-1,42
 572 579 572 579 579 502 c 1,43,-1
 559 541 l 1,44,-1
 572 720 l 1,45,-1
 646 720 l 1,46,-1
 646 466 l 1,47,-1
 565 466 l 1,48,49
 548 526 548 526 521 569.5 c 128,-1,50
 494 613 494 613 455 636.5 c 128,-1,51
 416 660 416 660 363 660 c 0,10,11
EndSplineSet
EndChar

StartChar: D
Encoding: 68 68 40
Width: 737
GlyphClass: 2
Flags: W
AnchorPoint: "Anchor-1" 371 0 basechar 0
AnchorPoint: "Anchor-0" 371 741 basechar 0
LayerCount: 2
Fore
SplineSet
55 636 m 1,0,-1
 55 710 l 1,1,-1
 333 710 l 2,2,3
 415 710 415 710 480 689 c 128,-1,4
 545 668 545 668 590 624.5 c 128,-1,5
 635 581 635 581 658 515 c 128,-1,6
 681 449 681 449 681 359 c 0,7,8
 681 270 681 270 658 202.5 c 128,-1,9
 635 135 635 135 590 90.5 c 128,-1,10
 545 46 545 46 480 23 c 128,-1,11
 415 0 415 0 333 0 c 2,12,-1
 55 0 l 1,13,-1
 55 74 l 1,14,-1
 65 74 l 2,15,16
 92 74 92 74 112.5 81 c 128,-1,17
 133 88 133 88 133 110 c 2,18,-1
 133 600 l 2,19,20
 133 622 133 622 112.5 629 c 128,-1,21
 92 636 92 636 65 636 c 2,22,-1
 55 636 l 1,0,-1
331 637 m 2,23,-1
 232 637 l 1,24,-1
 232 73 l 1,25,-1
 331 73 l 2,26,27
 394 73 394 73 440 90.5 c 128,-1,28
 486 108 486 108 516 143.5 c 128,-1,29
 546 179 546 179 561 232.5 c 128,-1,30
 576 286 576 286 576 359 c 256,31,32
 576 432 576 432 561 484.5 c 128,-1,33
 546 537 546 537 516 570.5 c 128,-1,34
 486 604 486 604 440 620.5 c 128,-1,35
 394 637 394 637 331 637 c 2,23,-1
EndSplineSet
EndChar

StartChar: Dcaron
Encoding: 270 270 41
Width: 737
GlyphClass: 1
Flags: W
LayerCount: 2
Fore
SplineSet
328 806 m 1,0,-1
 399 806 l 1,1,-1
 523 961 l 1,2,-1
 523 981 l 1,3,-1
 473 981 l 1,4,-1
 303 840 l 1,5,-1
 430 843 l 1,6,-1
 263 981 l 1,7,-1
 204 981 l 1,8,-1
 204 961 l 1,9,-1
 328 806 l 1,0,-1
55 636 m 1,10,-1
 55 710 l 1,11,-1
 333 710 l 2,12,13
 415 710 415 710 480 689 c 128,-1,14
 545 668 545 668 590 624.5 c 128,-1,15
 635 581 635 581 658 515 c 128,-1,16
 681 449 681 449 681 359 c 0,17,18
 681 270 681 270 658 202.5 c 128,-1,19
 635 135 635 135 590 90.5 c 128,-1,20
 545 46 545 46 480 23 c 128,-1,21
 415 0 415 0 333 0 c 2,22,-1
 55 0 l 1,23,-1
 55 74 l 1,24,-1
 65 74 l 2,25,26
 92 74 92 74 112.5 81 c 128,-1,27
 133 88 133 88 133 110 c 2,28,-1
 133 600 l 2,29,30
 133 622 133 622 112.5 629 c 128,-1,31
 92 636 92 636 65 636 c 2,32,-1
 55 636 l 1,10,-1
331 637 m 2,33,-1
 232 637 l 1,34,-1
 232 73 l 1,35,-1
 331 73 l 2,36,37
 394 73 394 73 440 90.5 c 128,-1,38
 486 108 486 108 516 143.5 c 128,-1,39
 546 179 546 179 561 232.5 c 128,-1,40
 576 286 576 286 576 359 c 256,41,42
 576 432 576 432 561 484.5 c 128,-1,43
 546 537 546 537 516 570.5 c 128,-1,44
 486 604 486 604 440 620.5 c 128,-1,45
 394 637 394 637 331 637 c 2,33,-1
EndSplineSet
EndChar

StartChar: E
Encoding: 69 69 44
Width: 656
GlyphClass: 2
Flags: W
AnchorPoint: "Anchor-2" 454 0 basechar 0
AnchorPoint: "Anchor-1" 388 0 basechar 0
AnchorPoint: "Anchor-0" 388 741 basechar 0
LayerCount: 2
Fore
SplineSet
590 225 m 1,0,-1
 590 0 l 1,1,-1
 55 0 l 1,2,-1
 55 74 l 1,3,-1
 65 74 l 2,4,5
 92 74 92 74 112.5 81 c 128,-1,6
 133 88 133 88 133 110 c 2,7,-1
 133 600 l 2,8,9
 133 622 133 622 112.5 629 c 128,-1,10
 92 636 92 636 65 636 c 2,11,-1
 55 636 l 1,12,-1
 55 710 l 1,13,-1
 571 710 l 1,14,-1
 571 510 l 1,15,-1
 498 510 l 1,16,-1
 486 592 l 2,17,18
 484 610 484 610 472 619.5 c 128,-1,19
 460 629 460 629 436 633 c 128,-1,20
 412 637 412 637 374 637 c 2,21,-1
 232 637 l 1,22,-1
 232 73 l 1,23,-1
 389 73 l 2,24,25
 417 73 417 73 438 75 c 128,-1,26
 459 77 459 77 472.5 82 c 128,-1,27
 486 87 486 87 493 96 c 128,-1,28
 500 105 500 105 502 118 c 2,29,-1
 515 225 l 1,30,-1
 590 225 l 1,0,-1
217 399 m 1,31,32
 261 402 261 402 305 404.5 c 128,-1,33
 349 407 349 407 393 409.5 c 128,-1,34
 437 412 437 412 481 414 c 1,35,-1
 481 317 l 1,36,37
 437 320 437 320 393.5 322 c 128,-1,38
 350 324 350 324 305.5 326.5 c 128,-1,39
 261 329 261 329 217 331 c 1,40,-1
 217 399 l 1,31,32
EndSplineSet
Substitution2: "'ss01' Style Set 1 lookup 61 subtable" E.alt
EndChar

StartChar: Ecaron
Encoding: 282 282 53
Width: 656
GlyphClass: 1
Flags: W
LayerCount: 2
Fore
SplineSet
302 806 m 1,0,-1
 373 806 l 1,1,-1
 497 961 l 1,2,-1
 497 981 l 1,3,-1
 447 981 l 1,4,-1
 277 840 l 1,5,-1
 404 843 l 1,6,-1
 237 981 l 1,7,-1
 178 981 l 1,8,-1
 178 961 l 1,9,-1
 302 806 l 1,0,-1
590 225 m 1,10,-1
 590 0 l 1,11,-1
 55 0 l 1,12,-1
 55 74 l 1,13,-1
 65 74 l 2,14,15
 92 74 92 74 112.5 81 c 128,-1,16
 133 88 133 88 133 110 c 2,17,-1
 133 600 l 2,18,19
 133 622 133 622 112.5 629 c 128,-1,20
 92 636 92 636 65 636 c 2,21,-1
 55 636 l 1,22,-1
 55 710 l 1,23,-1
 571 710 l 1,24,-1
 571 510 l 1,25,-1
 498 510 l 1,26,-1
 486 592 l 2,27,28
 484 610 484 610 472 619.5 c 128,-1,29
 460 629 460 629 436 633 c 128,-1,30
 412 637 412 637 374 637 c 2,31,-1
 232 637 l 1,32,-1
 232 73 l 1,33,-1
 389 73 l 2,34,35
 417 73 417 73 438 75 c 128,-1,36
 459 77 459 77 472.5 82 c 128,-1,37
 486 87 486 87 493 96 c 128,-1,38
 500 105 500 105 502 118 c 2,39,-1
 515 225 l 1,40,-1
 590 225 l 1,10,-1
217 399 m 1,41,42
 261 402 261 402 305 404.5 c 128,-1,43
 349 407 349 407 393 409.5 c 128,-1,44
 437 412 437 412 481 414 c 1,45,-1
 481 317 l 1,46,47
 437 320 437 320 393.5 322 c 128,-1,48
 350 324 350 324 305.5 326.5 c 128,-1,49
 261 329 261 329 217 331 c 1,50,-1
 217 399 l 1,41,42
EndSplineSet
Substitution2: "'ss01' Style Set 1 lookup 61 subtable" Ecaron.alt
EndChar

StartChar: Edblgrave
Encoding: 516 516 54
Width: 656
GlyphClass: 1
Flags: W
LayerCount: 2
Fore
SplineSet
408 926 m 2,0,-1
 450 825 l 1,1,-1
 450 793 l 1,2,-1
 410 793 l 1,3,-1
 341 857 l 2,4,5
 321 875 321 875 310.5 892.5 c 128,-1,6
 300 910 300 910 300 931 c 0,7,8
 300 948 300 948 313 960.5 c 128,-1,9
 326 973 326 973 348 973 c 0,10,11
 364 973 364 973 375.5 966.5 c 128,-1,12
 387 960 387 960 395 949.5 c 128,-1,13
 403 939 403 939 408 926 c 2,0,-1
225 926 m 2,14,-1
 264 825 l 1,15,-1
 264 793 l 1,16,-1
 223 793 l 1,17,-1
 155 857 l 2,18,19
 135 875 135 875 124 892.5 c 128,-1,20
 113 910 113 910 113 931 c 0,21,22
 113 948 113 948 126.5 960.5 c 128,-1,23
 140 973 140 973 162 973 c 0,24,25
 178 973 178 973 190 966.5 c 128,-1,26
 202 960 202 960 211 949.5 c 128,-1,27
 220 939 220 939 225 926 c 2,14,-1
590 225 m 1,28,-1
 590 0 l 1,29,-1
 55 0 l 1,30,-1
 55 74 l 1,31,-1
 65 74 l 2,32,33
 92 74 92 74 112.5 81 c 128,-1,34
 133 88 133 88 133 110 c 2,35,-1
 133 600 l 2,36,37
 133 622 133 622 112.5 629 c 128,-1,38
 92 636 92 636 65 636 c 2,39,-1
 55 636 l 1,40,-1
 55 710 l 1,41,-1
 571 710 l 1,42,-1
 571 510 l 1,43,-1
 498 510 l 1,44,-1
 486 592 l 2,45,46
 484 610 484 610 472 619.5 c 128,-1,47
 460 629 460 629 436 633 c 128,-1,48
 412 637 412 637 374 637 c 2,49,-1
 232 637 l 1,50,-1
 232 73 l 1,51,-1
 389 73 l 2,52,53
 418 73 418 73 438.5 75 c 128,-1,54
 459 77 459 77 472.5 82 c 128,-1,55
 486 87 486 87 493 96 c 128,-1,56
 500 105 500 105 502 118 c 2,57,-1
 515 225 l 1,58,-1
 590 225 l 1,28,-1
217 399 m 1,59,60
 261 402 261 402 305 404.5 c 128,-1,61
 349 407 349 407 393 409.5 c 128,-1,62
 437 412 437 412 481 414 c 1,63,-1
 481 317 l 1,64,65
 437 319 437 319 393 321.5 c 128,-1,66
 349 324 349 324 305 326.5 c 128,-1,67
 261 329 261 329 217 331 c 1,68,-1
 217 399 l 1,59,60
EndSplineSet
Substitution2: "'ss01' Style Set 1 lookup 61 subtable" Edblgrave.alt
EndChar

StartChar: Einvertedbreve
Encoding: 518 518 55
Width: 656
GlyphClass: 1
Flags: W
LayerCount: 2
Fore
SplineSet
322 929 m 0,0,1
 268 929 268 929 232 912.5 c 128,-1,2
 196 896 196 896 176.5 859.5 c 128,-1,3
 157 823 157 823 156 762 c 1,4,-1
 227 762 l 1,5,6
 229 798 229 798 237.5 817.5 c 128,-1,7
 246 837 246 837 266.5 844.5 c 128,-1,8
 287 852 287 852 322 852 c 0,9,10
 355 852 355 852 374.5 844.5 c 128,-1,11
 394 837 394 837 403 818 c 128,-1,12
 412 799 412 799 414 762 c 1,13,-1
 490 762 l 1,14,15
 489 823 489 823 468.5 859.5 c 128,-1,16
 448 896 448 896 411 912.5 c 128,-1,17
 374 929 374 929 322 929 c 0,0,1
590 225 m 1,18,-1
 590 0 l 1,19,-1
 55 0 l 1,20,-1
 55 74 l 1,21,-1
 65 74 l 2,22,23
 92 74 92 74 112.5 81 c 128,-1,24
 133 88 133 88 133 110 c 2,25,-1
 133 600 l 2,26,27
 133 622 133 622 112.5 629 c 128,-1,28
 92 636 92 636 65 636 c 2,29,-1
 55 636 l 1,30,-1
 55 710 l 1,31,-1
 571 710 l 1,32,-1
 571 510 l 1,33,-1
 498 510 l 1,34,-1
 486 592 l 2,35,36
 484 610 484 610 472 619.5 c 128,-1,37
 460 629 460 629 436 633 c 128,-1,38
 412 637 412 637 374 637 c 2,39,-1
 232 637 l 1,40,-1
 232 73 l 1,41,-1
 389 73 l 2,42,43
 418 73 418 73 438.5 75 c 128,-1,44
 459 77 459 77 472.5 82 c 128,-1,45
 486 87 486 87 493 96 c 128,-1,46
 500 105 500 105 502 118 c 2,47,-1
 515 225 l 1,48,-1
 590 225 l 1,18,-1
217 399 m 1,49,50
 261 402 261 402 305 404.5 c 128,-1,51
 349 407 349 407 393.5 409.5 c 128,-1,52
 438 412 438 412 481 414 c 1,53,-1
 481 317 l 1,54,55
 437 319 437 319 393 321.5 c 128,-1,56
 349 324 349 324 305 326.5 c 128,-1,57
 261 329 261 329 217 331 c 1,58,-1
 217 399 l 1,49,50
EndSplineSet
Substitution2: "'ss01' Style Set 1 lookup 61 subtable" Einvertedbreve.alt
EndChar

StartChar: F
Encoding: 70 70 67
Width: 629
GlyphClass: 2
Flags: W
AnchorPoint: "Anchor-0" 312 741 basechar 0
LayerCount: 2
Fore
SplineSet
232 637 m 1,0,-1
 232 84 l 2,1,2
 232 81 232 81 239.5 79.5 c 128,-1,3
 247 78 247 78 258.5 76.5 c 128,-1,4
 270 75 270 75 285.5 74.5 c 128,-1,5
 301 74 301 74 317 74 c 2,6,-1
 335 74 l 1,7,-1
 335 0 l 1,8,-1
 55 0 l 1,9,-1
 55 74 l 1,10,-1
 65 74 l 2,11,12
 92 74 92 74 112.5 81 c 128,-1,13
 133 88 133 88 133 110 c 2,14,-1
 133 600 l 2,15,16
 133 622 133 622 112.5 629 c 128,-1,17
 92 636 92 636 65 636 c 2,18,-1
 55 636 l 1,19,-1
 55 710 l 1,20,-1
 571 710 l 1,21,-1
 571 506 l 1,22,-1
 498 506 l 1,23,-1
 486 592 l 2,24,25
 484 610 484 610 472 619.5 c 128,-1,26
 460 629 460 629 436 633 c 128,-1,27
 412 637 412 637 374 637 c 2,28,-1
 232 637 l 1,0,-1
217 391 m 1,29,30
 261 394 261 394 305 396 c 128,-1,31
 349 398 349 398 393 400.5 c 128,-1,32
 437 403 437 403 481 405 c 1,33,-1
 481 309 l 1,34,35
 437 312 437 312 393.5 314 c 128,-1,36
 350 316 350 316 305.5 318.5 c 128,-1,37
 261 321 261 321 217 323 c 1,38,-1
 217 391 l 1,29,30
EndSplineSet
Substitution2: "'ss01' Style Set 1 lookup 61 subtable" F.alt
EndChar

StartChar: G
Encoding: 71 71 68
Width: 757
GlyphClass: 2
Flags: W
AnchorPoint: "Anchor-1" 386 0 basechar 0
AnchorPoint: "Anchor-0" 386 741 basechar 0
LayerCount: 2
Fore
SplineSet
642 233 m 2,0,-1
 642 93 l 1,1,2
 625 72 625 72 600 51.5 c 128,-1,3
 575 31 575 31 541 14 c 128,-1,4
 507 -3 507 -3 466.5 -13.5 c 128,-1,5
 426 -24 426 -24 379 -24 c 0,6,7
 305 -24 305 -24 245 0 c 128,-1,8
 185 24 185 24 143 72 c 128,-1,9
 101 120 101 120 78.5 191 c 128,-1,10
 56 262 56 262 56 356 c 256,11,12
 56 450 56 450 79.5 521 c 128,-1,13
 103 592 103 592 145.5 639 c 128,-1,14
 188 686 188 686 245 710 c 128,-1,15
 302 734 302 734 368 734 c 0,16,17
 429 734 429 734 473 711 c 128,-1,18
 517 688 517 688 544 642.5 c 128,-1,19
 571 597 571 597 580 529 c 1,20,-1
 559 567 l 1,21,-1
 572 720 l 1,22,-1
 646 720 l 1,23,-1
 646 495 l 1,24,-1
 570 495 l 1,25,26
 555 542 555 542 527.5 579.5 c 128,-1,27
 500 617 500 617 461.5 639 c 128,-1,28
 423 661 423 661 371 661 c 0,29,30
 320 661 320 661 281.5 642.5 c 128,-1,31
 243 624 243 624 216 587 c 128,-1,32
 189 550 189 550 175.5 492.5 c 128,-1,33
 162 435 162 435 162 356 c 256,34,35
 162 277 162 277 176 218.5 c 128,-1,36
 190 160 190 160 217 123 c 128,-1,37
 244 86 244 86 285 68 c 128,-1,38
 326 50 326 50 380 50 c 0,39,40
 424 50 424 50 456.5 60 c 128,-1,41
 489 70 489 70 511 85.5 c 128,-1,42
 533 101 533 101 546 115 c 1,43,-1
 546 233 l 2,44,45
 546 258 546 258 521 265.5 c 128,-1,46
 496 273 496 273 461 273 c 2,47,-1
 433 273 l 1,48,-1
 433 347 l 1,49,-1
 731 347 l 1,50,-1
 731 273 l 1,51,-1
 708 273 l 2,52,53
 676 273 676 273 659 265.5 c 128,-1,54
 642 258 642 258 642 233 c 2,0,-1
EndSplineSet
EndChar

StartChar: Gcaron
Encoding: 486 486 73
Width: 757
GlyphClass: 1
Flags: W
LayerCount: 2
Fore
SplineSet
343 806 m 1,0,-1
 414 806 l 1,1,-1
 538 961 l 1,2,-1
 538 981 l 1,3,-1
 488 981 l 1,4,-1
 318 840 l 1,5,-1
 445 843 l 1,6,-1
 278 981 l 1,7,-1
 219 981 l 1,8,-1
 219 961 l 1,9,-1
 343 806 l 1,0,-1
642 233 m 2,10,-1
 642 93 l 1,11,12
 625 72 625 72 600 51.5 c 128,-1,13
 575 31 575 31 541 14 c 128,-1,14
 507 -3 507 -3 466.5 -13.5 c 128,-1,15
 426 -24 426 -24 379 -24 c 0,16,17
 305 -24 305 -24 245 0 c 128,-1,18
 185 24 185 24 143 72 c 128,-1,19
 101 120 101 120 78.5 191 c 128,-1,20
 56 262 56 262 56 356 c 256,21,22
 56 450 56 450 79.5 521 c 128,-1,23
 103 592 103 592 145.5 639 c 128,-1,24
 188 686 188 686 245 710 c 128,-1,25
 302 734 302 734 368 734 c 0,26,27
 429 734 429 734 473 711 c 128,-1,28
 517 688 517 688 544 642.5 c 128,-1,29
 571 597 571 597 580 529 c 1,30,-1
 559 567 l 1,31,-1
 572 720 l 1,32,-1
 646 720 l 1,33,-1
 646 495 l 1,34,-1
 570 495 l 1,35,36
 555 542 555 542 527.5 579.5 c 128,-1,37
 500 617 500 617 461.5 639 c 128,-1,38
 423 661 423 661 371 661 c 0,39,40
 320 661 320 661 281.5 642.5 c 128,-1,41
 243 624 243 624 216 587 c 128,-1,42
 189 550 189 550 175.5 492.5 c 128,-1,43
 162 435 162 435 162 356 c 256,44,45
 162 277 162 277 176 218.5 c 128,-1,46
 190 160 190 160 217 123 c 128,-1,47
 244 86 244 86 285 68 c 128,-1,48
 326 50 326 50 380 50 c 0,49,50
 424 50 424 50 456.5 60 c 128,-1,51
 489 70 489 70 511 85.5 c 128,-1,52
 533 101 533 101 546 115 c 1,53,-1
 546 233 l 2,54,55
 546 258 546 258 521 265.5 c 128,-1,56
 496 273 496 273 461 273 c 2,57,-1
 433 273 l 1,58,-1
 433 347 l 1,59,-1
 731 347 l 1,60,-1
 731 273 l 1,61,-1
 708 273 l 2,62,63
 676 273 676 273 659 265.5 c 128,-1,64
 642 258 642 258 642 233 c 2,10,-1
EndSplineSet
EndChar

StartChar: H
Encoding: 72 72 75
Width: 797
GlyphClass: 2
Flags: W
AnchorPoint: "Anchor-1" 399 0 basechar 0
AnchorPoint: "Anchor-0" 399 741 basechar 0
LayerCount: 2
Fore
SplineSet
209 404 m 1,0,-1
 586 404 l 1,1,-1
 586 329 l 1,2,-1
 209 329 l 1,3,-1
 209 404 l 1,0,-1
55 0 m 1,4,-1
 55 74 l 1,5,-1
 65 74 l 2,6,7
 92 74 92 74 112.5 81 c 128,-1,8
 133 88 133 88 133 110 c 2,9,-1
 133 600 l 2,10,11
 133 622 133 622 112.5 629 c 128,-1,12
 92 636 92 636 65 636 c 2,13,-1
 55 636 l 1,14,-1
 55 710 l 1,15,-1
 318 710 l 1,16,-1
 318 637 l 1,17,-1
 309 637 l 2,18,19
 297 637 297 637 283.5 636 c 128,-1,20
 270 635 270 635 258.5 633.5 c 128,-1,21
 247 632 247 632 239.5 630.5 c 128,-1,22
 232 629 232 629 232 626 c 2,23,-1
 232 83 l 2,24,25
 232 81 232 81 239.5 79.5 c 128,-1,26
 247 78 247 78 258.5 76.5 c 128,-1,27
 270 75 270 75 283.5 74.5 c 128,-1,28
 297 74 297 74 309 74 c 2,29,-1
 318 74 l 1,30,-1
 318 0 l 1,31,-1
 55 0 l 1,4,-1
480 0 m 1,32,-1
 480 73 l 1,33,-1
 487 73 l 2,34,35
 500 73 500 73 513.5 74 c 128,-1,36
 527 75 527 75 538.5 76.5 c 128,-1,37
 550 78 550 78 557.5 79.5 c 128,-1,38
 565 81 565 81 565 84 c 2,39,-1
 565 627 l 2,40,41
 565 629 565 629 557.5 630.5 c 128,-1,42
 550 632 550 632 538.5 633.5 c 128,-1,43
 527 635 527 635 513.5 635.5 c 128,-1,44
 500 636 500 636 488 636 c 2,45,-1
 480 636 l 1,46,-1
 480 710 l 1,47,-1
 742 710 l 1,48,-1
 742 636 l 1,49,-1
 732 636 l 2,50,51
 705 636 705 636 684.5 629 c 128,-1,52
 664 622 664 622 664 600 c 2,53,-1
 664 110 l 2,54,55
 664 88 664 88 684.5 81 c 128,-1,56
 705 74 705 74 732 74 c 2,57,-1
 742 74 l 1,58,-1
 742 0 l 1,59,-1
 480 0 l 1,32,-1
EndSplineSet
EndChar

StartChar: I
Encoding: 73 73 79
Width: 386
GlyphClass: 2
Flags: W
AnchorPoint: "Anchor-2" 254 0 basechar 0
AnchorPoint: "Anchor-1" 194 0 basechar 0
AnchorPoint: "Anchor-0" 194 741 basechar 0
LayerCount: 2
Fore
SplineSet
144 110 m 2,0,-1
 144 600 l 2,1,2
 144 622 144 622 123 629 c 128,-1,3
 102 636 102 636 72 636 c 2,4,-1
 54 636 l 1,5,-1
 54 710 l 1,6,-1
 333 710 l 1,7,-1
 333 636 l 1,8,-1
 315 636 l 2,9,10
 285 636 285 636 264 629 c 128,-1,11
 243 622 243 622 243 600 c 2,12,-1
 243 110 l 2,13,14
 243 88 243 88 264 81 c 128,-1,15
 285 74 285 74 315 74 c 2,16,-1
 333 74 l 1,17,-1
 333 0 l 1,18,-1
 54 0 l 1,19,-1
 54 74 l 1,20,-1
 72 74 l 2,21,22
 102 74 102 74 123 81 c 128,-1,23
 144 88 144 88 144 110 c 2,0,-1
EndSplineSet
EndChar

StartChar: Icaron
Encoding: 463 463 89
Width: 386
GlyphClass: 1
Flags: W
LayerCount: 2
Fore
SplineSet
158 806 m 1,0,-1
 229 806 l 1,1,-1
 353 961 l 1,2,-1
 353 981 l 1,3,-1
 303 981 l 1,4,-1
 133 840 l 1,5,-1
 260 843 l 1,6,-1
 93 981 l 1,7,-1
 34 981 l 1,8,-1
 34 961 l 1,9,-1
 158 806 l 1,0,-1
144 110 m 2,10,-1
 144 600 l 2,11,12
 144 622 144 622 123 629 c 128,-1,13
 102 636 102 636 72 636 c 2,14,-1
 54 636 l 1,15,-1
 54 710 l 1,16,-1
 333 710 l 1,17,-1
 333 636 l 1,18,-1
 315 636 l 2,19,20
 285 636 285 636 264 629 c 128,-1,21
 243 622 243 622 243 600 c 2,22,-1
 243 110 l 2,23,24
 243 88 243 88 264 81 c 128,-1,25
 285 74 285 74 315 74 c 2,26,-1
 333 74 l 1,27,-1
 333 0 l 1,28,-1
 54 0 l 1,29,-1
 54 74 l 1,30,-1
 72 74 l 2,31,32
 102 74 102 74 123 81 c 128,-1,33
 144 88 144 88 144 110 c 2,10,-1
EndSplineSet
EndChar

StartChar: Idblgrave
Encoding: 520 520 90
Width: 386
GlyphClass: 1
Flags: W
LayerCount: 2
Fore
SplineSet
280 926 m 2,0,-1
 322 825 l 1,1,-1
 322 793 l 1,2,-1
 281 793 l 1,3,-1
 213 857 l 2,4,5
 193 875 193 875 182 892.5 c 128,-1,6
 171 910 171 910 171 931 c 0,7,8
 171 948 171 948 184 960.5 c 128,-1,9
 197 973 197 973 219 973 c 0,10,11
 235 973 235 973 246.5 966.5 c 128,-1,12
 258 960 258 960 266 949.5 c 128,-1,13
 274 939 274 939 280 926 c 2,0,-1
96 926 m 2,14,-1
 135 825 l 1,15,-1
 135 793 l 1,16,-1
 95 793 l 1,17,-1
 27 857 l 2,18,19
 7 875 7 875 -4 892.5 c 128,-1,20
 -15 910 -15 910 -15 931 c 0,21,22
 -15 948 -15 948 -2 960.5 c 128,-1,23
 11 973 11 973 33 973 c 0,24,25
 49 973 49 973 61.5 967 c 128,-1,26
 74 961 74 961 82.5 950 c 128,-1,27
 91 939 91 939 96 926 c 2,14,-1
144 110 m 2,28,-1
 144 600 l 2,29,30
 144 622 144 622 123 629 c 128,-1,31
 102 636 102 636 72 636 c 2,32,-1
 54 636 l 1,33,-1
 54 710 l 1,34,-1
 333 710 l 1,35,-1
 333 636 l 1,36,-1
 315 636 l 2,37,38
 285 636 285 636 264 629 c 128,-1,39
 243 622 243 622 243 600 c 2,40,-1
 243 110 l 2,41,42
 243 88 243 88 264 81 c 128,-1,43
 285 74 285 74 315 74 c 2,44,-1
 333 74 l 1,45,-1
 333 0 l 1,46,-1
 54 0 l 1,47,-1
 54 74 l 1,48,-1
 72 74 l 2,49,50
 102 74 102 74 123 81 c 128,-1,51
 144 88 144 88 144 110 c 2,28,-1
EndSplineSet
EndChar

StartChar: Iinvertedbreve
Encoding: 522 522 91
Width: 386
GlyphClass: 1
Flags: W
LayerCount: 2
Fore
SplineSet
193 929 m 0,0,1
 140 929 140 929 103.5 912.5 c 128,-1,2
 67 896 67 896 47.5 859.5 c 128,-1,3
 28 823 28 823 27 762 c 1,4,-1
 98 762 l 1,5,6
 100 798 100 798 109 817.5 c 128,-1,7
 118 837 118 837 138 844.5 c 128,-1,8
 158 852 158 852 194 852 c 0,9,10
 226 852 226 852 245.5 844.5 c 128,-1,11
 265 837 265 837 274.5 818 c 128,-1,12
 284 799 284 799 285 762 c 1,13,-1
 361 762 l 1,14,15
 360 823 360 823 339.5 859.5 c 128,-1,16
 319 896 319 896 282 912.5 c 128,-1,17
 245 929 245 929 193 929 c 0,0,1
144 110 m 2,18,-1
 144 600 l 2,19,20
 144 622 144 622 123 629 c 128,-1,21
 102 636 102 636 72 636 c 2,22,-1
 54 636 l 1,23,-1
 54 710 l 1,24,-1
 333 710 l 1,25,-1
 333 636 l 1,26,-1
 315 636 l 2,27,28
 285 636 285 636 264 629 c 128,-1,29
 243 622 243 622 243 600 c 2,30,-1
 243 110 l 2,31,32
 243 88 243 88 264 81 c 128,-1,33
 285 74 285 74 315 74 c 2,34,-1
 333 74 l 1,35,-1
 333 0 l 1,36,-1
 54 0 l 1,37,-1
 54 74 l 1,38,-1
 72 74 l 2,39,40
 102 74 102 74 123 81 c 128,-1,41
 144 88 144 88 144 110 c 2,18,-1
EndSplineSet
EndChar

StartChar: J
Encoding: 74 74 94
Width: 614
GlyphClass: 2
Flags: W
AnchorPoint: "Anchor-0" 413 741 basechar 0
LayerCount: 2
Fore
SplineSet
287 710 m 1,0,-1
 571 710 l 1,1,-1
 571 636 l 1,2,-1
 553 636 l 2,3,4
 525 636 525 636 505 629 c 128,-1,5
 485 622 485 622 485 600 c 2,6,-1
 485 204 l 2,7,8
 485 143 485 143 467 99 c 128,-1,9
 449 55 449 55 417.5 28 c 128,-1,10
 386 1 386 1 343.5 -11.5 c 128,-1,11
 301 -24 301 -24 252 -24 c 0,12,13
 198 -24 198 -24 158.5 -11 c 128,-1,14
 119 2 119 2 92.5 19 c 128,-1,15
 66 36 66 36 50 49 c 1,16,-1
 50 219 l 1,17,-1
 158 219 l 1,18,-1
 158 41 l 1,19,20
 143 46 143 46 130.5 56.5 c 128,-1,21
 118 67 118 67 112 78 c 128,-1,22
 106 89 106 89 107 96.5 c 128,-1,23
 108 104 108 104 118 103 c 1,24,25
 132 92 132 92 150.5 79.5 c 128,-1,26
 169 67 169 67 193.5 58.5 c 128,-1,27
 218 50 218 50 251 50 c 0,28,29
 294 50 294 50 324 62.5 c 128,-1,30
 354 75 354 75 370 109 c 128,-1,31
 386 143 386 143 386 204 c 2,32,-1
 386 600 l 2,33,34
 386 615 386 615 376 622.5 c 128,-1,35
 366 630 366 630 348.5 633 c 128,-1,36
 331 636 331 636 310 636 c 2,37,-1
 287 636 l 1,38,-1
 287 710 l 1,0,-1
EndSplineSet
EndChar

StartChar: K
Encoding: 75 75 96
Width: 725
GlyphClass: 2
Flags: W
AnchorPoint: "Anchor-1" 373 0 basechar 0
AnchorPoint: "Anchor-0" 373 741 basechar 0
LayerCount: 2
Fore
SplineSet
55 0 m 1,0,-1
 55 74 l 1,1,-1
 65 74 l 2,2,3
 92 74 92 74 112.5 81 c 128,-1,4
 133 88 133 88 133 110 c 2,5,-1
 133 600 l 2,6,7
 133 622 133 622 112.5 629 c 128,-1,8
 92 636 92 636 65 636 c 2,9,-1
 55 636 l 1,10,-1
 55 710 l 1,11,-1
 314 710 l 1,12,-1
 314 636 l 1,13,-1
 305 636 l 2,14,15
 294 636 294 636 281 635.5 c 128,-1,16
 268 635 268 635 257 633.5 c 128,-1,17
 246 632 246 632 239 630.5 c 128,-1,18
 232 629 232 629 232 626 c 2,19,-1
 232 83 l 2,20,21
 232 81 232 81 239 79.5 c 128,-1,22
 246 78 246 78 257 76.5 c 128,-1,23
 268 75 268 75 281 74.5 c 128,-1,24
 294 74 294 74 304 74 c 2,25,-1
 313 74 l 1,26,-1
 313 0 l 1,27,-1
 55 0 l 1,0,-1
424 0 m 1,28,-1
 424 74 l 1,29,-1
 432 74 l 2,30,31
 450 74 450 74 467 75 c 128,-1,32
 484 76 484 76 495 78.5 c 128,-1,33
 506 81 506 81 506 84 c 2,34,-1
 277 346 l 1,35,-1
 277 372 l 1,36,-1
 516 625 l 2,37,38
 516 629 516 629 505.5 631 c 128,-1,39
 495 633 495 633 478.5 634.5 c 128,-1,40
 462 636 462 636 446 636 c 2,41,-1
 437 636 l 1,42,-1
 437 710 l 1,43,-1
 676 710 l 1,44,-1
 676 636 l 1,45,-1
 652 636 l 2,46,47
 641 636 641 636 631.5 633.5 c 128,-1,48
 622 631 622 631 612.5 625 c 128,-1,49
 603 619 603 619 593 607 c 2,50,-1
 352 355 l 1,51,-1
 354 397 l 1,52,-1
 620 96 l 2,53,54
 628 87 628 87 637.5 82 c 128,-1,55
 647 77 647 77 658 75.5 c 128,-1,56
 669 74 669 74 681 74 c 2,57,-1
 701 74 l 1,58,-1
 701 0 l 1,59,-1
 424 0 l 1,28,-1
EndSplineSet
EndChar

StartChar: L
Encoding: 76 76 98
Width: 610
GlyphClass: 2
Flags: W
AnchorPoint: "Anchor-2" 464 710 basechar 0
AnchorPoint: "Anchor-1" 374 0 basechar 0
AnchorPoint: "Anchor-0" 374 741 basechar 0
LayerCount: 2
Fore
SplineSet
328 710 m 1,0,-1
 55 710 l 1,1,-1
 55 636 l 1,2,-1
 65 636 l 2,3,4
 92 636 92 636 112.5 629 c 128,-1,5
 133 622 133 622 133 600 c 2,6,-1
 133 110 l 2,7,8
 133 88 133 88 112.5 81 c 128,-1,9
 92 74 92 74 65 74 c 2,10,-1
 55 74 l 1,11,-1
 55 0 l 1,12,-1
 562 0 l 1,13,-1
 562 235 l 1,14,-1
 488 235 l 1,15,-1
 474 118 l 2,16,17
 473 100 473 100 461 90 c 128,-1,18
 449 80 449 80 424.5 76.5 c 128,-1,19
 400 73 400 73 361 73 c 2,20,-1
 232 73 l 1,21,-1
 232 600 l 2,22,23
 232 622 232 622 255.5 629 c 128,-1,24
 279 636 279 636 314 636 c 2,25,-1
 328 636 l 1,26,-1
 328 710 l 1,0,-1
EndSplineSet
EndChar

StartChar: M
Encoding: 77 77 104
Width: 918
GlyphClass: 2
Flags: W
AnchorPoint: "Anchor-1" 448 0 basechar 0
LayerCount: 2
Fore
SplineSet
56 0 m 1,0,-1
 56 74 l 1,1,-1
 66 74 l 2,2,3
 84 74 84 74 99 77 c 128,-1,4
 114 80 114 80 124 88 c 128,-1,5
 134 96 134 96 134 110 c 2,6,-1
 134 600 l 2,7,8
 134 615 134 615 124 622.5 c 128,-1,9
 114 630 114 630 99 633 c 128,-1,10
 84 636 84 636 66 636 c 2,11,-1
 56 636 l 1,12,-1
 56 710 l 1,13,-1
 297 710 l 1,14,-1
 476 103 l 1,15,-1
 429 82 l 1,16,-1
 624 710 l 1,17,-1
 862 710 l 1,18,-1
 862 636 l 1,19,-1
 852 636 l 2,20,21
 825 636 825 636 803.5 629 c 128,-1,22
 782 622 782 622 782 600 c 2,23,-1
 782 110 l 2,24,25
 782 88 782 88 803.5 81 c 128,-1,26
 825 74 825 74 852 74 c 2,27,-1
 862 74 l 1,28,-1
 862 0 l 1,29,-1
 610 0 l 1,30,-1
 610 74 l 1,31,-1
 618 74 l 2,32,33
 631 74 631 74 646 75 c 128,-1,34
 661 76 661 76 672.5 78.5 c 128,-1,35
 684 81 684 81 684 84 c 2,36,-1
 684 693 l 1,37,-1
 703 702 l 1,38,-1
 477 -2 l 1,39,-1
 416 -2 l 1,40,-1
 199 703 l 1,41,-1
 215 692 l 1,42,-1
 215 84 l 2,43,44
 215 81 215 81 226 78.5 c 128,-1,45
 237 76 237 76 251 75 c 128,-1,46
 265 74 265 74 272 74 c 2,47,-1
 275 74 l 1,48,-1
 275 0 l 1,49,-1
 56 0 l 1,0,-1
EndSplineSet
EndChar

StartChar: N
Encoding: 78 78 106
Width: 771
GlyphClass: 2
Flags: W
AnchorPoint: "Anchor-1" 394 0 basechar 0
AnchorPoint: "Anchor-0" 394 741 basechar 0
LayerCount: 2
Fore
SplineSet
56 0 m 1,0,-1
 56 74 l 1,1,-1
 66 74 l 2,2,3
 84 74 84 74 99.5 77 c 128,-1,4
 115 80 115 80 124.5 88 c 128,-1,5
 134 96 134 96 134 110 c 2,6,-1
 134 600 l 2,7,8
 134 615 134 615 124.5 622.5 c 128,-1,9
 115 630 115 630 99.5 633 c 128,-1,10
 84 636 84 636 66 636 c 2,11,-1
 56 636 l 1,12,-1
 56 710 l 1,13,-1
 267 710 l 1,14,-1
 598 84 l 1,15,-1
 565 79 l 1,16,-1
 565 626 l 2,17,18
 565 630 565 630 553 632 c 128,-1,19
 541 634 541 634 526 635 c 128,-1,20
 511 636 511 636 500 636 c 2,21,-1
 488 636 l 1,22,-1
 488 710 l 1,23,-1
 726 710 l 1,24,-1
 726 636 l 1,25,-1
 716 636 l 2,26,27
 698 636 698 636 682.5 633 c 128,-1,28
 667 630 667 630 657.5 622.5 c 128,-1,29
 648 615 648 615 648 600 c 2,30,-1
 648 0 l 1,31,-1
 542 0 l 1,32,-1
 182 672 l 1,33,-1
 216 672 l 1,34,-1
 216 84 l 2,35,36
 216 81 216 81 227.5 78.5 c 128,-1,37
 239 76 239 76 255 75 c 128,-1,38
 271 74 271 74 282 74 c 2,39,-1
 294 74 l 1,40,-1
 294 0 l 1,41,-1
 56 0 l 1,0,-1
EndSplineSet
EndChar

StartChar: Ncaron
Encoding: 327 327 110
Width: 771
GlyphClass: 1
Flags: W
LayerCount: 2
Fore
SplineSet
359 806 m 1,0,-1
 430 806 l 1,1,-1
 554 961 l 1,2,-1
 554 981 l 1,3,-1
 504 981 l 1,4,-1
 334 840 l 1,5,-1
 461 843 l 1,6,-1
 294 981 l 1,7,-1
 235 981 l 1,8,-1
 235 961 l 1,9,-1
 359 806 l 1,0,-1
56 0 m 1,10,-1
 56 74 l 1,11,-1
 66 74 l 2,12,13
 84 74 84 74 99.5 77 c 128,-1,14
 115 80 115 80 124.5 88 c 128,-1,15
 134 96 134 96 134 110 c 2,16,-1
 134 600 l 2,17,18
 134 615 134 615 124.5 622.5 c 128,-1,19
 115 630 115 630 99.5 633 c 128,-1,20
 84 636 84 636 66 636 c 2,21,-1
 56 636 l 1,22,-1
 56 710 l 1,23,-1
 267 710 l 1,24,-1
 598 84 l 1,25,-1
 565 79 l 1,26,-1
 565 626 l 2,27,28
 565 630 565 630 553 632 c 128,-1,29
 541 634 541 634 526 635 c 128,-1,30
 511 636 511 636 500 636 c 2,31,-1
 488 636 l 1,32,-1
 488 710 l 1,33,-1
 726 710 l 1,34,-1
 726 636 l 1,35,-1
 716 636 l 2,36,37
 698 636 698 636 682.5 633 c 128,-1,38
 667 630 667 630 657.5 622.5 c 128,-1,39
 648 615 648 615 648 600 c 2,40,-1
 648 0 l 1,41,-1
 542 0 l 1,42,-1
 182 672 l 1,43,-1
 216 672 l 1,44,-1
 216 84 l 2,45,46
 216 81 216 81 227.5 78.5 c 128,-1,47
 239 76 239 76 255 75 c 128,-1,48
 271 74 271 74 282 74 c 2,49,-1
 294 74 l 1,50,-1
 294 0 l 1,51,-1
 56 0 l 1,10,-1
EndSplineSet
EndChar

StartChar: O
Encoding: 79 79 114
Width: 749
GlyphClass: 2
Flags: W
AnchorPoint: "Anchor-2" 412 0 basechar 0
AnchorPoint: "Anchor-1" 374 0 basechar 0
AnchorPoint: "Anchor-0" 374 741 basechar 0
LayerCount: 2
Fore
SplineSet
375 -24 m 256,0,1
 303 -24 303 -24 244.5 0.5 c 128,-1,2
 186 25 186 25 144 73.5 c 128,-1,3
 102 122 102 122 79 192.5 c 128,-1,4
 56 263 56 263 56 355 c 0,5,6
 56 448 56 448 79 518.5 c 128,-1,7
 102 589 102 589 144 637 c 128,-1,8
 186 685 186 685 244.5 709.5 c 128,-1,9
 303 734 303 734 375 734 c 256,10,11
 447 734 447 734 505.5 709.5 c 128,-1,12
 564 685 564 685 605.5 637 c 128,-1,13
 647 589 647 589 670 518.5 c 128,-1,14
 693 448 693 448 693 355 c 0,15,16
 693 263 693 263 670 192.5 c 128,-1,17
 647 122 647 122 605.5 73.5 c 128,-1,18
 564 25 564 25 505.5 0.5 c 128,-1,19
 447 -24 447 -24 375 -24 c 256,0,1
375 51 m 0,20,21
 427 51 427 51 467 69.5 c 128,-1,22
 507 88 507 88 533.5 125 c 128,-1,23
 560 162 560 162 573.5 219 c 128,-1,24
 587 276 587 276 587 355 c 0,25,26
 587 433 587 433 573.5 490.5 c 128,-1,27
 560 548 560 548 533.5 585.5 c 128,-1,28
 507 623 507 623 467 641 c 128,-1,29
 427 659 427 659 375 659 c 0,30,31
 322 659 322 659 282 641 c 128,-1,32
 242 623 242 623 215.5 585.5 c 128,-1,33
 189 548 189 548 175.5 490.5 c 128,-1,34
 162 433 162 433 162 355 c 256,35,36
 162 277 162 277 175.5 219.5 c 128,-1,37
 189 162 189 162 216 125 c 128,-1,38
 243 88 243 88 282.5 69.5 c 128,-1,39
 322 51 322 51 375 51 c 0,20,21
EndSplineSet
EndChar

StartChar: Ohorn
Encoding: 416 416 123
Width: 796
GlyphClass: 2
Flags: W
AnchorPoint: "Anchor-1" 395 -35 basechar 0
AnchorPoint: "Anchor-0" 395 742 basechar 0
LayerCount: 2
Fore
SplineSet
375 51 m 256,0,1
 428 51 428 51 468 68.5 c 128,-1,2
 508 86 508 86 534 123 c 128,-1,3
 560 160 560 160 573.5 217.5 c 128,-1,4
 587 275 587 275 587 355 c 256,5,6
 587 435 587 435 573.5 492.5 c 128,-1,7
 560 550 560 550 534 587 c 128,-1,8
 508 624 508 624 468 641.5 c 128,-1,9
 428 659 428 659 375 659 c 256,10,11
 322 659 322 659 282 641.5 c 128,-1,12
 242 624 242 624 215.5 587 c 128,-1,13
 189 550 189 550 175.5 492.5 c 128,-1,14
 162 435 162 435 162 355 c 256,15,16
 162 275 162 275 175.5 217.5 c 128,-1,17
 189 160 189 160 215.5 123 c 128,-1,18
 242 86 242 86 282 68.5 c 128,-1,19
 322 51 322 51 375 51 c 256,0,1
556 636 m 1,20,-1
 522 674 l 1,21,22
 559 654 559 654 590 625 c 128,-1,23
 621 596 621 596 644 557.5 c 128,-1,24
 667 519 667 519 680 469 c 128,-1,25
 693 419 693 419 693 355 c 0,26,27
 693 263 693 263 670 192 c 128,-1,28
 647 121 647 121 605.5 73 c 128,-1,29
 564 25 564 25 505.5 0.5 c 128,-1,30
 447 -24 447 -24 375 -24 c 0,31,32
 304 -24 304 -24 245.5 0.5 c 128,-1,33
 187 25 187 25 144.5 73 c 128,-1,34
 102 121 102 121 79 192 c 128,-1,35
 56 263 56 263 56 355 c 0,36,37
 56 449 56 449 79 519.5 c 128,-1,38
 102 590 102 590 144.5 638 c 128,-1,39
 187 686 187 686 245.5 710 c 128,-1,40
 304 734 304 734 375 734 c 0,41,42
 418 734 418 734 450.5 728 c 128,-1,43
 483 722 483 722 508.5 715 c 128,-1,44
 534 708 534 708 556 702.5 c 128,-1,45
 578 697 578 697 602 697 c 0,46,47
 631 697 631 697 651.5 710 c 128,-1,48
 672 723 672 723 685.5 748.5 c 128,-1,49
 699 774 699 774 707 812 c 128,-1,50
 715 850 715 850 719 899 c 1,51,-1
 811 899 l 1,52,53
 808 826 808 826 793.5 773.5 c 128,-1,54
 779 721 779 721 755.5 687.5 c 128,-1,55
 732 654 732 654 703 638.5 c 128,-1,56
 674 623 674 623 643 623 c 0,57,58
 627 623 627 623 611 627 c 128,-1,59
 595 631 595 631 579.5 638 c 128,-1,60
 564 645 564 645 548 654 c 128,-1,61
 532 663 532 663 515 673 c 1,62,-1
 556 671 l 1,63,-1
 556 636 l 1,20,-1
EndSplineSet
EndChar

StartChar: Ocaron
Encoding: 465 465 124
Width: 749
GlyphClass: 1
Flags: W
LayerCount: 2
Fore
SplineSet
339 806 m 1,0,-1
 410 806 l 1,1,-1
 534 961 l 1,2,-1
 534 981 l 1,3,-1
 484 981 l 1,4,-1
 314 840 l 1,5,-1
 441 843 l 1,6,-1
 274 981 l 1,7,-1
 215 981 l 1,8,-1
 215 961 l 1,9,-1
 339 806 l 1,0,-1
375 -24 m 0,10,11
 303 -24 303 -24 244.5 0.5 c 128,-1,12
 186 25 186 25 143.5 73.5 c 128,-1,13
 101 122 101 122 78.5 192.5 c 128,-1,14
 56 263 56 263 56 355 c 0,15,16
 56 448 56 448 78.5 518.5 c 128,-1,17
 101 589 101 589 143.5 637 c 128,-1,18
 186 685 186 685 244.5 709.5 c 128,-1,19
 303 734 303 734 375 734 c 0,20,21
 446 734 446 734 504.5 709.5 c 128,-1,22
 563 685 563 685 605 637 c 128,-1,23
 647 589 647 589 670 518.5 c 128,-1,24
 693 448 693 448 693 355 c 0,25,26
 693 263 693 263 670 192.5 c 128,-1,27
 647 122 647 122 605 73.5 c 128,-1,28
 563 25 563 25 504.5 0.5 c 128,-1,29
 446 -24 446 -24 375 -24 c 0,10,11
375 51 m 0,30,31
 427 51 427 51 467 69.5 c 128,-1,32
 507 88 507 88 533.5 125 c 128,-1,33
 560 162 560 162 573.5 219.5 c 128,-1,34
 587 277 587 277 587 355 c 256,35,36
 587 433 587 433 573.5 490.5 c 128,-1,37
 560 548 560 548 533.5 585.5 c 128,-1,38
 507 623 507 623 467 641 c 128,-1,39
 427 659 427 659 375 659 c 0,40,41
 322 659 322 659 282 641 c 128,-1,42
 242 623 242 623 215.5 585.5 c 128,-1,43
 189 548 189 548 175.5 490.5 c 128,-1,44
 162 433 162 433 162 355 c 256,45,46
 162 277 162 277 175.5 219.5 c 128,-1,47
 189 162 189 162 216 125 c 128,-1,48
 243 88 243 88 282.5 69.5 c 128,-1,49
 322 51 322 51 375 51 c 0,30,31
EndSplineSet
EndChar

StartChar: Oogonek
Encoding: 490 490 125
Width: 749
GlyphClass: 1
Flags: W
LayerCount: 2
Fore
SplineSet
375 51 m 256,0,1
 428 51 428 51 468 68.5 c 128,-1,2
 508 86 508 86 534 123 c 128,-1,3
 560 160 560 160 573.5 217.5 c 128,-1,4
 587 275 587 275 587 355 c 256,5,6
 587 435 587 435 573.5 492.5 c 128,-1,7
 560 550 560 550 534 587 c 128,-1,8
 508 624 508 624 468 641.5 c 128,-1,9
 428 659 428 659 375 659 c 256,10,11
 322 659 322 659 282 641.5 c 128,-1,12
 242 624 242 624 215.5 587 c 128,-1,13
 189 550 189 550 175.5 492.5 c 128,-1,14
 162 435 162 435 162 355 c 256,15,16
 162 275 162 275 175.5 217.5 c 128,-1,17
 189 160 189 160 215.5 123 c 128,-1,18
 242 86 242 86 282 68.5 c 128,-1,19
 322 51 322 51 375 51 c 256,0,1
600 69 m 0,20,21
 581 48 581 48 556.5 26 c 128,-1,22
 532 4 532 4 506.5 -18 c 128,-1,23
 481 -40 481 -40 460 -62 c 128,-1,24
 439 -84 439 -84 425.5 -106 c 128,-1,25
 412 -128 412 -128 412 -150 c 0,26,27
 412 -167 412 -167 422 -178 c 128,-1,28
 432 -189 432 -189 454 -189 c 0,29,30
 481 -189 481 -189 499.5 -174 c 128,-1,31
 518 -159 518 -159 529 -143 c 1,32,-1
 573 -181 l 1,33,34
 557 -201 557 -201 537.5 -217.5 c 128,-1,35
 518 -234 518 -234 492.5 -243 c 128,-1,36
 467 -252 467 -252 432 -252 c 0,37,38
 394 -252 394 -252 364.5 -242.5 c 128,-1,39
 335 -233 335 -233 318.5 -212.5 c 128,-1,40
 302 -192 302 -192 302 -161 c 0,41,42
 302 -138 302 -138 311.5 -118.5 c 128,-1,43
 321 -99 321 -99 343 -78 c 128,-1,44
 365 -57 365 -57 403 -30 c 128,-1,45
 441 -3 441 -3 497 35 c 1,46,-1
 484 -5 l 1,47,48
 467 -11 467 -11 449.5 -15.5 c 128,-1,49
 432 -20 432 -20 413.5 -22 c 128,-1,50
 395 -24 395 -24 375 -24 c 0,51,52
 304 -24 304 -24 245.5 0.5 c 128,-1,53
 187 25 187 25 144.5 73 c 128,-1,54
 102 121 102 121 79 192 c 128,-1,55
 56 263 56 263 56 355 c 0,56,57
 56 449 56 449 79 519.5 c 128,-1,58
 102 590 102 590 144.5 638 c 128,-1,59
 187 686 187 686 245.5 710 c 128,-1,60
 304 734 304 734 375 734 c 256,61,62
 446 734 446 734 504.5 710 c 128,-1,63
 563 686 563 686 605 638 c 128,-1,64
 647 590 647 590 670 519.5 c 128,-1,65
 693 449 693 449 693 355 c 0,66,67
 693 293 693 293 682 240.5 c 128,-1,68
 671 188 671 188 650 145 c 128,-1,69
 629 102 629 102 600 69 c 0,20,21
EndSplineSet
EndChar

StartChar: Odblgrave
Encoding: 524 524 126
Width: 749
GlyphClass: 1
Flags: W
LayerCount: 2
Fore
SplineSet
466 926 m 2,0,-1
 508 825 l 1,1,-1
 508 793 l 1,2,-1
 467 793 l 1,3,-1
 399 857 l 2,4,5
 379 875 379 875 368 892.5 c 128,-1,6
 357 910 357 910 357 931 c 0,7,8
 357 948 357 948 370 960.5 c 128,-1,9
 383 973 383 973 405 973 c 0,10,11
 421 973 421 973 432.5 966.5 c 128,-1,12
 444 960 444 960 452 949.5 c 128,-1,13
 460 939 460 939 466 926 c 2,0,-1
282 926 m 2,14,-1
 321 825 l 1,15,-1
 321 793 l 1,16,-1
 281 793 l 1,17,-1
 213 857 l 2,18,19
 193 875 193 875 182 892.5 c 128,-1,20
 171 910 171 910 171 931 c 0,21,22
 171 948 171 948 184 960.5 c 128,-1,23
 197 973 197 973 219 973 c 0,24,25
 235 973 235 973 247.5 967 c 128,-1,26
 260 961 260 961 268.5 950 c 128,-1,27
 277 939 277 939 282 926 c 2,14,-1
375 -24 m 256,28,29
 303 -24 303 -24 244.5 0.5 c 128,-1,30
 186 25 186 25 144 73.5 c 128,-1,31
 102 122 102 122 79 192.5 c 128,-1,32
 56 263 56 263 56 355 c 0,33,34
 56 448 56 448 79 518.5 c 128,-1,35
 102 589 102 589 144 637 c 128,-1,36
 186 685 186 685 244.5 709.5 c 128,-1,37
 303 734 303 734 375 734 c 256,38,39
 447 734 447 734 505.5 709.5 c 128,-1,40
 564 685 564 685 605.5 637 c 128,-1,41
 647 589 647 589 670 518.5 c 128,-1,42
 693 448 693 448 693 355 c 0,43,44
 693 263 693 263 670 192.5 c 128,-1,45
 647 122 647 122 605.5 73.5 c 128,-1,46
 564 25 564 25 505.5 0.5 c 128,-1,47
 447 -24 447 -24 375 -24 c 256,28,29
375 51 m 0,48,49
 427 51 427 51 467 69.5 c 128,-1,50
 507 88 507 88 533.5 125 c 128,-1,51
 560 162 560 162 573.5 219.5 c 128,-1,52
 587 277 587 277 587 355 c 256,53,54
 587 433 587 433 573.5 490.5 c 128,-1,55
 560 548 560 548 533.5 585.5 c 128,-1,56
 507 623 507 623 467 641 c 128,-1,57
 427 659 427 659 375 659 c 0,58,59
 322 659 322 659 282 641 c 128,-1,60
 242 623 242 623 215.5 585.5 c 128,-1,61
 189 548 189 548 175.5 490.5 c 128,-1,62
 162 433 162 433 162 355 c 256,63,64
 162 277 162 277 175.5 219.5 c 128,-1,65
 189 162 189 162 216 125 c 128,-1,66
 243 88 243 88 282.5 69.5 c 128,-1,67
 322 51 322 51 375 51 c 0,48,49
EndSplineSet
EndChar

StartChar: Oinvertedbreve
Encoding: 526 526 127
Width: 749
GlyphClass: 1
Flags: W
LayerCount: 2
Fore
SplineSet
375 929 m 0,0,1
 321 929 321 929 284.5 912.5 c 128,-1,2
 248 896 248 896 228.5 859.5 c 128,-1,3
 209 823 209 823 208 762 c 1,4,-1
 280 762 l 1,5,6
 282 798 282 798 290.5 817.5 c 128,-1,7
 299 837 299 837 319 844.5 c 128,-1,8
 339 852 339 852 375 852 c 0,9,10
 407 852 407 852 426.5 844.5 c 128,-1,11
 446 837 446 837 455.5 818 c 128,-1,12
 465 799 465 799 466 762 c 1,13,-1
 542 762 l 1,14,15
 541 823 541 823 520.5 859.5 c 128,-1,16
 500 896 500 896 463 912.5 c 128,-1,17
 426 929 426 929 375 929 c 0,0,1
375 -24 m 256,18,19
 303 -24 303 -24 244.5 0.5 c 128,-1,20
 186 25 186 25 144 73.5 c 128,-1,21
 102 122 102 122 79 192.5 c 128,-1,22
 56 263 56 263 56 355 c 0,23,24
 56 448 56 448 79 518.5 c 128,-1,25
 102 589 102 589 144 637 c 128,-1,26
 186 685 186 685 244.5 709.5 c 128,-1,27
 303 734 303 734 375 734 c 256,28,29
 447 734 447 734 505.5 709.5 c 128,-1,30
 564 685 564 685 605.5 637 c 128,-1,31
 647 589 647 589 670 518.5 c 128,-1,32
 693 448 693 448 693 355 c 0,33,34
 693 263 693 263 670 192.5 c 128,-1,35
 647 122 647 122 605.5 73.5 c 128,-1,36
 564 25 564 25 505.5 0.5 c 128,-1,37
 447 -24 447 -24 375 -24 c 256,18,19
375 51 m 0,38,39
 427 51 427 51 467 69.5 c 128,-1,40
 507 88 507 88 533.5 125 c 128,-1,41
 560 162 560 162 573.5 219.5 c 128,-1,42
 587 277 587 277 587 355 c 256,43,44
 587 433 587 433 573.5 490.5 c 128,-1,45
 560 548 560 548 533.5 585.5 c 128,-1,46
 507 623 507 623 467 641 c 128,-1,47
 427 659 427 659 375 659 c 0,48,49
 322 659 322 659 282 641 c 128,-1,50
 242 623 242 623 215.5 585.5 c 128,-1,51
 189 548 189 548 175.5 490.5 c 128,-1,52
 162 433 162 433 162 355 c 256,53,54
 162 277 162 277 175.5 219.5 c 128,-1,55
 189 162 189 162 216 125 c 128,-1,56
 243 88 243 88 282.5 69.5 c 128,-1,57
 322 51 322 51 375 51 c 0,38,39
EndSplineSet
EndChar

StartChar: P
Encoding: 80 80 147
Width: 642
GlyphClass: 2
Flags: W
AnchorPoint: "Anchor-0" 319 741 basechar 0
LayerCount: 2
Fore
SplineSet
232 84 m 2,0,-1
 232 637 l 1,1,-1
 357 637 l 2,2,3
 400 637 400 637 429 620.5 c 128,-1,4
 458 604 458 604 472.5 572.5 c 128,-1,5
 487 541 487 541 487 495 c 256,6,7
 487 449 487 449 472.5 416.5 c 128,-1,8
 458 384 458 384 429 366.5 c 128,-1,9
 400 349 400 349 357 349 c 2,10,-1
 216 349 l 1,11,-1
 216 276 l 1,12,-1
 359 276 l 2,13,14
 426 276 426 276 478.5 301 c 128,-1,15
 531 326 531 326 561 376 c 128,-1,16
 591 426 591 426 591 499 c 0,17,18
 591 606 591 606 528 658 c 128,-1,19
 465 710 465 710 359 710 c 2,20,-1
 55 710 l 1,21,-1
 55 636 l 1,22,-1
 65 636 l 2,23,24
 92 636 92 636 112.5 629 c 128,-1,25
 133 622 133 622 133 600 c 2,26,-1
 133 110 l 2,27,28
 133 88 133 88 112.5 81 c 128,-1,29
 92 74 92 74 65 74 c 2,30,-1
 55 74 l 1,31,-1
 55 0 l 1,32,-1
 335 0 l 1,33,-1
 335 74 l 1,34,-1
 317 74 l 2,35,36
 300 74 300 74 285 74.5 c 128,-1,37
 270 75 270 75 258 76.5 c 128,-1,38
 246 78 246 78 239 79.5 c 128,-1,39
 232 81 232 81 232 84 c 2,0,-1
EndSplineSet
EndChar

StartChar: Q
Encoding: 81 81 148
Width: 749
GlyphClass: 1
Flags: W
LayerCount: 2
Fore
SplineSet
334 -3 m 1,0,-1
 414 10 l 1,1,2
 416 -49 416 -49 429 -84.5 c 128,-1,3
 442 -120 442 -120 469.5 -135.5 c 128,-1,4
 497 -151 497 -151 541 -151 c 0,5,6
 570 -151 570 -151 595 -147 c 128,-1,7
 620 -143 620 -143 643 -136.5 c 128,-1,8
 666 -130 666 -130 687 -124 c 1,9,-1
 687 -223 l 1,10,11
 660 -229 660 -229 622.5 -234 c 128,-1,12
 585 -239 585 -239 550 -239 c 0,13,14
 477 -239 477 -239 429 -212 c 128,-1,15
 381 -185 381 -185 357.5 -132 c 128,-1,16
 334 -79 334 -79 334 -3 c 1,0,-1
375 -24 m 256,17,18
 303 -24 303 -24 244.5 0.5 c 128,-1,19
 186 25 186 25 144 73.5 c 128,-1,20
 102 122 102 122 79 192.5 c 128,-1,21
 56 263 56 263 56 355 c 0,22,23
 56 448 56 448 79 518.5 c 128,-1,24
 102 589 102 589 144 637 c 128,-1,25
 186 685 186 685 244.5 709.5 c 128,-1,26
 303 734 303 734 375 734 c 256,27,28
 447 734 447 734 505.5 709.5 c 128,-1,29
 564 685 564 685 605.5 637 c 128,-1,30
 647 589 647 589 670 518.5 c 128,-1,31
 693 448 693 448 693 355 c 0,32,33
 693 263 693 263 670 192.5 c 128,-1,34
 647 122 647 122 605.5 73.5 c 128,-1,35
 564 25 564 25 505.5 0.5 c 128,-1,36
 447 -24 447 -24 375 -24 c 256,17,18
375 51 m 0,37,38
 427 51 427 51 468 69.5 c 128,-1,39
 509 88 509 88 536.5 125 c 128,-1,40
 564 162 564 162 579 219 c 128,-1,41
 594 276 594 276 594 355 c 0,42,43
 595 433 595 433 580.5 490.5 c 128,-1,44
 566 548 566 548 538 585.5 c 128,-1,45
 510 623 510 623 468.5 641 c 128,-1,46
 427 659 427 659 374 659 c 0,47,48
 322 659 322 659 282 641 c 128,-1,49
 242 623 242 623 215.5 585.5 c 128,-1,50
 189 548 189 548 175.5 490.5 c 128,-1,51
 162 433 162 433 162 355 c 256,52,53
 162 277 162 277 175.5 219.5 c 128,-1,54
 189 162 189 162 216 125 c 128,-1,55
 243 88 243 88 282.5 69.5 c 128,-1,56
 322 51 322 51 375 51 c 0,37,38
EndSplineSet
EndChar

StartChar: R
Encoding: 82 82 149
Width: 703
GlyphClass: 2
Flags: W
AnchorPoint: "Anchor-1" 394 0 basechar 0
AnchorPoint: "Anchor-0" 394 741 basechar 0
LayerCount: 2
Fore
SplineSet
361 322 m 1,0,-1
 528 0 l 1,1,-1
 675 0 l 1,2,-1
 675 74 l 1,3,-1
 666 74 l 2,4,5
 645 74 645 74 628 79 c 128,-1,6
 611 84 611 84 596.5 97.5 c 128,-1,7
 582 111 582 111 568 136 c 2,8,-1
 444 365 l 1,9,-1
 361 322 l 1,0,-1
232 84 m 2,10,-1
 232 637 l 1,11,-1
 360 637 l 2,12,13
 406 637 406 637 436 623 c 128,-1,14
 466 609 466 609 480.5 580.5 c 128,-1,15
 495 552 495 552 495 509 c 0,16,17
 495 467 495 467 481.5 434.5 c 128,-1,18
 468 402 468 402 437 383.5 c 128,-1,19
 406 365 406 365 354 365 c 2,20,-1
 222 365 l 1,21,-1
 222 296 l 1,22,-1
 392 296 l 2,23,24
 397 296 397 296 400.5 297.5 c 128,-1,25
 404 299 404 299 409 302.5 c 128,-1,26
 414 306 414 306 421 311 c 0,27,28
 473 323 473 323 511 350 c 128,-1,29
 549 377 549 377 570 419.5 c 128,-1,30
 591 462 591 462 591 519 c 0,31,32
 591 583 591 583 564 625.5 c 128,-1,33
 537 668 537 668 486 689 c 128,-1,34
 435 710 435 710 363 710 c 2,35,-1
 55 710 l 1,36,-1
 55 636 l 1,37,-1
 65 636 l 2,38,39
 92 636 92 636 112.5 629 c 128,-1,40
 133 622 133 622 133 600 c 2,41,-1
 133 110 l 2,42,43
 133 88 133 88 112.5 81 c 128,-1,44
 92 74 92 74 65 74 c 2,45,-1
 55 74 l 1,46,-1
 55 0 l 1,47,-1
 335 0 l 1,48,-1
 335 74 l 1,49,-1
 316 74 l 2,50,51
 300 74 300 74 285 74.5 c 128,-1,52
 270 75 270 75 258 76.5 c 128,-1,53
 246 78 246 78 239 79.5 c 128,-1,54
 232 81 232 81 232 84 c 2,10,-1
EndSplineSet
EndChar

StartChar: Rcaron
Encoding: 344 344 152
Width: 703
GlyphClass: 1
Flags: W
LayerCount: 2
Fore
SplineSet
307 806 m 1,0,-1
 378 806 l 1,1,-1
 502 961 l 1,2,-1
 502 981 l 1,3,-1
 452 981 l 1,4,-1
 282 840 l 1,5,-1
 409 843 l 1,6,-1
 242 981 l 1,7,-1
 183 981 l 1,8,-1
 183 961 l 1,9,-1
 307 806 l 1,0,-1
361 322 m 1,10,-1
 528 0 l 1,11,-1
 675 0 l 1,12,-1
 675 74 l 1,13,-1
 666 74 l 2,14,15
 645 74 645 74 628 79 c 128,-1,16
 611 84 611 84 596.5 97.5 c 128,-1,17
 582 111 582 111 568 136 c 2,18,-1
 444 365 l 1,19,-1
 361 322 l 1,10,-1
232 84 m 2,20,-1
 232 637 l 1,21,-1
 360 637 l 2,22,23
 406 637 406 637 436 623 c 128,-1,24
 466 609 466 609 480.5 580.5 c 128,-1,25
 495 552 495 552 495 509 c 0,26,27
 495 467 495 467 481.5 434.5 c 128,-1,28
 468 402 468 402 437 383.5 c 128,-1,29
 406 365 406 365 354 365 c 2,30,-1
 222 365 l 1,31,-1
 222 296 l 1,32,-1
 392 296 l 2,33,34
 397 296 397 296 400.5 297.5 c 128,-1,35
 404 299 404 299 409 302.5 c 128,-1,36
 414 306 414 306 421 311 c 0,37,38
 473 323 473 323 511 350 c 128,-1,39
 549 377 549 377 570 419.5 c 128,-1,40
 591 462 591 462 591 519 c 0,41,42
 591 583 591 583 564 625.5 c 128,-1,43
 537 668 537 668 486 689 c 128,-1,44
 435 710 435 710 363 710 c 2,45,-1
 55 710 l 1,46,-1
 55 636 l 1,47,-1
 65 636 l 2,48,49
 92 636 92 636 112.5 629 c 128,-1,50
 133 622 133 622 133 600 c 2,51,-1
 133 110 l 2,52,53
 133 88 133 88 112.5 81 c 128,-1,54
 92 74 92 74 65 74 c 2,55,-1
 55 74 l 1,56,-1
 55 0 l 1,57,-1
 335 0 l 1,58,-1
 335 74 l 1,59,-1
 316 74 l 2,60,61
 300 74 300 74 285 74.5 c 128,-1,62
 270 75 270 75 258 76.5 c 128,-1,63
 246 78 246 78 239 79.5 c 128,-1,64
 232 81 232 81 232 84 c 2,20,-1
EndSplineSet
EndChar

StartChar: Rdblgrave
Encoding: 528 528 153
Width: 703
GlyphClass: 1
Flags: W
LayerCount: 2
Fore
SplineSet
434 926 m 2,0,-1
 476 825 l 1,1,-1
 476 793 l 1,2,-1
 435 793 l 1,3,-1
 367 857 l 2,4,5
 347 875 347 875 336.5 892.5 c 128,-1,6
 326 910 326 910 326 931 c 0,7,8
 326 948 326 948 339 960.5 c 128,-1,9
 352 973 352 973 373 973 c 0,10,11
 390 973 390 973 401.5 966.5 c 128,-1,12
 413 960 413 960 421 949.5 c 128,-1,13
 429 939 429 939 434 926 c 2,0,-1
251 926 m 2,14,-1
 290 825 l 1,15,-1
 290 793 l 1,16,-1
 249 793 l 1,17,-1
 181 857 l 2,18,19
 161 875 161 875 150 892.5 c 128,-1,20
 139 910 139 910 139 931 c 0,21,22
 139 948 139 948 152 960.5 c 128,-1,23
 165 973 165 973 188 973 c 0,24,25
 204 973 204 973 216 966.5 c 128,-1,26
 228 960 228 960 237 949.5 c 128,-1,27
 246 939 246 939 251 926 c 2,14,-1
361 322 m 1,28,-1
 528 0 l 1,29,-1
 675 0 l 1,30,-1
 675 74 l 1,31,-1
 666 74 l 2,32,33
 645 74 645 74 628 79 c 128,-1,34
 611 84 611 84 596.5 97.5 c 128,-1,35
 582 111 582 111 568 136 c 2,36,-1
 444 365 l 1,37,-1
 361 322 l 1,28,-1
232 84 m 2,38,-1
 232 637 l 1,39,-1
 360 637 l 2,40,41
 406 637 406 637 436 623 c 128,-1,42
 466 609 466 609 480.5 580.5 c 128,-1,43
 495 552 495 552 495 509 c 0,44,45
 495 467 495 467 481.5 434.5 c 128,-1,46
 468 402 468 402 437 383.5 c 128,-1,47
 406 365 406 365 354 365 c 2,48,-1
 222 365 l 1,49,-1
 222 296 l 1,50,-1
 392 296 l 2,51,52
 397 296 397 296 400.5 297.5 c 128,-1,53
 404 299 404 299 409 302.5 c 128,-1,54
 414 306 414 306 421 311 c 0,55,56
 473 323 473 323 511 350 c 128,-1,57
 549 377 549 377 570 419.5 c 128,-1,58
 591 462 591 462 591 520 c 0,59,60
 591 583 591 583 564 625.5 c 128,-1,61
 537 668 537 668 486 689 c 128,-1,62
 435 710 435 710 363 710 c 2,63,-1
 55 710 l 1,64,-1
 55 636 l 1,65,-1
 65 636 l 2,66,67
 92 636 92 636 112.5 629 c 128,-1,68
 133 622 133 622 133 600 c 2,69,-1
 133 110 l 2,70,71
 133 88 133 88 112.5 81 c 128,-1,72
 92 74 92 74 65 74 c 2,73,-1
 55 74 l 1,74,-1
 55 0 l 1,75,-1
 335 0 l 1,76,-1
 335 74 l 1,77,-1
 316 74 l 2,78,79
 300 74 300 74 285 74.5 c 128,-1,80
 270 75 270 75 258 76.5 c 128,-1,81
 246 78 246 78 239 79.5 c 128,-1,82
 232 81 232 81 232 84 c 2,38,-1
EndSplineSet
EndChar

StartChar: Rinvertedbreve
Encoding: 530 530 154
Width: 703
GlyphClass: 1
Flags: W
LayerCount: 2
Fore
SplineSet
343 929 m 0,0,1
 289 929 289 929 252.5 912.5 c 128,-1,2
 216 896 216 896 196.5 859.5 c 128,-1,3
 177 823 177 823 176 762 c 1,4,-1
 247 762 l 1,5,6
 250 798 250 798 258.5 817.5 c 128,-1,7
 267 837 267 837 287 844.5 c 128,-1,8
 307 852 307 852 343 852 c 0,9,10
 375 852 375 852 394.5 844.5 c 128,-1,11
 414 837 414 837 423.5 818 c 128,-1,12
 433 799 433 799 434 762 c 1,13,-1
 510 762 l 1,14,15
 509 823 509 823 488.5 859.5 c 128,-1,16
 468 896 468 896 431 912.5 c 128,-1,17
 394 929 394 929 343 929 c 0,0,1
361 322 m 1,18,-1
 528 0 l 1,19,-1
 675 0 l 1,20,-1
 675 74 l 1,21,-1
 666 74 l 2,22,23
 645 74 645 74 628 79 c 128,-1,24
 611 84 611 84 596.5 97.5 c 128,-1,25
 582 111 582 111 568 136 c 2,26,-1
 444 365 l 1,27,-1
 361 322 l 1,18,-1
232 84 m 2,28,-1
 232 637 l 1,29,-1
 360 637 l 2,30,31
 406 637 406 637 436 623 c 128,-1,32
 466 609 466 609 480.5 580.5 c 128,-1,33
 495 552 495 552 495 509 c 0,34,35
 495 467 495 467 481.5 434.5 c 128,-1,36
 468 402 468 402 437 383.5 c 128,-1,37
 406 365 406 365 354 365 c 2,38,-1
 222 365 l 1,39,-1
 222 296 l 1,40,-1
 392 296 l 2,41,42
 397 296 397 296 400.5 297.5 c 128,-1,43
 404 299 404 299 409 302.5 c 128,-1,44
 414 306 414 306 421 311 c 0,45,46
 473 323 473 323 511 350 c 128,-1,47
 549 377 549 377 570 419.5 c 128,-1,48
 591 462 591 462 591 519 c 0,49,50
 591 583 591 583 564 625.5 c 128,-1,51
 537 668 537 668 486 689 c 128,-1,52
 435 710 435 710 363 710 c 2,53,-1
 55 710 l 1,54,-1
 55 636 l 1,55,-1
 65 636 l 2,56,57
 92 636 92 636 112.5 629 c 128,-1,58
 133 622 133 622 133 600 c 2,59,-1
 133 110 l 2,60,61
 133 88 133 88 112.5 81 c 128,-1,62
 92 74 92 74 65 74 c 2,63,-1
 55 74 l 1,64,-1
 55 0 l 1,65,-1
 335 0 l 1,66,-1
 335 74 l 1,67,-1
 316 74 l 2,68,69
 300 74 300 74 285 74.5 c 128,-1,70
 270 75 270 75 258 76.5 c 128,-1,71
 246 78 246 78 239 79.5 c 128,-1,72
 232 81 232 81 232 84 c 2,28,-1
EndSplineSet
EndChar

StartChar: S
Encoding: 83 83 157
Width: 609
GlyphClass: 2
Flags: W
AnchorPoint: "Anchor-1" 334 0 basechar 0
AnchorPoint: "Anchor-0" 334 741 basechar 0
LayerCount: 2
Fore
SplineSet
337 50 m 0,0,1
 383 50 383 50 412 61.5 c 128,-1,2
 441 73 441 73 454.5 99.5 c 128,-1,3
 468 126 468 126 468 172 c 0,4,5
 468 212 468 212 452.5 237 c 128,-1,6
 437 262 437 262 411.5 278 c 128,-1,7
 386 294 386 294 353.5 304 c 128,-1,8
 321 314 321 314 285 323 c 0,9,10
 242 335 242 335 204 349 c 128,-1,11
 166 363 166 363 137.5 385.5 c 128,-1,12
 109 408 109 408 92.5 446.5 c 128,-1,13
 76 485 76 485 76 546 c 0,14,15
 76 605 76 605 99.5 647.5 c 128,-1,16
 123 690 123 690 168.5 712 c 128,-1,17
 214 734 214 734 282 734 c 0,18,19
 338 734 338 734 378 714.5 c 128,-1,20
 418 695 418 695 440 651.5 c 128,-1,21
 462 608 462 608 464 538 c 1,22,-1
 444 586 l 1,23,-1
 457 720 l 1,24,-1
 527 720 l 1,25,-1
 527 506 l 1,26,-1
 454 506 l 1,27,28
 442 556 442 556 420.5 590.5 c 128,-1,29
 399 625 399 625 365.5 643.5 c 128,-1,30
 332 662 332 662 283 662 c 0,31,32
 241 662 241 662 215 649.5 c 128,-1,33
 189 637 189 637 177.5 612 c 128,-1,34
 166 587 166 587 166 550 c 256,35,36
 166 513 166 513 178 490.5 c 128,-1,37
 190 468 190 468 213 454 c 128,-1,38
 236 440 236 440 268 430.5 c 128,-1,39
 300 421 300 421 340 409 c 0,40,41
 379 398 379 398 418.5 384 c 128,-1,42
 458 370 458 370 490.5 346.5 c 128,-1,43
 523 323 523 323 542 284.5 c 128,-1,44
 561 246 561 246 561 187 c 0,45,46
 561 112 561 112 532.5 65.5 c 128,-1,47
 504 19 504 19 454 -2.5 c 128,-1,48
 404 -24 404 -24 338 -24 c 0,49,50
 274 -24 274 -24 226.5 -2 c 128,-1,51
 179 20 179 20 151 69.5 c 128,-1,52
 123 119 123 119 117 201 c 1,53,-1
 141 155 l 1,54,-1
 129 -7 l 1,55,-1
 60 -7 l 1,56,-1
 60 233 l 1,57,-1
 136 233 l 1,58,59
 149 170 149 170 174 129.5 c 128,-1,60
 199 89 199 89 239 69.5 c 128,-1,61
 279 50 279 50 337 50 c 0,0,1
EndSplineSet
EndChar

StartChar: Scaron
Encoding: 352 352 161
Width: 609
GlyphClass: 1
Flags: W
LayerCount: 2
Fore
SplineSet
275 806 m 1,0,-1
 346 806 l 1,1,-1
 470 961 l 1,2,-1
 470 981 l 1,3,-1
 420 981 l 1,4,-1
 250 840 l 1,5,-1
 377 843 l 1,6,-1
 210 981 l 1,7,-1
 151 981 l 1,8,-1
 151 961 l 1,9,-1
 275 806 l 1,0,-1
337 50 m 0,10,11
 383 50 383 50 412 61.5 c 128,-1,12
 441 73 441 73 454.5 99.5 c 128,-1,13
 468 126 468 126 468 172 c 0,14,15
 468 212 468 212 452.5 237 c 128,-1,16
 437 262 437 262 411.5 278 c 128,-1,17
 386 294 386 294 353.5 304 c 128,-1,18
 321 314 321 314 285 323 c 0,19,20
 242 335 242 335 204 349 c 128,-1,21
 166 363 166 363 137.5 385.5 c 128,-1,22
 109 408 109 408 92.5 446.5 c 128,-1,23
 76 485 76 485 76 546 c 0,24,25
 76 605 76 605 99.5 647.5 c 128,-1,26
 123 690 123 690 168.5 712 c 128,-1,27
 214 734 214 734 282 734 c 0,28,29
 338 734 338 734 378 714.5 c 128,-1,30
 418 695 418 695 440 651.5 c 128,-1,31
 462 608 462 608 464 538 c 1,32,-1
 444 586 l 1,33,-1
 457 720 l 1,34,-1
 527 720 l 1,35,-1
 527 506 l 1,36,-1
 454 506 l 1,37,38
 442 556 442 556 420.5 590.5 c 128,-1,39
 399 625 399 625 365.5 643.5 c 128,-1,40
 332 662 332 662 283 662 c 0,41,42
 241 662 241 662 215 649.5 c 128,-1,43
 189 637 189 637 177.5 612 c 128,-1,44
 166 587 166 587 166 550 c 256,45,46
 166 513 166 513 178 490.5 c 128,-1,47
 190 468 190 468 213 454 c 128,-1,48
 236 440 236 440 268 430.5 c 128,-1,49
 300 421 300 421 340 409 c 0,50,51
 379 398 379 398 418.5 384 c 128,-1,52
 458 370 458 370 490.5 346.5 c 128,-1,53
 523 323 523 323 542 284.5 c 128,-1,54
 561 246 561 246 561 187 c 0,55,56
 561 112 561 112 532.5 65.5 c 128,-1,57
 504 19 504 19 454 -2.5 c 128,-1,58
 404 -24 404 -24 338 -24 c 0,59,60
 274 -24 274 -24 226.5 -2 c 128,-1,61
 179 20 179 20 151 69.5 c 128,-1,62
 123 119 123 119 117 201 c 1,63,-1
 141 155 l 1,64,-1
 129 -7 l 1,65,-1
 60 -7 l 1,66,-1
 60 233 l 1,67,-1
 136 233 l 1,68,69
 149 170 149 170 174 129.5 c 128,-1,70
 199 89 199 89 239 69.5 c 128,-1,71
 279 50 279 50 337 50 c 0,10,11
EndSplineSet
EndChar

StartChar: Scarondotaccent
Encoding: 7782 7782 166
Width: 609
GlyphClass: 1
Flags: W
LayerCount: 2
Fore
SplineSet
273 806 m 1,0,-1
 344 806 l 1,1,-1
 467 961 l 1,2,-1
 467 981 l 1,3,-1
 418 981 l 1,4,-1
 248 840 l 1,5,-1
 374 843 l 1,6,-1
 207 981 l 1,7,-1
 148 981 l 1,8,-1
 148 961 l 1,9,-1
 273 806 l 1,0,-1
337 50 m 0,10,11
 383 50 383 50 412 61.5 c 128,-1,12
 441 73 441 73 454.5 99.5 c 128,-1,13
 468 126 468 126 468 172 c 0,14,15
 468 212 468 212 452.5 237 c 128,-1,16
 437 262 437 262 411.5 278 c 128,-1,17
 386 294 386 294 353.5 304 c 128,-1,18
 321 314 321 314 285 323 c 0,19,20
 242 335 242 335 204 349 c 128,-1,21
 166 363 166 363 137.5 385.5 c 128,-1,22
 109 408 109 408 92.5 446.5 c 128,-1,23
 76 485 76 485 76 546 c 0,24,25
 76 605 76 605 99.5 647.5 c 128,-1,26
 123 690 123 690 168.5 712 c 128,-1,27
 214 734 214 734 282 734 c 0,28,29
 338 734 338 734 378 714.5 c 128,-1,30
 418 695 418 695 440 651.5 c 128,-1,31
 462 608 462 608 464 538 c 1,32,-1
 444 586 l 1,33,-1
 457 720 l 1,34,-1
 527 720 l 1,35,-1
 527 506 l 1,36,-1
 454 506 l 1,37,38
 442 556 442 556 420.5 590.5 c 128,-1,39
 399 625 399 625 365.5 643.5 c 128,-1,40
 332 662 332 662 283 662 c 0,41,42
 241 662 241 662 215 649.5 c 128,-1,43
 189 637 189 637 177.5 612 c 128,-1,44
 166 587 166 587 166 550 c 256,45,46
 166 513 166 513 178 490.5 c 128,-1,47
 190 468 190 468 213 454 c 128,-1,48
 236 440 236 440 268 430.5 c 128,-1,49
 300 421 300 421 340 409 c 0,50,51
 379 398 379 398 418.5 384 c 128,-1,52
 458 370 458 370 490.5 346.5 c 128,-1,53
 523 323 523 323 542 284.5 c 128,-1,54
 561 246 561 246 561 187 c 0,55,56
 561 112 561 112 532.5 65.5 c 128,-1,57
 504 19 504 19 454 -2.5 c 128,-1,58
 404 -24 404 -24 338 -24 c 0,59,60
 274 -24 274 -24 226.5 -2 c 128,-1,61
 179 20 179 20 151 69.5 c 128,-1,62
 123 119 123 119 117 201 c 1,63,-1
 141 155 l 1,64,-1
 129 -7 l 1,65,-1
 60 -7 l 1,66,-1
 60 233 l 1,67,-1
 136 233 l 1,68,69
 149 170 149 170 174 129.5 c 128,-1,70
 199 89 199 89 239 69.5 c 128,-1,71
 279 50 279 50 337 50 c 0,10,11
308 1010 m 256,72,73
 273 1010 273 1010 254 1028 c 128,-1,74
 235 1046 235 1046 235 1082 c 0,75,76
 235 1116 235 1116 254 1134.5 c 128,-1,77
 273 1153 273 1153 308 1153 c 256,78,79
 343 1153 343 1153 362 1134.5 c 128,-1,80
 381 1116 381 1116 381 1082 c 0,81,82
 381 1046 381 1046 362 1028 c 128,-1,83
 343 1010 343 1010 308 1010 c 256,72,73
EndSplineSet
EndChar

StartChar: T
Encoding: 84 84 168
Width: 675
GlyphClass: 2
Flags: W
AnchorPoint: "Anchor-1" 342 0 basechar 0
AnchorPoint: "Anchor-0" 342 741 basechar 0
LayerCount: 2
Fore
SplineSet
288 110 m 2,0,-1
 288 637 l 1,1,-1
 231 637 l 2,2,3
 192 637 192 637 171.5 631 c 128,-1,4
 151 625 151 625 142.5 612 c 128,-1,5
 134 599 134 599 132 579 c 2,6,-1
 121 473 l 1,7,-1
 49 473 l 1,8,-1
 49 710 l 1,9,-1
 626 710 l 1,10,-1
 626 473 l 1,11,-1
 554 473 l 1,12,-1
 543 579 l 2,13,14
 541 599 541 599 533 612 c 128,-1,15
 525 625 525 625 504 631 c 128,-1,16
 483 637 483 637 443 637 c 2,17,-1
 387 637 l 1,18,-1
 387 110 l 2,19,20
 387 88 387 88 410.5 81 c 128,-1,21
 434 74 434 74 464 74 c 2,22,-1
 482 74 l 1,23,-1
 482 0 l 1,24,-1
 194 0 l 1,25,-1
 194 74 l 1,26,-1
 212 74 l 2,27,28
 242 74 242 74 265 81 c 128,-1,29
 288 88 288 88 288 110 c 2,0,-1
EndSplineSet
EndChar

StartChar: Tcaron
Encoding: 356 356 170
Width: 675
GlyphClass: 1
Flags: W
LayerCount: 2
Fore
SplineSet
296 806 m 1,0,-1
 367 806 l 1,1,-1
 491 961 l 1,2,-1
 491 981 l 1,3,-1
 441 981 l 1,4,-1
 271 840 l 1,5,-1
 398 843 l 1,6,-1
 231 981 l 1,7,-1
 172 981 l 1,8,-1
 172 961 l 1,9,-1
 296 806 l 1,0,-1
288 110 m 2,10,-1
 288 637 l 1,11,-1
 231 637 l 2,12,13
 192 637 192 637 171 631 c 128,-1,14
 150 625 150 625 142 612 c 128,-1,15
 134 599 134 599 132 579 c 2,16,-1
 121 473 l 1,17,-1
 49 473 l 1,18,-1
 49 710 l 1,19,-1
 626 710 l 1,20,-1
 626 473 l 1,21,-1
 554 473 l 1,22,-1
 543 579 l 2,23,24
 541 599 541 599 533 612 c 128,-1,25
 525 625 525 625 504 631 c 128,-1,26
 483 637 483 637 443 637 c 2,27,-1
 387 637 l 1,28,-1
 387 110 l 2,29,30
 387 88 387 88 410.5 81 c 128,-1,31
 434 74 434 74 464 74 c 2,32,-1
 482 74 l 1,33,-1
 482 0 l 1,34,-1
 194 0 l 1,35,-1
 194 74 l 1,36,-1
 212 74 l 2,37,38
 242 74 242 74 265 81 c 128,-1,39
 288 88 288 88 288 110 c 2,10,-1
EndSplineSet
EndChar

StartChar: U
Encoding: 85 85 174
Width: 756
GlyphClass: 2
Flags: W
AnchorPoint: "Anchor-2" 433 0 basechar 0
AnchorPoint: "Anchor-1" 382 0 basechar 0
AnchorPoint: "Anchor-0" 382 741 basechar 0
LayerCount: 2
Fore
SplineSet
223 245 m 2,0,1
 223 192 223 192 235.5 155.5 c 128,-1,2
 248 119 248 119 270.5 97 c 128,-1,3
 293 75 293 75 323 65 c 128,-1,4
 353 55 353 55 389 55 c 256,5,6
 425 55 425 55 455 65 c 128,-1,7
 485 75 485 75 506.5 97 c 128,-1,8
 528 119 528 119 539.5 155.5 c 128,-1,9
 551 192 551 192 551 245 c 2,10,-1
 551 617 l 2,11,12
 551 622 551 622 543.5 625.5 c 128,-1,13
 536 629 536 629 525.5 631 c 128,-1,14
 515 633 515 633 503 634.5 c 128,-1,15
 491 636 491 636 481 636 c 2,16,-1
 473 636 l 1,17,-1
 473 710 l 1,18,-1
 709 710 l 1,19,-1
 709 636 l 1,20,-1
 700 636 l 2,21,22
 682 636 682 636 666.5 632 c 128,-1,23
 651 628 651 628 641.5 618 c 128,-1,24
 632 608 632 608 632 591 c 2,25,-1
 632 234 l 2,26,27
 632 165 632 165 612.5 116 c 128,-1,28
 593 67 593 67 557.5 36 c 128,-1,29
 522 5 522 5 477 -9.5 c 128,-1,30
 432 -24 432 -24 381 -24 c 0,31,32
 327 -24 327 -24 280.5 -9.5 c 128,-1,33
 234 5 234 5 198.5 36 c 128,-1,34
 163 67 163 67 143.5 116 c 128,-1,35
 124 165 124 165 124 234 c 2,36,-1
 124 600 l 2,37,38
 124 622 124 622 103.5 629 c 128,-1,39
 83 636 83 636 56 636 c 2,40,-1
 46 636 l 1,41,-1
 46 710 l 1,42,-1
 309 710 l 1,43,-1
 309 636 l 1,44,-1
 301 636 l 2,45,46
 288 636 288 636 274 635.5 c 128,-1,47
 260 635 260 635 248.5 633.5 c 128,-1,48
 237 632 237 632 230 630.5 c 128,-1,49
 223 629 223 629 223 626 c 2,50,-1
 223 245 l 2,0,1
EndSplineSet
EndChar

StartChar: Uogonek
Encoding: 370 370 184
Width: 756
GlyphClass: 1
Flags: W
LayerCount: 2
Fore
SplineSet
486 40 m 1,0,-1
 486 -4 l 1,1,2
 463 -15 463 -15 436.5 -19.5 c 128,-1,3
 410 -24 410 -24 382 -24 c 0,4,5
 326 -24 326 -24 279 -9.5 c 128,-1,6
 232 5 232 5 197 36 c 128,-1,7
 162 67 162 67 143 116 c 128,-1,8
 124 165 124 165 124 234 c 2,9,-1
 124 600 l 2,10,11
 124 622 124 622 106.5 629 c 128,-1,12
 89 636 89 636 56 636 c 2,13,-1
 46 636 l 1,14,-1
 46 710 l 1,15,-1
 309 710 l 1,16,-1
 309 637 l 1,17,-1
 301 637 l 2,18,19
 288 637 288 637 274 636 c 128,-1,20
 260 635 260 635 248.5 633.5 c 128,-1,21
 237 632 237 632 230 630.5 c 128,-1,22
 223 629 223 629 223 626 c 2,23,-1
 223 234 l 2,24,25
 223 183 223 183 235.5 149 c 128,-1,26
 248 115 248 115 270.5 94.5 c 128,-1,27
 293 74 293 74 323.5 65.5 c 128,-1,28
 354 57 354 57 392 57 c 0,29,30
 428 57 428 57 457.5 65.5 c 128,-1,31
 487 74 487 74 508 94.5 c 128,-1,32
 529 115 529 115 540.5 149.5 c 128,-1,33
 552 184 552 184 552 234 c 2,34,-1
 552 617 l 2,35,36
 552 622 552 622 545.5 625.5 c 128,-1,37
 539 629 539 629 529 631 c 128,-1,38
 519 633 519 633 506.5 634.5 c 128,-1,39
 494 636 494 636 481 636 c 2,40,-1
 473 636 l 1,41,-1
 473 710 l 1,42,-1
 709 710 l 1,43,-1
 709 636 l 1,44,-1
 700 636 l 2,45,46
 678 636 678 636 662.5 632 c 128,-1,47
 647 628 647 628 639.5 618 c 128,-1,48
 632 608 632 608 632 591 c 2,49,-1
 632 234 l 2,50,51
 632 190 632 190 622.5 153.5 c 128,-1,52
 613 117 613 117 598 89 c 128,-1,53
 583 61 583 61 564 40 c 0,54,55
 544 18 544 18 517 -4 c 128,-1,56
 490 -26 490 -26 465 -48 c 128,-1,57
 440 -70 440 -70 423.5 -95.5 c 128,-1,58
 407 -121 407 -121 407 -150 c 0,59,60
 407 -163 407 -163 415.5 -174 c 128,-1,61
 424 -185 424 -185 446 -185 c 0,62,63
 475 -185 475 -185 492.5 -171 c 128,-1,64
 510 -157 510 -157 522 -141 c 1,65,-1
 564 -181 l 1,66,67
 540 -212 540 -212 507.5 -232 c 128,-1,68
 475 -252 475 -252 423 -252 c 0,69,70
 388 -252 388 -252 360 -242.5 c 128,-1,71
 332 -233 332 -233 315.5 -212.5 c 128,-1,72
 299 -192 299 -192 299 -161 c 0,73,74
 299 -138 299 -138 307.5 -118 c 128,-1,75
 316 -98 316 -98 336.5 -77.5 c 128,-1,76
 357 -57 357 -57 394 -28.5 c 128,-1,77
 431 0 431 0 486 40 c 1,0,-1
EndSplineSet
EndChar

StartChar: Uhorn
Encoding: 431 431 185
Width: 859
GlyphClass: 2
Flags: W
AnchorPoint: "Anchor-1" 433 -35 basechar 0
AnchorPoint: "Anchor-0" 433 663 basechar 0
LayerCount: 2
Fore
SplineSet
124 234 m 2,0,-1
 124 600 l 2,1,2
 124 622 124 622 106.5 629 c 128,-1,3
 89 636 89 636 56 636 c 2,4,-1
 46 636 l 1,5,-1
 46 710 l 1,6,-1
 309 710 l 1,7,-1
 309 637 l 1,8,-1
 301 637 l 2,9,10
 288 637 288 637 274 636 c 128,-1,11
 260 635 260 635 248.5 633.5 c 128,-1,12
 237 632 237 632 230 630.5 c 128,-1,13
 223 629 223 629 223 626 c 2,14,-1
 223 234 l 2,15,16
 223 184 223 184 235.5 149.5 c 128,-1,17
 248 115 248 115 270.5 94.5 c 128,-1,18
 293 74 293 74 324 65 c 128,-1,19
 355 56 355 56 392 56 c 0,20,21
 438 56 438 56 474 72.5 c 128,-1,22
 510 89 510 89 531 128 c 128,-1,23
 552 167 552 167 552 234 c 2,24,-1
 552 617 l 2,25,26
 552 622 552 622 545.5 625.5 c 128,-1,27
 539 629 539 629 529 631 c 128,-1,28
 519 633 519 633 506.5 634.5 c 128,-1,29
 494 636 494 636 481 636 c 2,30,-1
 473 636 l 1,31,-1
 473 710 l 1,32,-1
 687 710 l 2,33,34
 719 710 719 710 740.5 723 c 128,-1,35
 762 736 762 736 775.5 760.5 c 128,-1,36
 789 785 789 785 795.5 819.5 c 128,-1,37
 802 854 802 854 805 899 c 1,38,-1
 897 899 l 1,39,40
 896 846 896 846 888.5 805 c 128,-1,41
 881 764 881 764 866 734 c 128,-1,42
 851 704 851 704 827.5 684 c 128,-1,43
 804 664 804 664 770 652.5 c 128,-1,44
 736 641 736 641 689 636 c 0,45,46
 672 636 672 636 659 631.5 c 128,-1,47
 646 627 646 627 639 618 c 128,-1,48
 632 609 632 609 632 593 c 2,49,-1
 632 234 l 2,50,51
 632 165 632 165 612.5 116 c 128,-1,52
 593 67 593 67 559 36 c 128,-1,53
 525 5 525 5 479.5 -9.5 c 128,-1,54
 434 -24 434 -24 381 -24 c 0,55,56
 326 -24 326 -24 279 -9.5 c 128,-1,57
 232 5 232 5 197 36 c 128,-1,58
 162 67 162 67 143 116 c 128,-1,59
 124 165 124 165 124 234 c 2,0,-1
EndSplineSet
EndChar

StartChar: Ucaron
Encoding: 467 467 186
Width: 756
GlyphClass: 1
Flags: W
LayerCount: 2
Fore
SplineSet
349 806 m 1,0,-1
 420 806 l 1,1,-1
 544 961 l 1,2,-1
 544 981 l 1,3,-1
 494 981 l 1,4,-1
 324 840 l 1,5,-1
 451 843 l 1,6,-1
 284 981 l 1,7,-1
 225 981 l 1,8,-1
 225 961 l 1,9,-1
 349 806 l 1,0,-1
223 245 m 2,10,11
 223 192 223 192 235.5 155.5 c 128,-1,12
 248 119 248 119 270.5 97 c 128,-1,13
 293 75 293 75 323 65 c 128,-1,14
 353 55 353 55 389 55 c 256,15,16
 425 55 425 55 455 65 c 128,-1,17
 485 75 485 75 506.5 97 c 128,-1,18
 528 119 528 119 539.5 155.5 c 128,-1,19
 551 192 551 192 551 245 c 2,20,-1
 551 617 l 2,21,22
 551 622 551 622 544 625.5 c 128,-1,23
 537 629 537 629 526 631 c 128,-1,24
 515 633 515 633 503 634.5 c 128,-1,25
 491 636 491 636 481 636 c 2,26,-1
 473 636 l 1,27,-1
 473 710 l 1,28,-1
 709 710 l 1,29,-1
 709 636 l 1,30,-1
 700 636 l 2,31,32
 682 636 682 636 666.5 632 c 128,-1,33
 651 628 651 628 641.5 618 c 128,-1,34
 632 608 632 608 632 591 c 2,35,-1
 632 234 l 2,36,37
 632 165 632 165 612.5 116 c 128,-1,38
 593 67 593 67 557.5 36 c 128,-1,39
 522 5 522 5 477 -9.5 c 128,-1,40
 432 -24 432 -24 381 -24 c 0,41,42
 327 -24 327 -24 280.5 -9.5 c 128,-1,43
 234 5 234 5 198.5 36 c 128,-1,44
 163 67 163 67 143.5 116 c 128,-1,45
 124 165 124 165 124 234 c 2,46,-1
 124 600 l 2,47,48
 124 622 124 622 103.5 629 c 128,-1,49
 83 636 83 636 56 636 c 2,50,-1
 46 636 l 1,51,-1
 46 710 l 1,52,-1
 309 710 l 1,53,-1
 309 636 l 1,54,-1
 301 636 l 2,55,56
 288 636 288 636 274 635.5 c 128,-1,57
 260 635 260 635 248.5 633.5 c 128,-1,58
 237 632 237 632 230 630.5 c 128,-1,59
 223 629 223 629 223 626 c 2,60,-1
 223 245 l 2,10,11
EndSplineSet
EndChar

StartChar: Udieresiscaron
Encoding: 473 473 187
Width: 756
GlyphClass: 1
Flags: W
LayerCount: 2
Fore
SplineSet
350 978 m 1,0,-1
 421 978 l 1,1,-1
 545 1133 l 1,2,-1
 545 1153 l 1,3,-1
 495 1153 l 1,4,-1
 325 1012 l 1,5,-1
 452 1015 l 1,6,-1
 285 1153 l 1,7,-1
 226 1153 l 1,8,-1
 226 1133 l 1,9,-1
 350 978 l 1,0,-1
223 245 m 2,10,11
 223 192 223 192 235.5 155.5 c 128,-1,12
 248 119 248 119 270.5 97 c 128,-1,13
 293 75 293 75 323 65 c 128,-1,14
 353 55 353 55 389 55 c 256,15,16
 425 55 425 55 455 65 c 128,-1,17
 485 75 485 75 506.5 97 c 128,-1,18
 528 119 528 119 539.5 155.5 c 128,-1,19
 551 192 551 192 551 245 c 2,20,-1
 551 617 l 2,21,22
 551 622 551 622 544 625.5 c 128,-1,23
 537 629 537 629 526 631 c 128,-1,24
 515 633 515 633 503 634.5 c 128,-1,25
 491 636 491 636 481 636 c 2,26,-1
 473 636 l 1,27,-1
 473 710 l 1,28,-1
 709 710 l 1,29,-1
 709 636 l 1,30,-1
 700 636 l 2,31,32
 682 636 682 636 666.5 632 c 128,-1,33
 651 628 651 628 641.5 618 c 128,-1,34
 632 608 632 608 632 591 c 2,35,-1
 632 234 l 2,36,37
 632 165 632 165 612.5 116 c 128,-1,38
 593 67 593 67 557.5 36 c 128,-1,39
 522 5 522 5 477 -9.5 c 128,-1,40
 432 -24 432 -24 381 -24 c 0,41,42
 327 -24 327 -24 280.5 -9.5 c 128,-1,43
 234 5 234 5 198.5 36 c 128,-1,44
 163 67 163 67 143.5 116 c 128,-1,45
 124 165 124 165 124 234 c 2,46,-1
 124 600 l 2,47,48
 124 622 124 622 103.5 629 c 128,-1,49
 83 636 83 636 56 636 c 2,50,-1
 46 636 l 1,51,-1
 46 710 l 1,52,-1
 309 710 l 1,53,-1
 309 636 l 1,54,-1
 301 636 l 2,55,56
 288 636 288 636 274 635.5 c 128,-1,57
 260 635 260 635 248.5 633.5 c 128,-1,58
 237 632 237 632 230 630.5 c 128,-1,59
 223 629 223 629 223 626 c 2,60,-1
 223 245 l 2,10,11
334 874 m 0,61,62
 334 837 334 837 315 821.5 c 128,-1,63
 296 806 296 806 265 806 c 0,64,65
 233 806 233 806 214.5 821.5 c 128,-1,66
 196 837 196 837 196 874 c 0,67,68
 196 909 196 909 214.5 925 c 128,-1,69
 233 941 233 941 265 941 c 0,70,71
 296 941 296 941 315 925 c 128,-1,72
 334 909 334 909 334 874 c 0,61,62
573 874 m 0,73,74
 573 837 573 837 554 821.5 c 128,-1,75
 535 806 535 806 504 806 c 256,76,77
 473 806 473 806 454 821.5 c 128,-1,78
 435 837 435 837 435 874 c 0,79,80
 435 909 435 909 454 925 c 128,-1,81
 473 941 473 941 504 941 c 256,82,83
 535 941 535 941 554 925 c 128,-1,84
 573 909 573 909 573 874 c 0,73,74
EndSplineSet
EndChar

StartChar: Udblgrave
Encoding: 532 532 188
Width: 756
GlyphClass: 1
Flags: W
LayerCount: 2
Fore
SplineSet
464 926 m 2,0,-1
 506 825 l 1,1,-1
 506 793 l 1,2,-1
 465 793 l 1,3,-1
 397 857 l 2,4,5
 377 875 377 875 366 892.5 c 128,-1,6
 355 910 355 910 355 931 c 0,7,8
 355 948 355 948 368 960.5 c 128,-1,9
 381 973 381 973 403 973 c 0,10,11
 419 973 419 973 430.5 966.5 c 128,-1,12
 442 960 442 960 450 949.5 c 128,-1,13
 458 939 458 939 464 926 c 2,0,-1
280 926 m 2,14,-1
 319 825 l 1,15,-1
 319 793 l 1,16,-1
 279 793 l 1,17,-1
 211 857 l 2,18,19
 191 875 191 875 180 892.5 c 128,-1,20
 169 910 169 910 169 931 c 0,21,22
 169 948 169 948 182 960.5 c 128,-1,23
 195 973 195 973 217 973 c 0,24,25
 233 973 233 973 245.5 967 c 128,-1,26
 258 961 258 961 266.5 950 c 128,-1,27
 275 939 275 939 280 926 c 2,14,-1
223 245 m 2,28,29
 223 192 223 192 235.5 155.5 c 128,-1,30
 248 119 248 119 270.5 97 c 128,-1,31
 293 75 293 75 323 65 c 128,-1,32
 353 55 353 55 389 55 c 256,33,34
 425 55 425 55 455 65 c 128,-1,35
 485 75 485 75 506.5 97 c 128,-1,36
 528 119 528 119 539.5 155.5 c 128,-1,37
 551 192 551 192 551 245 c 2,38,-1
 551 617 l 2,39,40
 551 622 551 622 544 625.5 c 128,-1,41
 537 629 537 629 526 631 c 128,-1,42
 515 633 515 633 503 634.5 c 128,-1,43
 491 636 491 636 481 636 c 2,44,-1
 473 636 l 1,45,-1
 473 710 l 1,46,-1
 709 710 l 1,47,-1
 709 636 l 1,48,-1
 700 636 l 2,49,50
 682 636 682 636 666.5 632 c 128,-1,51
 651 628 651 628 641.5 618 c 128,-1,52
 632 608 632 608 632 591 c 2,53,-1
 632 234 l 2,54,55
 632 165 632 165 612.5 116 c 128,-1,56
 593 67 593 67 557.5 36 c 128,-1,57
 522 5 522 5 477 -9.5 c 128,-1,58
 432 -24 432 -24 381 -24 c 0,59,60
 327 -24 327 -24 280.5 -9.5 c 128,-1,61
 234 5 234 5 198.5 36 c 128,-1,62
 163 67 163 67 143.5 116 c 128,-1,63
 124 165 124 165 124 234 c 2,64,-1
 124 600 l 2,65,66
 124 622 124 622 103.5 629 c 128,-1,67
 83 636 83 636 56 636 c 2,68,-1
 46 636 l 1,69,-1
 46 710 l 1,70,-1
 309 710 l 1,71,-1
 309 636 l 1,72,-1
 301 636 l 2,73,74
 288 636 288 636 274 635.5 c 128,-1,75
 260 635 260 635 248.5 633.5 c 128,-1,76
 237 632 237 632 230 630.5 c 128,-1,77
 223 629 223 629 223 626 c 2,78,-1
 223 245 l 2,28,29
EndSplineSet
EndChar

StartChar: Uinvertedbreve
Encoding: 534 534 189
Width: 756
GlyphClass: 1
Flags: W
LayerCount: 2
Fore
SplineSet
377 929 m 0,0,1
 324 929 324 929 287.5 912.5 c 128,-1,2
 251 896 251 896 231.5 859.5 c 128,-1,3
 212 823 212 823 211 762 c 1,4,-1
 282 762 l 1,5,6
 285 798 285 798 293.5 817.5 c 128,-1,7
 302 837 302 837 322 844.5 c 128,-1,8
 342 852 342 852 378 852 c 0,9,10
 410 852 410 852 429.5 844.5 c 128,-1,11
 449 837 449 837 458.5 818 c 128,-1,12
 468 799 468 799 469 762 c 1,13,-1
 545 762 l 1,14,15
 544 823 544 823 523.5 859.5 c 128,-1,16
 503 896 503 896 466 912.5 c 128,-1,17
 429 929 429 929 377 929 c 0,0,1
223 245 m 2,18,19
 223 192 223 192 235.5 155.5 c 128,-1,20
 248 119 248 119 270.5 97 c 128,-1,21
 293 75 293 75 323 65 c 128,-1,22
 353 55 353 55 389 55 c 256,23,24
 425 55 425 55 455 65 c 128,-1,25
 485 75 485 75 506.5 97 c 128,-1,26
 528 119 528 119 539.5 155.5 c 128,-1,27
 551 192 551 192 551 245 c 2,28,-1
 551 617 l 2,29,30
 551 622 551 622 544 625.5 c 128,-1,31
 537 629 537 629 526 631 c 128,-1,32
 515 633 515 633 503 634.5 c 128,-1,33
 491 636 491 636 481 636 c 2,34,-1
 473 636 l 1,35,-1
 473 710 l 1,36,-1
 709 710 l 1,37,-1
 709 636 l 1,38,-1
 700 636 l 2,39,40
 682 636 682 636 666.5 632 c 128,-1,41
 651 628 651 628 641.5 618 c 128,-1,42
 632 608 632 608 632 591 c 2,43,-1
 632 234 l 2,44,45
 632 165 632 165 612.5 116 c 128,-1,46
 593 67 593 67 557.5 36 c 128,-1,47
 522 5 522 5 477 -9.5 c 128,-1,48
 432 -24 432 -24 381 -24 c 0,49,50
 327 -24 327 -24 280.5 -9.5 c 128,-1,51
 234 5 234 5 198.5 36 c 128,-1,52
 163 67 163 67 143.5 116 c 128,-1,53
 124 165 124 165 124 234 c 2,54,-1
 124 600 l 2,55,56
 124 622 124 622 103.5 629 c 128,-1,57
 83 636 83 636 56 636 c 2,58,-1
 46 636 l 1,59,-1
 46 710 l 1,60,-1
 309 710 l 1,61,-1
 309 636 l 1,62,-1
 301 636 l 2,63,64
 288 636 288 636 274 635.5 c 128,-1,65
 260 635 260 635 248.5 633.5 c 128,-1,66
 237 632 237 632 230 630.5 c 128,-1,67
 223 629 223 629 223 626 c 2,68,-1
 223 245 l 2,18,19
EndSplineSet
EndChar

StartChar: V
Encoding: 86 86 199
Width: 690
GlyphClass: 2
Flags: W
AnchorPoint: "Anchor-0" 360 741 basechar 0
LayerCount: 2
Fore
SplineSet
368 23 m 1,0,-1
 343 35 l 1,1,-1
 523 613 l 2,2,3
 523 620 523 620 514 625 c 128,-1,4
 505 630 505 630 488.5 633 c 128,-1,5
 472 636 472 636 451 636 c 2,6,-1
 441 636 l 1,7,-1
 441 710 l 1,8,-1
 671 710 l 1,9,-1
 671 636 l 1,10,-1
 665 636 l 2,11,12
 643 636 643 636 625.5 624 c 128,-1,13
 608 612 608 612 596 572 c 2,14,-1
 408 -12 l 1,15,-1
 284 -12 l 1,16,-1
 94 572 l 2,17,18
 82 612 82 612 64 624 c 128,-1,19
 46 636 46 636 24 636 c 2,20,-1
 19 636 l 1,21,-1
 19 710 l 1,22,-1
 270 710 l 1,23,-1
 270 636 l 1,24,-1
 259 636 l 2,25,26
 233 636 233 636 215 634.5 c 128,-1,27
 197 633 197 633 187.5 631 c 128,-1,28
 178 629 178 629 178 625 c 2,29,-1
 368 23 l 1,0,-1
EndSplineSet
EndChar

StartChar: W
Encoding: 87 87 200
Width: 960
GlyphClass: 2
Flags: W
AnchorPoint: "Anchor-0" 493 741 basechar 0
LayerCount: 2
Fore
SplineSet
20 710 m 1,0,-1
 257 710 l 1,1,-1
 257 636 l 1,2,-1
 242 636 l 2,3,4
 229 636 229 636 213.5 634.5 c 128,-1,5
 198 633 198 633 187 631 c 128,-1,6
 176 629 176 629 176 625 c 2,7,-1
 315 40 l 1,8,-1
 274 39 l 1,9,-1
 440 710 l 1,10,-1
 547 710 l 1,11,-1
 711 43 l 1,12,-1
 673 42 l 1,13,-1
 809 612 l 2,14,15
 809 620 809 620 799.5 625 c 128,-1,16
 790 630 790 630 777 633 c 128,-1,17
 764 636 764 636 752 636 c 2,18,-1
 739 636 l 1,19,-1
 739 710 l 1,20,-1
 942 710 l 1,21,-1
 942 636 l 1,22,-1
 935 636 l 2,23,24
 916 636 916 636 901 625 c 128,-1,25
 886 614 886 614 879 587 c 2,26,-1
 737 -3 l 1,27,-1
 631 -3 l 1,28,-1
 465 656 l 1,29,-1
 504 659 l 1,30,-1
 342 -3 l 1,31,-1
 235 -3 l 1,32,-1
 84 596 l 2,33,34
 78 624 78 624 63.5 630 c 128,-1,35
 49 636 49 636 26 636 c 2,36,-1
 20 636 l 1,37,-1
 20 710 l 1,0,-1
EndSplineSet
EndChar

StartChar: X
Encoding: 88 88 205
Width: 701
GlyphClass: 2
Flags: W
AnchorPoint: "Anchor-1" 355 0 basechar 0
AnchorPoint: "Anchor-0" 378 741 basechar 0
LayerCount: 2
Fore
SplineSet
39 636 m 1,0,-1
 39 710 l 1,1,-1
 300 710 l 1,2,-1
 300 636 l 1,3,-1
 284 636 l 2,4,5
 267 636 267 636 252 635 c 128,-1,6
 237 634 237 634 227 632 c 128,-1,7
 217 630 217 630 217 627 c 2,8,-1
 383 391 l 1,9,-1
 394 388 l 1,10,-1
 589 108 l 2,11,12
 605 86 605 86 621 80 c 128,-1,13
 637 74 637 74 656 74 c 2,14,-1
 675 74 l 1,15,-1
 675 0 l 1,16,-1
 409 0 l 1,17,-1
 409 74 l 1,18,-1
 425 74 l 2,19,20
 441 74 441 74 456.5 75 c 128,-1,21
 472 76 472 76 482 78.5 c 128,-1,22
 492 81 492 81 492 84 c 2,23,-1
 313 340 l 1,24,-1
 303 344 l 1,25,-1
 120 602 l 2,26,27
 105 625 105 625 88 630.5 c 128,-1,28
 71 636 71 636 52 636 c 2,29,-1
 39 636 l 1,0,-1
27 0 m 1,30,-1
 27 74 l 1,31,-1
 45 74 l 2,32,33
 62 74 62 74 77.5 83.5 c 128,-1,34
 93 93 93 93 111 120 c 2,35,-1
 292 380 l 1,36,-1
 353 338 l 1,37,-1
 183 91 l 2,38,39
 183 87 183 87 193.5 83 c 128,-1,40
 204 79 204 79 218.5 76.5 c 128,-1,41
 233 74 233 74 246 74 c 2,42,-1
 263 74 l 1,43,-1
 263 0 l 1,44,-1
 27 0 l 1,30,-1
407 355 m 1,45,-1
 345 394 l 1,46,-1
 507 619 l 2,47,48
 507 624 507 624 496 628 c 128,-1,49
 485 632 485 632 470 634 c 128,-1,50
 455 636 455 636 441 636 c 2,51,-1
 428 636 l 1,52,-1
 428 710 l 1,53,-1
 661 710 l 1,54,-1
 661 636 l 1,55,-1
 648 636 l 2,56,57
 630 636 630 636 614 627 c 128,-1,58
 598 618 598 618 578 591 c 2,59,-1
 407 355 l 1,45,-1
EndSplineSet
EndChar

StartChar: Y
Encoding: 89 89 206
Width: 657
GlyphClass: 2
Flags: W
AnchorPoint: "Anchor-1" 332 0 basechar 0
AnchorPoint: "Anchor-0" 332 741 basechar 0
LayerCount: 2
Fore
SplineSet
281 301 m 1,0,-1
 288 263 l 1,1,-1
 97 595 l 2,2,3
 88 612 88 612 79 621 c 128,-1,4
 70 630 70 630 60 633 c 128,-1,5
 50 636 50 636 37 636 c 2,6,-1
 26 636 l 1,7,-1
 26 710 l 1,8,-1
 260 710 l 1,9,-1
 260 636 l 1,10,-1
 246 636 l 2,11,12
 230 636 230 636 216.5 634.5 c 128,-1,13
 203 633 203 633 193.5 631 c 128,-1,14
 184 629 184 629 184 625 c 2,15,-1
 364 302 l 1,16,-1
 320 302 l 1,17,-1
 484 613 l 2,18,19
 484 620 484 620 475 625 c 128,-1,20
 466 630 466 630 453.5 633 c 128,-1,21
 441 636 441 636 431 636 c 2,22,-1
 421 636 l 1,23,-1
 421 710 l 1,24,-1
 629 710 l 1,25,-1
 629 636 l 1,26,-1
 617 636 l 2,27,28
 607 636 607 636 596 631.5 c 128,-1,29
 585 627 585 627 574.5 616 c 128,-1,30
 564 605 564 605 553 585 c 2,31,-1
 374 262 l 1,32,-1
 380 301 l 1,33,-1
 380 110 l 2,34,35
 380 88 380 88 402 81 c 128,-1,36
 424 74 424 74 455 74 c 2,37,-1
 474 74 l 1,38,-1
 474 0 l 1,39,-1
 188 0 l 1,40,-1
 188 74 l 1,41,-1
 207 74 l 2,42,43
 238 74 238 74 259.5 81 c 128,-1,44
 281 88 281 88 281 110 c 2,45,-1
 281 301 l 1,0,-1
EndSplineSet
EndChar

StartChar: Z
Encoding: 90 90 216
Width: 626
GlyphClass: 2
Flags: W
AnchorPoint: "Anchor-1" 331 0 basechar 0
AnchorPoint: "Anchor-0" 331 741 basechar 0
LayerCount: 2
Fore
SplineSet
254 637 m 2,0,1
 226 637 226 637 207.5 635 c 128,-1,2
 189 633 189 633 179 628 c 128,-1,3
 169 623 169 623 164 614.5 c 128,-1,4
 159 606 159 606 157 592 c 2,5,-1
 145 505 l 1,6,-1
 73 505 l 1,7,-1
 73 710 l 1,8,-1
 553 710 l 1,9,-1
 553 631 l 1,10,-1
 131 20 l 1,11,-1
 114 73 l 1,12,-1
 382 73 l 2,13,14
 421 73 421 73 441.5 76.5 c 128,-1,15
 462 80 462 80 470 90 c 128,-1,16
 478 100 478 100 480 118 c 2,17,-1
 494 230 l 1,18,-1
 568 230 l 1,19,-1
 568 0 l 1,20,-1
 59 0 l 1,21,-1
 59 82 l 1,22,-1
 470 678 l 1,23,-1
 492 637 l 1,24,-1
 254 637 l 2,0,1
EndSplineSet
EndChar

StartChar: Zcaron
Encoding: 381 381 219
Width: 626
GlyphClass: 1
Flags: W
LayerCount: 2
Fore
SplineSet
273 806 m 1,0,-1
 344 806 l 1,1,-1
 467 961 l 1,2,-1
 467 981 l 1,3,-1
 418 981 l 1,4,-1
 248 840 l 1,5,-1
 374 843 l 1,6,-1
 207 981 l 1,7,-1
 148 981 l 1,8,-1
 148 961 l 1,9,-1
 273 806 l 1,0,-1
254 637 m 2,10,11
 226 637 226 637 207.5 635 c 128,-1,12
 189 633 189 633 179 628 c 128,-1,13
 169 623 169 623 164 614.5 c 128,-1,14
 159 606 159 606 157 592 c 2,15,-1
 145 505 l 1,16,-1
 73 505 l 1,17,-1
 73 710 l 1,18,-1
 553 710 l 1,19,-1
 553 631 l 1,20,-1
 131 20 l 1,21,-1
 114 73 l 1,22,-1
 382 73 l 2,23,24
 421 73 421 73 441.5 76.5 c 128,-1,25
 462 80 462 80 470 90 c 128,-1,26
 478 100 478 100 480 118 c 2,27,-1
 494 230 l 1,28,-1
 568 230 l 1,29,-1
 568 0 l 1,30,-1
 59 0 l 1,31,-1
 59 82 l 1,32,-1
 470 678 l 1,33,-1
 492 637 l 1,34,-1
 254 637 l 2,10,11
EndSplineSet
EndChar

StartChar: AE
Encoding: 198 198 221
Width: 1007
GlyphClass: 2
Flags: W
AnchorPoint: "Anchor-0" 621 741 basechar 0
LayerCount: 2
Fore
SplineSet
223 302 m 1,0,-1
 525 302 l 1,1,-1
 542 227 l 1,2,-1
 205 227 l 1,3,-1
 223 302 l 1,0,-1
571 400 m 1,4,5
 614 402 614 402 657.5 404 c 128,-1,6
 701 406 701 406 745 408.5 c 128,-1,7
 789 411 789 411 834 414 c 1,8,-1
 834 316 l 1,9,10
 790 318 790 318 746.5 320.5 c 128,-1,11
 703 323 703 323 659 325.5 c 128,-1,12
 615 328 615 328 571 331 c 1,13,-1
 571 400 l 1,4,5
410 0 m 1,14,-1
 410 74 l 1,15,-1
 417 74 l 2,16,17
 441 74 441 74 457.5 77 c 128,-1,18
 474 80 474 80 482.5 86.5 c 128,-1,19
 491 93 491 93 491 103 c 2,20,-1
 491 659 l 1,21,-1
 470 644 l 1,22,-1
 167 97 l 2,23,24
 167 91 167 91 173.5 85.5 c 128,-1,25
 180 80 180 80 194.5 77 c 128,-1,26
 209 74 209 74 235 74 c 2,27,-1
 244 74 l 1,28,-1
 244 0 l 1,29,-1
 5 0 l 1,30,-1
 5 74 l 1,31,-1
 10 74 l 2,32,33
 29 74 29 74 43.5 80.5 c 128,-1,34
 58 87 58 87 71 101 c 128,-1,35
 84 115 84 115 97 138 c 2,36,-1
 356 604 l 1,37,38
 356 619 356 619 350.5 625.5 c 128,-1,39
 345 632 345 632 332.5 634 c 128,-1,40
 320 636 320 636 298 636 c 2,41,-1
 288 636 l 1,42,-1
 288 710 l 1,43,-1
 923 710 l 1,44,-1
 923 510 l 1,45,-1
 851 510 l 1,46,-1
 839 592 l 2,47,48
 836 610 836 610 824 619.5 c 128,-1,49
 812 629 812 629 788.5 633 c 128,-1,50
 765 637 765 637 727 637 c 2,51,-1
 590 637 l 1,52,-1
 590 73 l 1,53,-1
 743 73 l 2,54,55
 771 73 771 73 792 75 c 128,-1,56
 813 77 813 77 826 82 c 128,-1,57
 839 87 839 87 846 96 c 128,-1,58
 853 105 853 105 854 118 c 2,59,-1
 868 225 l 1,60,-1
 942 225 l 1,61,-1
 942 0 l 1,62,-1
 410 0 l 1,14,-1
EndSplineSet
EndChar

StartChar: Eth
Encoding: 208 208 223
Width: 737
GlyphClass: 1
Flags: W
LayerCount: 2
Fore
SplineSet
46 397 m 1,0,-1
 417 397 l 1,1,-1
 417 324 l 1,2,-1
 46 324 l 1,3,-1
 46 397 l 1,0,-1
55 636 m 1,4,-1
 55 710 l 1,5,-1
 333 710 l 2,6,7
 415 710 415 710 480 689 c 128,-1,8
 545 668 545 668 590 624.5 c 128,-1,9
 635 581 635 581 658 515 c 128,-1,10
 681 449 681 449 681 359 c 0,11,12
 681 270 681 270 658 202.5 c 128,-1,13
 635 135 635 135 590 90.5 c 128,-1,14
 545 46 545 46 480 23 c 128,-1,15
 415 0 415 0 333 0 c 2,16,-1
 55 0 l 1,17,-1
 55 74 l 1,18,-1
 65 74 l 2,19,20
 92 74 92 74 112.5 81 c 128,-1,21
 133 88 133 88 133 110 c 2,22,-1
 133 600 l 2,23,24
 133 622 133 622 112.5 629 c 128,-1,25
 92 636 92 636 65 636 c 2,26,-1
 55 636 l 1,4,-1
331 637 m 2,27,-1
 232 637 l 1,28,-1
 232 73 l 1,29,-1
 331 73 l 2,30,31
 394 73 394 73 440 90.5 c 128,-1,32
 486 108 486 108 516 143.5 c 128,-1,33
 546 179 546 179 561 232.5 c 128,-1,34
 576 286 576 286 576 359 c 256,35,36
 576 432 576 432 561 484.5 c 128,-1,37
 546 537 546 537 516 570.5 c 128,-1,38
 486 604 486 604 440 620.5 c 128,-1,39
 394 637 394 637 331 637 c 2,27,-1
EndSplineSet
EndChar

StartChar: Oslash
Encoding: 216 216 224
Width: 749
GlyphClass: 2
Flags: W
AnchorPoint: "Anchor-0" 374 731 basechar 0
LayerCount: 2
Fore
SplineSet
375 659 m 0,0,1
 322 659 322 659 282 640.5 c 128,-1,2
 242 622 242 622 215.5 584.5 c 128,-1,3
 189 547 189 547 175.5 490 c 128,-1,4
 162 433 162 433 162 355 c 0,5,6
 162 272 162 272 175.5 213.5 c 128,-1,7
 189 155 189 155 215.5 119.5 c 128,-1,8
 242 84 242 84 282 67.5 c 128,-1,9
 322 51 322 51 375 51 c 0,10,11
 427 51 427 51 467 69.5 c 128,-1,12
 507 88 507 88 533.5 125 c 128,-1,13
 560 162 560 162 573.5 219.5 c 128,-1,14
 587 277 587 277 587 355 c 0,15,16
 587 439 587 439 573.5 497 c 128,-1,17
 560 555 560 555 533.5 590.5 c 128,-1,18
 507 626 507 626 467 642.5 c 128,-1,19
 427 659 427 659 375 659 c 0,0,1
375 -24 m 0,20,21
 303 -24 303 -24 244.5 2 c 128,-1,22
 186 28 186 28 144 77 c 128,-1,23
 102 126 102 126 79 196.5 c 128,-1,24
 56 267 56 267 56 355 c 0,25,26
 56 449 56 449 79 519.5 c 128,-1,27
 102 590 102 590 144.5 638 c 128,-1,28
 187 686 187 686 245.5 710 c 128,-1,29
 304 734 304 734 375 734 c 256,30,31
 446 734 446 734 504.5 708.5 c 128,-1,32
 563 683 563 683 605 634 c 128,-1,33
 647 585 647 585 670 515 c 128,-1,34
 693 445 693 445 693 355 c 0,35,36
 693 263 693 263 670 192 c 128,-1,37
 647 121 647 121 605 73 c 128,-1,38
 563 25 563 25 504.5 0.5 c 128,-1,39
 446 -24 446 -24 375 -24 c 0,20,21
0 -22 m 1,40,-1
 663 733 l 1,41,-1
 749 733 l 1,42,-1
 86 -22 l 1,43,-1
 0 -22 l 1,40,-1
EndSplineSet
EndChar

StartChar: Thorn
Encoding: 222 222 226
Width: 666
GlyphClass: 1
Flags: W
LayerCount: 2
Fore
SplineSet
335 710 m 1,0,-1
 55 710 l 1,1,-1
 55 636 l 1,2,-1
 65 636 l 2,3,4
 98 636 98 636 115.5 629 c 128,-1,5
 133 622 133 622 133 600 c 2,6,-1
 133 110 l 2,7,8
 133 88 133 88 115.5 81 c 128,-1,9
 98 74 98 74 65 74 c 2,10,-1
 55 74 l 1,11,-1
 55 0 l 1,12,-1
 335 0 l 1,13,-1
 335 74 l 1,14,-1
 317 74 l 2,15,16
 300 74 300 74 285 74.5 c 128,-1,17
 270 75 270 75 258 76.5 c 128,-1,18
 246 78 246 78 239 79.5 c 128,-1,19
 232 81 232 81 232 84 c 2,20,-1
 232 626 l 2,21,22
 232 629 232 629 239 630.5 c 128,-1,23
 246 632 246 632 258 633.5 c 128,-1,24
 270 635 270 635 285 635.5 c 128,-1,25
 300 636 300 636 317 636 c 2,26,-1
 335 636 l 1,27,-1
 335 710 l 1,0,-1
611 367 m 0,28,29
 611 430 611 430 582.5 472 c 128,-1,30
 554 514 554 514 502 534.5 c 128,-1,31
 450 555 450 555 379 555 c 2,32,-1
 204 555 l 1,33,-1
 204 482 l 1,34,-1
 376 482 l 2,35,36
 422 482 422 482 450.5 470 c 128,-1,37
 479 458 479 458 492.5 432.5 c 128,-1,38
 506 407 506 407 506 366 c 0,39,40
 506 326 506 326 492.5 299.5 c 128,-1,41
 479 273 479 273 450 260 c 128,-1,42
 421 247 421 247 376 247 c 2,43,-1
 206 247 l 1,44,-1
 206 174 l 1,45,-1
 379 174 l 2,46,47
 447 174 447 174 499.5 196.5 c 128,-1,48
 552 219 552 219 581.5 262 c 128,-1,49
 611 305 611 305 611 367 c 0,28,29
EndSplineSet
EndChar

StartChar: Hbar
Encoding: 294 294 228
Width: 794
GlyphClass: 1
Flags: W
LayerCount: 2
Fore
SplineSet
207 373 m 1,0,-1
 585 373 l 1,1,-1
 585 307 l 1,2,-1
 207 307 l 1,3,-1
 207 373 l 1,0,-1
54 0 m 1,4,-1
 54 74 l 1,5,-1
 64 74 l 2,6,7
 90 74 90 74 111 81 c 128,-1,8
 132 88 132 88 132 110 c 2,9,-1
 132 600 l 2,10,11
 132 622 132 622 111 629 c 128,-1,12
 90 636 90 636 64 636 c 2,13,-1
 54 636 l 1,14,-1
 54 710 l 1,15,-1
 316 710 l 1,16,-1
 316 637 l 1,17,-1
 308 637 l 2,18,19
 295 637 295 637 281.5 636 c 128,-1,20
 268 635 268 635 256.5 633.5 c 128,-1,21
 245 632 245 632 238 630.5 c 128,-1,22
 231 629 231 629 231 626 c 2,23,-1
 231 83 l 2,24,25
 231 81 231 81 238 79.5 c 128,-1,26
 245 78 245 78 256.5 76.5 c 128,-1,27
 268 75 268 75 281.5 74.5 c 128,-1,28
 295 74 295 74 308 74 c 2,29,-1
 316 74 l 1,30,-1
 316 0 l 1,31,-1
 54 0 l 1,4,-1
478 0 m 1,32,-1
 478 73 l 1,33,-1
 486 73 l 2,34,35
 498 73 498 73 512 74 c 128,-1,36
 526 75 526 75 537 76.5 c 128,-1,37
 548 78 548 78 555.5 79.5 c 128,-1,38
 563 81 563 81 563 84 c 2,39,-1
 563 627 l 2,40,41
 563 629 563 629 555.5 630.5 c 128,-1,42
 548 632 548 632 536.5 633.5 c 128,-1,43
 525 635 525 635 511.5 635.5 c 128,-1,44
 498 636 498 636 486 636 c 2,45,-1
 478 636 l 1,46,-1
 478 710 l 1,47,-1
 740 710 l 1,48,-1
 740 636 l 1,49,-1
 730 636 l 2,50,51
 703 636 703 636 682.5 629 c 128,-1,52
 662 622 662 622 662 600 c 2,53,-1
 662 110 l 2,54,55
 662 88 662 88 682.5 81 c 128,-1,56
 703 74 703 74 730 74 c 2,57,-1
 740 74 l 1,58,-1
 740 0 l 1,59,-1
 478 0 l 1,32,-1
45 475 m 1,60,-1
 45 540 l 1,61,-1
 749 540 l 1,62,-1
 749 475 l 1,63,-1
 45 475 l 1,60,-1
EndSplineSet
EndChar

StartChar: Ldot
Encoding: 319 319 230
Width: 610
GlyphClass: 1
Flags: W
LayerCount: 2
Fore
SplineSet
328 710 m 1,0,-1
 55 710 l 1,1,-1
 55 636 l 1,2,-1
 65 636 l 2,3,4
 92 636 92 636 112.5 629 c 128,-1,5
 133 622 133 622 133 600 c 2,6,-1
 133 110 l 2,7,8
 133 88 133 88 112.5 81 c 128,-1,9
 92 74 92 74 65 74 c 2,10,-1
 55 74 l 1,11,-1
 55 0 l 1,12,-1
 562 0 l 1,13,-1
 562 221 l 1,14,-1
 488 221 l 1,15,-1
 474 118 l 2,16,17
 472 100 472 100 460 90 c 128,-1,18
 448 80 448 80 424 76.5 c 128,-1,19
 400 73 400 73 361 73 c 2,20,-1
 232 73 l 1,21,-1
 232 600 l 2,22,23
 232 622 232 622 255.5 629 c 128,-1,24
 279 636 279 636 314 636 c 2,25,-1
 328 636 l 1,26,-1
 328 710 l 1,0,-1
502 345 m 0,27,28
 464 345 464 345 439 369 c 128,-1,29
 414 393 414 393 414 431 c 0,30,31
 414 470 414 470 439 493 c 128,-1,32
 464 516 464 516 502 516 c 0,33,34
 542 516 542 516 567 493 c 128,-1,35
 592 470 592 470 592 431 c 0,36,37
 592 393 592 393 567 369 c 128,-1,38
 542 345 542 345 502 345 c 0,27,28
EndSplineSet
Ligature2: "Ligature Substitution lookup 5 subtable" L periodcentered
EndChar

StartChar: Lslash
Encoding: 321 321 231
Width: 610
GlyphClass: 1
Flags: W
LayerCount: 2
Fore
SplineSet
29 183 m 1,0,-1
 476 472 l 1,1,-1
 476 552 l 1,2,-1
 29 262 l 1,3,-1
 29 183 l 1,0,-1
328 710 m 1,4,-1
 55 710 l 1,5,-1
 55 636 l 1,6,-1
 65 636 l 2,7,8
 92 636 92 636 112.5 629 c 128,-1,9
 133 622 133 622 133 600 c 2,10,-1
 133 110 l 2,11,12
 133 88 133 88 112.5 81 c 128,-1,13
 92 74 92 74 65 74 c 2,14,-1
 55 74 l 1,15,-1
 55 0 l 1,16,-1
 562 0 l 1,17,-1
 562 235 l 1,18,-1
 488 235 l 1,19,-1
 474 118 l 2,20,21
 473 100 473 100 461 90 c 128,-1,22
 449 80 449 80 424.5 76.5 c 128,-1,23
 400 73 400 73 361 73 c 2,24,-1
 232 73 l 1,25,-1
 232 600 l 2,26,27
 232 622 232 622 255.5 629 c 128,-1,28
 279 636 279 636 314 636 c 2,29,-1
 328 636 l 1,30,-1
 328 710 l 1,4,-1
EndSplineSet
EndChar

StartChar: Eng
Encoding: 330 330 232
Width: 771
GlyphClass: 1
Flags: W
LayerCount: 2
Fore
SplineSet
648 -20 m 2,0,1
 648 -82 648 -82 631 -126 c 128,-1,2
 614 -170 614 -170 584 -197 c 128,-1,3
 554 -224 554 -224 514.5 -237 c 128,-1,4
 475 -250 475 -250 428 -250 c 0,5,6
 390 -250 390 -250 362.5 -244.5 c 128,-1,7
 335 -239 335 -239 319 -231 c 1,8,-1
 319 -150 l 1,9,10
 331 -156 331 -156 347 -161 c 128,-1,11
 363 -166 363 -166 383 -169 c 128,-1,12
 403 -172 403 -172 425 -172 c 0,13,14
 473 -172 473 -172 503.5 -158 c 128,-1,15
 534 -144 534 -144 549.5 -108.5 c 128,-1,16
 565 -73 565 -73 565 -10 c 2,17,-1
 565 60 l 1,18,-1
 585 -36 l 1,19,-1
 184 671 l 1,20,-1
 216 672 l 1,21,-1
 216 84 l 2,22,23
 216 81 216 81 226 78.5 c 128,-1,24
 236 76 236 76 251.5 75 c 128,-1,25
 267 74 267 74 282 74 c 2,26,-1
 294 74 l 1,27,-1
 294 0 l 1,28,-1
 56 0 l 1,29,-1
 56 74 l 1,30,-1
 66 74 l 2,31,32
 88 74 88 74 103 77 c 128,-1,33
 118 80 118 80 126 88 c 128,-1,34
 134 96 134 96 134 110 c 2,35,-1
 134 600 l 2,36,37
 134 615 134 615 126 622.5 c 128,-1,38
 118 630 118 630 103 633 c 128,-1,39
 88 636 88 636 66 636 c 2,40,-1
 56 636 l 1,41,-1
 56 710 l 1,42,-1
 267 710 l 1,43,-1
 620 77 l 1,44,-1
 565 79 l 1,45,-1
 565 626 l 2,46,47
 565 630 565 630 554.5 632 c 128,-1,48
 544 634 544 634 529.5 635 c 128,-1,49
 515 636 515 636 500 636 c 2,50,-1
 488 636 l 1,51,-1
 488 710 l 1,52,-1
 726 710 l 1,53,-1
 726 636 l 1,54,-1
 716 636 l 2,55,56
 695 636 695 636 679.5 633 c 128,-1,57
 664 630 664 630 656 622.5 c 128,-1,58
 648 615 648 615 648 600 c 2,59,-1
 648 -20 l 2,0,1
EndSplineSet
Substitution2: "'ss07' Style Set 7 lookup 67 subtable" Eng.afr
EndChar

StartChar: OE
Encoding: 338 338 233
Width: 1010
GlyphClass: 1
Flags: W
LayerCount: 2
Fore
SplineSet
575 399 m 1,0,1
 618 402 618 402 662 404.5 c 128,-1,2
 706 407 706 407 749.5 409.5 c 128,-1,3
 793 412 793 412 836 414 c 1,4,-1
 836 317 l 1,5,6
 793 320 793 320 749.5 322 c 128,-1,7
 706 324 706 324 662 326.5 c 128,-1,8
 618 329 618 329 575 331 c 1,9,-1
 575 399 l 1,0,1
398 73 m 2,10,-1
 494 73 l 1,11,-1
 494 637 l 1,12,-1
 398 637 l 2,13,14
 339 637 339 637 294.5 620.5 c 128,-1,15
 250 604 250 604 220.5 569.5 c 128,-1,16
 191 535 191 535 176.5 481 c 128,-1,17
 162 427 162 427 162 351 c 0,18,19
 162 276 162 276 176.5 222.5 c 128,-1,20
 191 169 191 169 220.5 136 c 128,-1,21
 250 103 250 103 294.5 88 c 128,-1,22
 339 73 339 73 398 73 c 2,10,-1
397 0 m 2,23,24
 316 0 316 0 253 21.5 c 128,-1,25
 190 43 190 43 146 86 c 128,-1,26
 102 129 102 129 79 195.5 c 128,-1,27
 56 262 56 262 56 351 c 0,28,29
 56 441 56 441 79 508 c 128,-1,30
 102 575 102 575 146 620 c 128,-1,31
 190 665 190 665 253 687.5 c 128,-1,32
 316 710 316 710 397 710 c 2,33,-1
 926 710 l 1,34,-1
 926 510 l 1,35,-1
 853 510 l 1,36,-1
 842 592 l 2,37,38
 840 610 840 610 830.5 619.5 c 128,-1,39
 821 629 821 629 800 633 c 128,-1,40
 779 637 779 637 741 637 c 2,41,-1
 593 637 l 1,42,-1
 593 73 l 1,43,-1
 755 73 l 2,44,45
 784 73 784 73 803.5 75 c 128,-1,46
 823 77 823 77 834 82 c 128,-1,47
 845 87 845 87 850.5 96 c 128,-1,48
 856 105 856 105 858 118 c 2,49,-1
 870 225 l 1,50,-1
 945 225 l 1,51,-1
 945 0 l 1,52,-1
 397 0 l 2,23,24
EndSplineSet
EndChar

StartChar: Tbar
Encoding: 358 358 234
Width: 675
GlyphClass: 1
Flags: W
LayerCount: 2
Fore
SplineSet
123 342 m 1,0,-1
 549 342 l 1,1,-1
 549 270 l 1,2,-1
 123 270 l 1,3,-1
 123 342 l 1,0,-1
288 110 m 2,4,-1
 288 637 l 1,5,-1
 231 637 l 2,6,7
 192 637 192 637 171.5 631 c 128,-1,8
 151 625 151 625 142.5 612 c 128,-1,9
 134 599 134 599 132 579 c 2,10,-1
 121 473 l 1,11,-1
 49 473 l 1,12,-1
 49 710 l 1,13,-1
 626 710 l 1,14,-1
 626 473 l 1,15,-1
 554 473 l 1,16,-1
 543 579 l 2,17,18
 541 599 541 599 533 612 c 128,-1,19
 525 625 525 625 504 631 c 128,-1,20
 483 637 483 637 443 637 c 2,21,-1
 387 637 l 1,22,-1
 387 110 l 2,23,24
 387 88 387 88 410.5 81 c 128,-1,25
 434 74 434 74 464 74 c 2,26,-1
 482 74 l 1,27,-1
 482 0 l 1,28,-1
 194 0 l 1,29,-1
 194 74 l 1,30,-1
 212 74 l 2,31,32
 242 74 242 74 265 81 c 128,-1,33
 288 88 288 88 288 110 c 2,4,-1
EndSplineSet
EndChar

StartChar: Bhook
Encoding: 385 385 235
Width: 734
GlyphClass: 2
Flags: W
AnchorPoint: "Anchor-1" 396 0 basechar 0
AnchorPoint: "Anchor-0" 367 741 basechar 0
LayerCount: 2
Fore
SplineSet
265 407 m 1,0,-1
 426 407 l 2,1,2
 468 407 468 407 493.5 420.5 c 128,-1,3
 519 434 519 434 531 460.5 c 128,-1,4
 543 487 543 487 543 528 c 0,5,6
 543 563 543 563 531.5 587 c 128,-1,7
 520 611 520 611 495 624 c 128,-1,8
 470 637 470 637 427 637 c 2,9,-1
 304 637 l 1,10,-1
 304 73 l 1,11,-1
 436 73 l 2,12,13
 483 73 483 73 512.5 88 c 128,-1,14
 542 103 542 103 556 132 c 128,-1,15
 570 161 570 161 570 202 c 0,16,17
 570 245 570 245 555 275 c 128,-1,18
 540 305 540 305 508 321 c 128,-1,19
 476 337 476 337 425 337 c 2,20,-1
 265 337 l 1,21,-1
 265 407 l 1,0,-1
186 710 m 2,22,-1
 432 710 l 2,23,24
 484 710 484 710 523.5 699.5 c 128,-1,25
 563 689 563 689 590 666.5 c 128,-1,26
 617 644 617 644 631 610.5 c 128,-1,27
 645 577 645 577 645 532 c 0,28,29
 645 488 645 488 625.5 452.5 c 128,-1,30
 606 417 606 417 567.5 396.5 c 128,-1,31
 529 376 529 376 470 375 c 1,32,-1
 479 390 l 1,33,-1
 479 353 l 1,34,-1
 470 372 l 1,35,36
 537 369 537 369 582 347 c 128,-1,37
 627 325 627 325 650 287.5 c 128,-1,38
 673 250 673 250 673 198 c 0,39,40
 673 148 673 148 658 110.5 c 128,-1,41
 643 73 643 73 613 49 c 128,-1,42
 583 25 583 25 540 12.5 c 128,-1,43
 497 0 497 0 441 0 c 2,44,-1
 127 0 l 1,45,-1
 127 74 l 1,46,-1
 137 74 l 2,47,48
 164 74 164 74 184.5 81 c 128,-1,49
 205 88 205 88 205 110 c 2,50,-1
 205 637 l 1,51,-1
 188 637 l 2,52,53
 158 637 158 637 138 629 c 128,-1,54
 118 621 118 621 108.5 600.5 c 128,-1,55
 99 580 99 580 99 542 c 0,56,57
 99 519 99 519 101.5 501 c 128,-1,58
 104 483 104 483 108 468 c 1,59,-1
 12 468 l 1,60,61
 9 481 9 481 7.5 499 c 128,-1,62
 6 517 6 517 6 536 c 0,63,64
 6 597 6 597 26.5 635 c 128,-1,65
 47 673 47 673 86.5 691.5 c 128,-1,66
 126 710 126 710 186 710 c 2,22,-1
EndSplineSet
EndChar

StartChar: Dhook
Encoding: 394 394 236
Width: 809
GlyphClass: 2
Flags: W
AnchorPoint: "Anchor-1" 405 0 basechar 0
AnchorPoint: "Anchor-0" 380 741 basechar 0
LayerCount: 2
Fore
SplineSet
186 710 m 2,0,-1
 405 710 l 2,1,2
 487 710 487 710 552 689 c 128,-1,3
 617 668 617 668 662 624.5 c 128,-1,4
 707 581 707 581 730 515 c 128,-1,5
 753 449 753 449 753 359 c 0,6,7
 753 270 753 270 730 202.5 c 128,-1,8
 707 135 707 135 662 90.5 c 128,-1,9
 617 46 617 46 552 23 c 128,-1,10
 487 0 487 0 405 0 c 2,11,-1
 127 0 l 1,12,-1
 127 74 l 1,13,-1
 137 74 l 2,14,15
 164 74 164 74 184.5 81 c 128,-1,16
 205 88 205 88 205 110 c 2,17,-1
 205 637 l 1,18,-1
 187 637 l 2,19,20
 158 637 158 637 138 629 c 128,-1,21
 118 621 118 621 108.5 600.5 c 128,-1,22
 99 580 99 580 99 542 c 0,23,24
 99 520 99 520 101.5 501.5 c 128,-1,25
 104 483 104 483 108 468 c 1,26,-1
 11 468 l 1,27,28
 9 480 9 480 7.5 498.5 c 128,-1,29
 6 517 6 517 6 536 c 0,30,31
 6 597 6 597 26 635 c 128,-1,32
 46 673 46 673 86 691.5 c 128,-1,33
 126 710 126 710 186 710 c 2,0,-1
403 637 m 2,34,-1
 304 637 l 1,35,-1
 304 73 l 1,36,-1
 403 73 l 2,37,38
 466 73 466 73 512 90.5 c 128,-1,39
 558 108 558 108 588 143.5 c 128,-1,40
 618 179 618 179 633 232.5 c 128,-1,41
 648 286 648 286 648 359 c 256,42,43
 648 432 648 432 633 484.5 c 128,-1,44
 618 537 618 537 588 570.5 c 128,-1,45
 558 604 558 604 512 620.5 c 128,-1,46
 466 637 466 637 403 637 c 2,34,-1
EndSplineSet
EndChar

StartChar: Schwa
Encoding: 399 399 237
Width: 696
GlyphClass: 1
Flags: W
LayerCount: 2
Fore
SplineSet
335 749 m 0,0,1
 428 749 428 749 496.5 707 c 128,-1,2
 565 665 565 665 602.5 580.5 c 128,-1,3
 640 496 640 496 640 370 c 0,4,5
 640 279 640 279 618.5 206 c 128,-1,6
 597 133 597 133 558 82 c 128,-1,7
 519 31 519 31 463.5 3.5 c 128,-1,8
 408 -24 408 -24 340 -24 c 0,9,10
 240 -24 240 -24 179 23.5 c 128,-1,11
 118 71 118 71 89.5 164.5 c 128,-1,12
 61 258 61 258 58 397 c 1,13,-1
 577 397 l 1,14,-1
 577 321 l 1,15,-1
 143 321 l 1,16,-1
 163 342 l 1,17,18
 167 261 167 261 178 205 c 128,-1,19
 189 149 189 149 210 115 c 128,-1,20
 231 81 231 81 263 66 c 128,-1,21
 295 51 295 51 340 51 c 0,22,23
 386 51 386 51 422 68.5 c 128,-1,24
 458 86 458 86 482.5 124 c 128,-1,25
 507 162 507 162 520.5 223 c 128,-1,26
 534 284 534 284 534 370 c 0,27,28
 534 460 534 460 519.5 519.5 c 128,-1,29
 505 579 505 579 478.5 613 c 128,-1,30
 452 647 452 647 415.5 660.5 c 128,-1,31
 379 674 379 674 334 674 c 0,32,33
 281 674 281 674 243.5 661 c 128,-1,34
 206 648 206 648 177 619.5 c 128,-1,35
 148 591 148 591 120 543 c 1,36,-1
 56 587 l 1,37,38
 84 636 84 636 123.5 672.5 c 128,-1,39
 163 709 163 709 216 729 c 128,-1,40
 269 749 269 749 335 749 c 0,0,1
EndSplineSet
EndChar

StartChar: Khook
Encoding: 408 408 238
Width: 728
GlyphClass: 2
Flags: W
AnchorPoint: "Anchor-1" 371 0 basechar 0
AnchorPoint: "Anchor-0" 415 741 basechar 0
LayerCount: 2
Fore
SplineSet
55 0 m 1,0,-1
 55 74 l 1,1,-1
 65 74 l 2,2,3
 92 74 92 74 112.5 81 c 128,-1,4
 133 88 133 88 133 110 c 2,5,-1
 133 600 l 2,6,7
 133 622 133 622 112.5 629 c 128,-1,8
 92 636 92 636 65 636 c 2,9,-1
 55 636 l 1,10,-1
 55 710 l 1,11,-1
 314 710 l 1,12,-1
 314 636 l 1,13,-1
 305 636 l 2,14,15
 294 636 294 636 281 635.5 c 128,-1,16
 268 635 268 635 257 633.5 c 128,-1,17
 246 632 246 632 239 630.5 c 128,-1,18
 232 629 232 629 232 626 c 2,19,-1
 232 84 l 2,20,21
 232 81 232 81 239 79.5 c 128,-1,22
 246 78 246 78 257 76.5 c 128,-1,23
 268 75 268 75 281 74.5 c 128,-1,24
 294 74 294 74 304 74 c 2,25,-1
 313 74 l 1,26,-1
 313 0 l 1,27,-1
 55 0 l 1,0,-1
645 719 m 0,28,29
 677 719 677 719 696.5 705 c 128,-1,30
 716 691 716 691 726 664 c 128,-1,31
 736 637 736 637 736 598 c 256,32,33
 736 559 736 559 730.5 523 c 128,-1,34
 725 487 725 487 718 468 c 1,35,-1
 625 468 l 1,36,37
 631 480 631 480 636 500.5 c 128,-1,38
 641 521 641 521 644 545.5 c 128,-1,39
 647 570 647 570 647 593 c 0,40,41
 647 612 647 612 641 621.5 c 128,-1,42
 635 631 635 631 621 631 c 0,43,44
 611 631 611 631 600 623.5 c 128,-1,45
 589 616 589 616 567.5 593.5 c 128,-1,46
 546 571 546 571 505 524 c 2,47,-1
 352 355 l 1,48,-1
 354 397 l 1,49,-1
 620 96 l 2,50,51
 628 87 628 87 637.5 82 c 128,-1,52
 647 77 647 77 658 75.5 c 128,-1,53
 669 74 669 74 681 74 c 2,54,-1
 701 74 l 1,55,-1
 701 0 l 1,56,-1
 424 0 l 1,57,-1
 424 74 l 1,58,-1
 432 74 l 2,59,60
 450 74 450 74 467 75 c 128,-1,61
 484 76 484 76 495 78.5 c 128,-1,62
 506 81 506 81 506 84 c 2,63,-1
 277 346 l 1,64,-1
 277 372 l 1,65,-1
 456 572 l 2,66,67
 497 619 497 619 525 647.5 c 128,-1,68
 553 676 553 676 573 692 c 128,-1,69
 593 708 593 708 609.5 713.5 c 128,-1,70
 626 719 626 719 645 719 c 0,28,29
EndSplineSet
EndChar

StartChar: Yhook
Encoding: 435 435 239
Width: 698
GlyphClass: 2
Flags: W
AnchorPoint: "Anchor-1" 328 0 basechar 0
AnchorPoint: "Anchor-0" 356 741 basechar 0
LayerCount: 2
Fore
SplineSet
463 574 m 2,0,1
 493 630 493 630 516.5 661.5 c 128,-1,2
 540 693 540 693 563.5 706 c 128,-1,3
 587 719 587 719 617 719 c 0,4,5
 654 719 654 719 676 702 c 128,-1,6
 698 685 698 685 707.5 656.5 c 128,-1,7
 717 628 717 628 717 590 c 0,8,9
 717 556 717 556 712 521 c 128,-1,10
 707 486 707 486 700 468 c 1,11,-1
 606 468 l 1,12,13
 612 480 612 480 617 499 c 128,-1,14
 622 518 622 518 625 540 c 128,-1,15
 628 562 628 562 628 585 c 256,16,17
 628 608 628 608 622.5 619 c 128,-1,18
 617 630 617 630 602 630 c 0,19,20
 591 630 591 630 581.5 621.5 c 128,-1,21
 572 613 572 613 559.5 593 c 128,-1,22
 547 573 547 573 527 538 c 2,23,-1
 374 262 l 1,24,-1
 380 301 l 1,25,-1
 380 110 l 2,26,27
 380 88 380 88 402 81 c 128,-1,28
 424 74 424 74 455 74 c 2,29,-1
 474 74 l 1,30,-1
 474 0 l 1,31,-1
 188 0 l 1,32,-1
 188 74 l 1,33,-1
 207 74 l 2,34,35
 238 74 238 74 259.5 81 c 128,-1,36
 281 88 281 88 281 110 c 2,37,-1
 281 301 l 1,38,-1
 288 263 l 1,39,-1
 97 595 l 2,40,41
 88 612 88 612 79 621 c 128,-1,42
 70 630 70 630 60 633 c 128,-1,43
 50 636 50 636 37 636 c 2,44,-1
 26 636 l 1,45,-1
 26 710 l 1,46,-1
 260 710 l 1,47,-1
 260 636 l 1,48,-1
 246 636 l 2,49,50
 231 636 231 636 217 634.5 c 128,-1,51
 203 633 203 633 193.5 631 c 128,-1,52
 184 629 184 629 184 625 c 2,53,-1
 364 302 l 1,54,-1
 320 302 l 1,55,-1
 463 574 l 2,0,1
EndSplineSet
EndChar

StartChar: Germandbls
Encoding: 7838 7838 240
Width: 809
GlyphClass: 1
Flags: W
LayerCount: 2
Fore
SplineSet
559 57 m 256,0,1
 598 57 598 57 618.5 70 c 128,-1,2
 639 83 639 83 647 111 c 128,-1,3
 655 139 655 139 655 184 c 256,4,5
 655 229 655 229 644 257 c 128,-1,6
 633 285 633 285 609.5 302.5 c 128,-1,7
 586 320 586 320 547.5 334.5 c 128,-1,8
 509 349 509 349 454 366 c 1,9,-1
 454 440 l 1,10,-1
 594 675 l 1,11,-1
 622 635 l 1,12,-1
 369 635 l 2,13,14
 329 635 329 635 301.5 624 c 128,-1,15
 274 613 274 613 257.5 592 c 128,-1,16
 241 571 241 571 234 540 c 128,-1,17
 227 509 227 509 227 469 c 2,18,-1
 227 0 l 1,19,-1
 46 0 l 1,20,-1
 46 74 l 1,21,-1
 56 74 l 2,22,23
 89 74 89 74 108.5 81 c 128,-1,24
 128 88 128 88 128 110 c 2,25,-1
 128 462 l 2,26,27
 128 522 128 522 140.5 568.5 c 128,-1,28
 153 615 153 615 180.5 646.5 c 128,-1,29
 208 678 208 678 253.5 694 c 128,-1,30
 299 710 299 710 364 710 c 2,31,-1
 672 710 l 1,32,-1
 672 637 l 1,33,-1
 534 400 l 1,34,-1
 500 421 l 1,35,36
 556 404 556 404 602.5 387.5 c 128,-1,37
 649 371 649 371 682.5 346.5 c 128,-1,38
 716 322 716 322 735 284 c 128,-1,39
 754 246 754 246 754 187 c 0,40,41
 754 125 754 125 734 80 c 128,-1,42
 714 35 714 35 672 10.5 c 128,-1,43
 630 -14 630 -14 565 -14 c 0,44,45
 508 -14 508 -14 471.5 8 c 128,-1,46
 435 30 435 30 416.5 75 c 128,-1,47
 398 120 398 120 393 190 c 1,48,-1
 409 149 l 1,49,-1
 397 0 l 1,50,-1
 326 0 l 1,51,-1
 326 232 l 1,52,-1
 405 232 l 1,53,54
 415 192 415 192 426.5 159.5 c 128,-1,55
 438 127 438 127 454 104.5 c 128,-1,56
 470 82 470 82 495 69.5 c 128,-1,57
 520 57 520 57 559 57 c 256,0,1
EndSplineSet
EndChar

StartChar: Delta
Encoding: 916 916 241
Width: 704
GlyphClass: 1
Flags: W
LayerCount: 2
Fore
SplineSet
50 0 m 1,0,-1
 50 86 l 1,1,-1
 298 710 l 1,2,-1
 407 710 l 1,3,-1
 654 86 l 1,4,-1
 654 0 l 1,5,-1
 50 0 l 1,0,-1
567 56 m 1,6,-1
 316 700 l 1,7,-1
 370 696 l 1,8,-1
 118 52 l 1,9,-1
 79 88 l 1,10,-1
 598 88 l 1,11,-1
 567 56 l 1,6,-1
EndSplineSet
EndChar

StartChar: Omega
Encoding: 937 937 242
Width: 807
GlyphClass: 1
Flags: W
LayerCount: 2
Fore
SplineSet
403 735 m 0,0,1
 335 735 335 735 279.5 718.5 c 128,-1,2
 224 702 224 702 184 669 c 128,-1,3
 144 636 144 636 122.5 586 c 128,-1,4
 101 536 101 536 101 469 c 0,5,6
 101 431 101 431 108.5 395.5 c 128,-1,7
 116 360 116 360 131.5 323 c 128,-1,8
 147 286 147 286 172.5 245 c 128,-1,9
 198 204 198 204 233.5 157.5 c 128,-1,10
 269 111 269 111 316 55 c 1,11,-1
 324 71 l 1,12,-1
 229 71 l 2,13,14
 191 71 191 71 170.5 75.5 c 128,-1,15
 150 80 150 80 141 91 c 128,-1,16
 132 102 132 102 130 119 c 2,17,-1
 117 215 l 1,18,-1
 46 215 l 1,19,-1
 46 0 l 1,20,-1
 360 0 l 1,21,-1
 360 116 l 1,22,23
 323 164 323 164 294 205.5 c 128,-1,24
 265 247 265 247 245.5 286.5 c 128,-1,25
 226 326 226 326 216.5 368 c 128,-1,26
 207 410 207 410 207 458 c 0,27,28
 207 533 207 533 228.5 577.5 c 128,-1,29
 250 622 250 622 294 642 c 128,-1,30
 338 662 338 662 403 662 c 0,31,32
 469 662 469 662 512 642 c 128,-1,33
 555 622 555 622 577.5 577.5 c 128,-1,34
 600 533 600 533 600 458 c 0,35,36
 600 410 600 410 590 368 c 128,-1,37
 580 326 580 326 560.5 286.5 c 128,-1,38
 541 247 541 247 512.5 205.5 c 128,-1,39
 484 164 484 164 447 116 c 1,40,-1
 447 0 l 1,41,-1
 761 0 l 1,42,-1
 761 215 l 1,43,-1
 690 215 l 1,44,-1
 677 119 l 2,45,46
 674 101 674 101 665 90.5 c 128,-1,47
 656 80 656 80 635 75.5 c 128,-1,48
 614 71 614 71 576 71 c 2,49,-1
 482 71 l 1,50,-1
 491 55 l 1,51,52
 538 111 538 111 573.5 157.5 c 128,-1,53
 609 204 609 204 634 245 c 128,-1,54
 659 286 659 286 675 323 c 128,-1,55
 691 360 691 360 698 395.5 c 128,-1,56
 705 431 705 431 705 469 c 0,57,58
 705 536 705 536 683.5 586 c 128,-1,59
 662 636 662 636 622.5 669 c 128,-1,60
 583 702 583 702 527.5 718.5 c 128,-1,61
 472 735 472 735 403 735 c 0,0,1
EndSplineSet
EndChar

StartChar: Djecyr
Encoding: 1026 1026 244
Width: 821
GlyphClass: 2
Flags: W
AnchorPoint: "Anchor-0" 320 741 basechar 0
LayerCount: 2
Fore
SplineSet
765 199 m 0,0,1
 765 146 765 146 750 104 c 128,-1,2
 735 62 735 62 705.5 33.5 c 128,-1,3
 676 5 676 5 634.5 -9.5 c 128,-1,4
 593 -24 593 -24 541 -24 c 1,5,-1
 541 50 l 1,6,7
 579 50 579 50 606 65 c 128,-1,8
 633 80 633 80 647 113 c 128,-1,9
 661 146 661 146 661 199 c 0,10,11
 661 268 661 268 624.5 307 c 128,-1,12
 588 346 588 346 519 346 c 0,13,14
 468 346 468 346 423.5 335 c 128,-1,15
 379 324 379 324 335 298 c 1,16,-1
 335 373 l 1,17,18
 378 396 378 396 423.5 408 c 128,-1,19
 469 420 469 420 523 420 c 0,20,21
 606 420 606 420 659.5 392.5 c 128,-1,22
 713 365 713 365 739 315.5 c 128,-1,23
 765 266 765 266 765 199 c 0,0,1
179 0 m 1,24,-1
 179 74 l 1,25,-1
 197 74 l 2,26,27
 227 74 227 74 250 81 c 128,-1,28
 273 88 273 88 273 110 c 2,29,-1
 273 637 l 1,30,-1
 231 637 l 2,31,32
 192 637 192 637 171.5 631 c 128,-1,33
 151 625 151 625 142.5 612 c 128,-1,34
 134 599 134 599 132 579 c 2,35,-1
 121 473 l 1,36,-1
 49 473 l 1,37,-1
 49 710 l 1,38,-1
 629 710 l 1,39,-1
 629 491 l 1,40,-1
 557 491 l 1,41,-1
 546 579 l 2,42,43
 543 599 543 599 535 612 c 128,-1,44
 527 625 527 625 506.5 631 c 128,-1,45
 486 637 486 637 446 637 c 2,46,-1
 372 637 l 1,47,-1
 372 84 l 2,48,49
 372 81 372 81 383 78.5 c 128,-1,50
 394 76 394 76 410.5 75 c 128,-1,51
 427 74 427 74 443 74 c 2,52,-1
 457 74 l 1,53,-1
 457 0 l 1,54,-1
 179 0 l 1,24,-1
EndSplineSet
EndChar

StartChar: Eukrcyr
Encoding: 1028 1028 245
Width: 713
GlyphClass: 2
Flags: W
AnchorPoint: "Anchor-1" 371 0 basechar 0
AnchorPoint: "Anchor-0" 371 741 basechar 0
LayerCount: 2
Fore
SplineSet
133 399 m 1,0,1
 161 400 161 400 188 401.5 c 128,-1,2
 215 403 215 403 242 404 c 128,-1,3
 269 405 269 405 297 406.5 c 128,-1,4
 325 408 325 408 352 409 c 128,-1,5
 379 410 379 410 406.5 411.5 c 128,-1,6
 434 413 434 413 461 414 c 1,7,-1
 461 317 l 1,8,9
 434 318 434 318 406.5 319 c 128,-1,10
 379 320 379 320 352 321 c 128,-1,11
 325 322 325 322 297.5 323.5 c 128,-1,12
 270 325 270 325 242.5 326 c 128,-1,13
 215 327 215 327 188 328.5 c 128,-1,14
 161 330 161 330 133 331 c 1,15,-1
 133 399 l 1,0,1
363 660 m 0,16,17
 312 660 312 660 274 642 c 128,-1,18
 236 624 236 624 211.5 587 c 128,-1,19
 187 550 187 550 174.5 492.5 c 128,-1,20
 162 435 162 435 162 356 c 256,21,22
 162 277 162 277 174.5 219 c 128,-1,23
 187 161 187 161 213 123.5 c 128,-1,24
 239 86 239 86 279 68 c 128,-1,25
 319 50 319 50 374 50 c 0,26,27
 438 50 438 50 480 76.5 c 128,-1,28
 522 103 522 103 547.5 145 c 128,-1,29
 573 187 573 187 588 234 c 1,30,-1
 658 206 l 1,31,32
 637 136 637 136 598 84.5 c 128,-1,33
 559 33 559 33 502 4.5 c 128,-1,34
 445 -24 445 -24 369 -24 c 0,35,36
 298 -24 298 -24 240.5 0 c 128,-1,37
 183 24 183 24 141.5 72 c 128,-1,38
 100 120 100 120 78 191 c 128,-1,39
 56 262 56 262 56 356 c 256,40,41
 56 450 56 450 78 521 c 128,-1,42
 100 592 100 592 141 639.5 c 128,-1,43
 182 687 182 687 238 710.5 c 128,-1,44
 294 734 294 734 361 734 c 0,45,46
 423 734 423 734 469.5 708 c 128,-1,47
 516 682 516 682 544 630.5 c 128,-1,48
 572 579 572 579 579 502 c 1,49,-1
 559 541 l 1,50,-1
 572 720 l 1,51,-1
 646 720 l 1,52,-1
 646 466 l 1,53,-1
 565 466 l 1,54,55
 548 526 548 526 521 569.5 c 128,-1,56
 494 613 494 613 455 636.5 c 128,-1,57
 416 660 416 660 363 660 c 0,16,17
EndSplineSet
Substitution2: "'ss01' Style Set 1 lookup 61 subtable" Ieukran.alt1
EndChar

StartChar: Yukrcyr
Encoding: 1031 1031 248
Width: 386
GlyphClass: 2
Flags: W
AnchorPoint: "Anchor-1" 194 0 basechar 0
AnchorPoint: "Anchor-0" 194 914 basechar 0
LayerCount: 2
Fore
SplineSet
166 857 m 0,0,1
 166 820 166 820 146.5 804.5 c 128,-1,2
 127 789 127 789 96 789 c 256,3,4
 65 789 65 789 46 804.5 c 128,-1,5
 27 820 27 820 27 857 c 0,6,7
 27 892 27 892 46 908 c 128,-1,8
 65 924 65 924 96 924 c 256,9,10
 127 924 127 924 146.5 908 c 128,-1,11
 166 892 166 892 166 857 c 0,0,1
359 857 m 0,12,13
 359 820 359 820 339.5 804.5 c 128,-1,14
 320 789 320 789 289 789 c 0,15,16
 259 789 259 789 239.5 804.5 c 128,-1,17
 220 820 220 820 220 857 c 0,18,19
 220 892 220 892 239 908 c 128,-1,20
 258 924 258 924 289 924 c 256,21,22
 320 924 320 924 339.5 908 c 128,-1,23
 359 892 359 892 359 857 c 0,12,13
144 110 m 2,24,-1
 144 600 l 2,25,26
 144 622 144 622 123 629 c 128,-1,27
 102 636 102 636 72 636 c 2,28,-1
 54 636 l 1,29,-1
 54 710 l 1,30,-1
 333 710 l 1,31,-1
 333 636 l 1,32,-1
 315 636 l 2,33,34
 285 636 285 636 264 629 c 128,-1,35
 243 622 243 622 243 600 c 2,36,-1
 243 110 l 2,37,38
 243 88 243 88 264 81 c 128,-1,39
 285 74 285 74 315 74 c 2,40,-1
 333 74 l 1,41,-1
 333 0 l 1,42,-1
 54 0 l 1,43,-1
 54 74 l 1,44,-1
 72 74 l 2,45,46
 102 74 102 74 123 81 c 128,-1,47
 144 88 144 88 144 110 c 2,24,-1
EndSplineSet
EndChar

StartChar: Ljecyr
Encoding: 1033 1033 250
Width: 994
GlyphClass: 2
Flags: W
AnchorPoint: "Anchor-0" 398 741 basechar 0
LayerCount: 2
Fore
SplineSet
235 710 m 1,0,-1
 540 710 l 1,1,-1
 540 635 l 1,2,-1
 235 635 l 1,3,-1
 235 710 l 1,0,-1
170 272 m 2,4,-1
 194 600 l 2,5,6
 196 622 196 622 176.5 629 c 128,-1,7
 157 636 157 636 129 636 c 2,8,-1
 119 636 l 1,9,-1
 119 710 l 1,10,-1
 286 710 l 1,11,-1
 254 268 l 2,12,13
 247 167 247 167 224.5 104.5 c 128,-1,14
 202 42 202 42 165 13.5 c 128,-1,15
 128 -15 128 -15 74 -15 c 0,16,17
 55 -15 55 -15 39 -10.5 c 128,-1,18
 23 -6 23 -6 13 0 c 1,19,-1
 13 94 l 1,20,21
 22 89 22 89 36.5 84 c 128,-1,22
 51 79 51 79 71 79 c 0,23,24
 99 79 99 79 119 98.5 c 128,-1,25
 139 118 139 118 152 160.5 c 128,-1,26
 165 203 165 203 170 272 c 2,4,-1
712 0 m 2,27,-1
 408 0 l 1,28,-1
 408 74 l 1,29,-1
 416 74 l 2,30,31
 433 74 433 74 450 75 c 128,-1,32
 467 76 467 76 478 78.5 c 128,-1,33
 489 81 489 81 489 84 c 2,34,-1
 489 710 l 1,35,-1
 675 710 l 1,36,-1
 675 636 l 1,37,-1
 654 636 l 2,38,39
 628 636 628 636 608 629 c 128,-1,40
 588 622 588 622 588 600 c 2,41,-1
 588 73 l 1,42,-1
 709 73 l 2,43,44
 754 73 754 73 782.5 89 c 128,-1,45
 811 105 811 105 825 136.5 c 128,-1,46
 839 168 839 168 839 215 c 0,47,48
 839 264 839 264 825 296.5 c 128,-1,49
 811 329 811 329 782.5 345 c 128,-1,50
 754 361 754 361 709 361 c 2,51,-1
 542 361 l 1,52,-1
 542 434 l 1,53,-1
 712 434 l 2,54,55
 782 434 782 434 834 410.5 c 128,-1,56
 886 387 886 387 915 338.5 c 128,-1,57
 944 290 944 290 944 215 c 0,58,59
 944 147 944 147 914 98.5 c 128,-1,60
 884 50 884 50 831.5 25 c 128,-1,61
 779 0 779 0 712 0 c 2,27,-1
EndSplineSet
EndChar

StartChar: Njecyr
Encoding: 1034 1034 251
Width: 1031
GlyphClass: 2
Flags: W
AnchorPoint: "Anchor-0" 381 741 basechar 0
LayerCount: 2
Fore
SplineSet
209 426 m 1,0,-1
 551 426 l 1,1,-1
 551 353 l 1,2,-1
 209 353 l 1,3,-1
 209 426 l 1,0,-1
55 0 m 1,4,-1
 55 74 l 1,5,-1
 65 74 l 2,6,7
 92 74 92 74 112.5 81 c 128,-1,8
 133 88 133 88 133 110 c 2,9,-1
 133 600 l 2,10,11
 133 622 133 622 112.5 629 c 128,-1,12
 92 636 92 636 65 636 c 2,13,-1
 55 636 l 1,14,-1
 55 710 l 1,15,-1
 318 710 l 1,16,-1
 318 636 l 1,17,-1
 309 636 l 2,18,19
 292 636 292 636 274.5 635 c 128,-1,20
 257 634 257 634 244.5 632 c 128,-1,21
 232 630 232 630 232 626 c 2,22,-1
 232 83 l 2,23,24
 232 81 232 81 244.5 78.5 c 128,-1,25
 257 76 257 76 274.5 75 c 128,-1,26
 292 74 292 74 309 74 c 2,27,-1
 318 74 l 1,28,-1
 318 0 l 1,29,-1
 55 0 l 1,4,-1
445 0 m 1,30,-1
 445 74 l 1,31,-1
 452 74 l 2,32,33
 469 74 469 74 485.5 75 c 128,-1,34
 502 76 502 76 514 78.5 c 128,-1,35
 526 81 526 81 526 84 c 2,36,-1
 526 627 l 2,37,38
 526 630 526 630 514 632 c 128,-1,39
 502 634 502 634 485.5 635 c 128,-1,40
 469 636 469 636 453 636 c 2,41,-1
 445 636 l 1,42,-1
 445 710 l 1,43,-1
 717 710 l 1,44,-1
 717 636 l 1,45,-1
 697 636 l 2,46,47
 678 636 678 636 661.5 633 c 128,-1,48
 645 630 645 630 635 622.5 c 128,-1,49
 625 615 625 615 625 600 c 2,50,-1
 625 73 l 1,51,-1
 745 73 l 2,52,53
 787 73 787 73 816.5 88 c 128,-1,54
 846 103 846 103 861 134 c 128,-1,55
 876 165 876 165 876 211 c 0,56,57
 876 258 876 258 860.5 289.5 c 128,-1,58
 845 321 845 321 816.5 337 c 128,-1,59
 788 353 788 353 746 353 c 2,60,-1
 586 353 l 1,61,-1
 586 426 l 1,62,-1
 748 426 l 2,63,64
 819 426 819 426 871 402 c 128,-1,65
 923 378 923 378 951.5 330 c 128,-1,66
 980 282 980 282 980 211 c 0,67,68
 980 143 980 143 950 96 c 128,-1,69
 920 49 920 49 868 24.5 c 128,-1,70
 816 0 816 0 748 0 c 2,71,-1
 445 0 l 1,30,-1
EndSplineSet
EndChar

StartChar: Tshecyr
Encoding: 1035 1035 252
Width: 865
GlyphClass: 2
Flags: W
AnchorPoint: "Anchor-0" 312 741 basechar 0
LayerCount: 2
Fore
SplineSet
526 420 m 0,0,1
 610 420 610 420 659.5 398 c 128,-1,2
 709 376 709 376 730.5 330.5 c 128,-1,3
 752 285 752 285 752 213 c 2,4,-1
 752 110 l 2,5,6
 752 88 752 88 771.5 81 c 128,-1,7
 791 74 791 74 820 74 c 2,8,-1
 830 74 l 1,9,-1
 830 0 l 1,10,-1
 653 0 l 1,11,-1
 653 208 l 2,12,13
 653 260 653 260 637.5 290 c 128,-1,14
 622 320 622 320 593 332.5 c 128,-1,15
 564 345 564 345 523 345 c 0,16,17
 477 345 477 345 427.5 335 c 128,-1,18
 378 325 378 325 335 298 c 1,19,-1
 335 374 l 1,20,21
 380 398 380 398 429 409 c 128,-1,22
 478 420 478 420 526 420 c 0,0,1
179 0 m 1,23,-1
 179 74 l 1,24,-1
 197 74 l 2,25,26
 228 74 228 74 250.5 81 c 128,-1,27
 273 88 273 88 273 110 c 2,28,-1
 273 637 l 1,29,-1
 231 637 l 2,30,31
 192 637 192 637 171.5 631 c 128,-1,32
 151 625 151 625 142.5 612 c 128,-1,33
 134 599 134 599 132 579 c 2,34,-1
 121 473 l 1,35,-1
 49 473 l 1,36,-1
 49 710 l 1,37,-1
 629 710 l 1,38,-1
 629 491 l 1,39,-1
 557 491 l 1,40,-1
 546 579 l 2,41,42
 543 599 543 599 535 612 c 128,-1,43
 527 625 527 625 506.5 631 c 128,-1,44
 486 637 486 637 446 637 c 2,45,-1
 372 637 l 1,46,-1
 372 84 l 2,47,48
 372 81 372 81 383.5 78.5 c 128,-1,49
 395 76 395 76 413 75 c 128,-1,50
 431 74 431 74 449 74 c 2,51,-1
 467 74 l 1,52,-1
 467 0 l 1,53,-1
 179 0 l 1,23,-1
EndSplineSet
EndChar

StartChar: Dzhecyr
Encoding: 1039 1039 253
Width: 788
GlyphClass: 2
Flags: W
AnchorPoint: "Anchor-0" 394 741 basechar 0
LayerCount: 2
Fore
SplineSet
55 710 m 1,0,-1
 317 710 l 1,1,-1
 317 636 l 1,2,-1
 309 636 l 2,3,4
 292 636 292 636 274.5 635 c 128,-1,5
 257 634 257 634 244.5 632 c 128,-1,6
 232 630 232 630 232 626 c 2,7,-1
 232 0 l 1,8,-1
 55 0 l 1,9,-1
 55 74 l 1,10,-1
 65 74 l 2,11,12
 92 74 92 74 112.5 81 c 128,-1,13
 133 88 133 88 133 110 c 2,14,-1
 133 600 l 2,15,16
 133 622 133 622 112.5 629 c 128,-1,17
 92 636 92 636 65 636 c 2,18,-1
 55 636 l 1,19,-1
 55 710 l 1,0,-1
470 710 m 1,20,-1
 733 710 l 1,21,-1
 733 636 l 1,22,-1
 723 636 l 2,23,24
 696 636 696 636 675.5 629 c 128,-1,25
 655 622 655 622 655 600 c 2,26,-1
 655 110 l 2,27,28
 655 88 655 88 675.5 81 c 128,-1,29
 696 74 696 74 723 74 c 2,30,-1
 733 74 l 1,31,-1
 733 0 l 1,32,-1
 556 0 l 1,33,-1
 556 626 l 2,34,35
 556 630 556 630 543.5 632 c 128,-1,36
 531 634 531 634 513 635 c 128,-1,37
 495 636 495 636 478 636 c 2,38,-1
 470 636 l 1,39,-1
 470 710 l 1,20,-1
184 0 m 1,40,-1
 184 75 l 1,41,-1
 603 75 l 1,42,-1
 603 0 l 1,43,-1
 562 0 l 2,44,45
 519 0 519 0 493 -5.5 c 128,-1,46
 467 -11 467 -11 455 -22.5 c 128,-1,47
 443 -34 443 -34 441 -54 c 2,48,-1
 429 -184 l 1,49,-1
 358 -184 l 1,50,-1
 346 -54 l 2,51,52
 345 -35 345 -35 332.5 -23 c 128,-1,53
 320 -11 320 -11 294 -5.5 c 128,-1,54
 268 0 268 0 225 0 c 2,55,-1
 184 0 l 1,40,-1
EndSplineSet
EndChar

StartChar: Becyr
Encoding: 1041 1041 257
Width: 647
GlyphClass: 2
Flags: W
AnchorPoint: "Anchor-0" 330 741 basechar 0
LayerCount: 2
Fore
SplineSet
55 710 m 1,0,-1
 549 710 l 1,1,-1
 549 508 l 1,2,-1
 477 508 l 1,3,-1
 466 592 l 2,4,5
 463 610 463 610 451 619.5 c 128,-1,6
 439 629 439 629 415 633 c 128,-1,7
 391 637 391 637 353 637 c 2,8,-1
 233 637 l 1,9,-1
 233 73 l 1,10,-1
 357 73 l 2,11,12
 401 73 401 73 430 88 c 128,-1,13
 459 103 459 103 473 133.5 c 128,-1,14
 487 164 487 164 487 210 c 0,15,16
 487 257 487 257 473 288 c 128,-1,17
 459 319 459 319 430 335 c 128,-1,18
 401 351 401 351 357 351 c 2,19,-1
 182 351 l 1,20,-1
 182 424 l 1,21,-1
 359 424 l 2,22,23
 430 424 430 424 482 401.5 c 128,-1,24
 534 379 534 379 562.5 331.5 c 128,-1,25
 591 284 591 284 591 210 c 0,26,27
 591 143 591 143 561 96 c 128,-1,28
 531 49 531 49 479 24.5 c 128,-1,29
 427 0 427 0 359 0 c 2,30,-1
 55 0 l 1,31,-1
 55 74 l 1,32,-1
 65 74 l 2,33,34
 92 74 92 74 112.5 81 c 128,-1,35
 133 88 133 88 133 110 c 2,36,-1
 133 601 l 2,37,38
 133 622 133 622 112.5 629 c 128,-1,39
 92 636 92 636 65 636 c 2,40,-1
 55 636 l 1,41,-1
 55 710 l 1,0,-1
EndSplineSet
EndChar

StartChar: Gecyr
Encoding: 1043 1043 259
Width: 612
GlyphClass: 2
Flags: W
AnchorPoint: "Anchor-0" 312 741 basechar 0
LayerCount: 2
Fore
SplineSet
232 637 m 1,0,-1
 232 110 l 2,1,2
 232 96 232 96 243 88 c 128,-1,3
 254 80 254 80 272 77 c 128,-1,4
 290 74 290 74 314 74 c 2,5,-1
 335 74 l 1,6,-1
 335 0 l 1,7,-1
 55 0 l 1,8,-1
 55 74 l 1,9,-1
 65 74 l 2,10,11
 92 74 92 74 112.5 81 c 128,-1,12
 133 88 133 88 133 110 c 2,13,-1
 133 600 l 2,14,15
 133 622 133 622 112.5 629 c 128,-1,16
 92 636 92 636 65 636 c 2,17,-1
 55 636 l 1,18,-1
 55 710 l 1,19,-1
 563 710 l 1,20,-1
 563 473 l 1,21,-1
 491 473 l 1,22,-1
 480 578 l 2,23,24
 477 601 477 601 466.5 614 c 128,-1,25
 456 627 456 627 433 632 c 128,-1,26
 410 637 410 637 371 637 c 2,27,-1
 232 637 l 1,0,-1
EndSplineSet
EndChar

StartChar: Decyr
Encoding: 1044 1044 261
Width: 771
GlyphClass: 2
Flags: W
AnchorPoint: "Anchor-0" 417 741 basechar 0
LayerCount: 2
Fore
SplineSet
234 710 m 1,0,-1
 582 710 l 1,1,-1
 582 635 l 1,2,-1
 234 635 l 1,3,-1
 234 710 l 1,0,-1
638 4 m 1,4,-1
 539 4 l 1,5,-1
 539 710 l 1,6,-1
 716 710 l 1,7,-1
 716 636 l 1,8,-1
 706 636 l 2,9,10
 677 636 677 636 657.5 629 c 128,-1,11
 638 622 638 622 638 600 c 2,12,-1
 638 4 l 1,4,-1
642 -54 m 2,13,14
 641 -35 641 -35 629 -23 c 128,-1,15
 617 -11 617 -11 591 -5.5 c 128,-1,16
 565 0 565 0 522 0 c 2,17,-1
 232 0 l 2,18,19
 189 0 189 0 163 -5.5 c 128,-1,20
 137 -11 137 -11 125 -23 c 128,-1,21
 113 -35 113 -35 111 -53 c 2,22,-1
 99 -184 l 1,23,-1
 28 -184 l 1,24,-1
 28 75 l 1,25,-1
 726 75 l 1,26,-1
 726 -184 l 1,27,-1
 654 -184 l 1,28,-1
 642 -54 l 2,13,14
168 31 m 1,29,-1
 72 31 l 1,30,31
 93 57 93 57 109 87 c 128,-1,32
 125 117 125 117 136.5 155 c 128,-1,33
 148 193 148 193 156.5 245.5 c 128,-1,34
 165 298 165 298 171 369 c 2,35,-1
 191 600 l 2,36,37
 193 622 193 622 173.5 629 c 128,-1,38
 154 636 154 636 126 636 c 2,39,-1
 116 636 l 1,40,-1
 116 710 l 1,41,-1
 284 710 l 1,42,-1
 255 367 l 2,43,44
 248 274 248 274 236.5 211.5 c 128,-1,45
 225 149 225 149 208.5 106 c 128,-1,46
 192 63 192 63 168 31 c 1,29,-1
EndSplineSet
Substitution2: "'locl' Localized Forms in Cyrillic lookup 12 subtable" De.bgr
EndChar

StartChar: Zhecyr
Encoding: 1046 1046 266
Width: 1044
GlyphClass: 2
Flags: W
AnchorPoint: "Anchor-1" 512 0 basechar 0
AnchorPoint: "Anchor-0" 512 741 basechar 0
LayerCount: 2
Fore
SplineSet
745 0 m 1,0,-1
 745 74 l 1,1,-1
 753 74 l 2,2,3
 772 74 772 74 788.5 75 c 128,-1,4
 805 76 805 76 816 78.5 c 128,-1,5
 827 81 827 81 827 84 c 2,6,-1
 612 346 l 1,7,-1
 612 372 l 1,8,-1
 837 625 l 2,9,10
 837 629 837 629 826.5 631 c 128,-1,11
 816 633 816 633 799.5 634.5 c 128,-1,12
 783 636 783 636 767 636 c 2,13,-1
 758 636 l 1,14,-1
 758 710 l 1,15,-1
 996 710 l 1,16,-1
 996 636 l 1,17,-1
 970 636 l 2,18,19
 959 636 959 636 949.5 634 c 128,-1,20
 940 632 940 632 930.5 625.5 c 128,-1,21
 921 619 921 619 912 607 c 2,22,-1
 686 355 l 1,23,-1
 690 397 l 1,24,-1
 939 95 l 2,25,26
 947 86 947 86 956.5 81 c 128,-1,27
 966 76 966 76 977 75 c 128,-1,28
 988 74 988 74 1000 74 c 2,29,-1
 1020 74 l 1,30,-1
 1020 0 l 1,31,-1
 745 0 l 1,0,-1
295 0 m 1,32,-1
 24 0 l 1,33,-1
 24 74 l 1,34,-1
 43 74 l 2,35,36
 56 74 56 74 67 75 c 128,-1,37
 78 76 78 76 87.5 81 c 128,-1,38
 97 86 97 86 105 95 c 2,39,-1
 354 397 l 1,40,-1
 351 355 l 1,41,-1
 126 607 l 2,42,43
 116 619 116 619 106.5 625 c 128,-1,44
 97 631 97 631 88 633.5 c 128,-1,45
 79 636 79 636 68 636 c 2,46,-1
 42 636 l 1,47,-1
 42 710 l 1,48,-1
 282 710 l 1,49,-1
 282 636 l 1,50,-1
 273 636 l 2,51,52
 256 636 256 636 239.5 634.5 c 128,-1,53
 223 633 223 633 212.5 631 c 128,-1,54
 202 629 202 629 202 625 c 2,55,-1
 428 372 l 1,56,-1
 428 346 l 1,57,-1
 213 84 l 2,58,59
 213 81 213 81 224 78.5 c 128,-1,60
 235 76 235 76 252 75 c 128,-1,61
 269 74 269 74 286 74 c 2,62,-1
 295 74 l 1,63,-1
 295 0 l 1,32,-1
391 0 m 1,64,-1
 391 74 l 1,65,-1
 399 74 l 2,66,67
 410 74 410 74 422.5 74.5 c 128,-1,68
 435 75 435 75 446 76.5 c 128,-1,69
 457 78 457 78 463.5 79.5 c 128,-1,70
 470 81 470 81 470 84 c 2,71,-1
 470 627 l 2,72,73
 470 629 470 629 463.5 630.5 c 128,-1,74
 457 632 457 632 446 633.5 c 128,-1,75
 435 635 435 635 422.5 635.5 c 128,-1,76
 410 636 410 636 398 636 c 2,77,-1
 390 636 l 1,78,-1
 390 710 l 1,79,-1
 650 710 l 1,80,-1
 650 636 l 1,81,-1
 642 636 l 2,82,83
 630 636 630 636 617 635.5 c 128,-1,84
 604 635 604 635 593.5 633.5 c 128,-1,85
 583 632 583 632 576 630.5 c 128,-1,86
 569 629 569 629 569 626 c 2,87,-1
 569 83 l 2,88,89
 569 81 569 81 575.5 79.5 c 128,-1,90
 582 78 582 78 593 76.5 c 128,-1,91
 604 75 604 75 617 74.5 c 128,-1,92
 630 74 630 74 641 74 c 2,93,-1
 649 74 l 1,94,-1
 649 0 l 1,95,-1
 391 0 l 1,64,-1
EndSplineSet
EndChar

StartChar: Zecyr
Encoding: 1047 1047 269
Width: 669
GlyphClass: 2
Flags: W
AnchorPoint: "Anchor-1" 362 0 basechar 0
AnchorPoint: "Anchor-0" 362 741 basechar 0
LayerCount: 2
Fore
SplineSet
379 -24 m 0,0,1
 309 -24 309 -24 260 0.5 c 128,-1,2
 211 25 211 25 183 75 c 128,-1,3
 155 125 155 125 148 201 c 1,4,-1
 169 166 l 1,5,-1
 155 -10 l 1,6,-1
 81 -10 l 1,7,-1
 81 237 l 1,8,-1
 162 237 l 1,9,10
 179 180 179 180 207 138 c 128,-1,11
 235 96 235 96 276.5 73.5 c 128,-1,12
 318 51 318 51 375 51 c 0,13,14
 420 51 420 51 449 67 c 128,-1,15
 478 83 478 83 491.5 114 c 128,-1,16
 505 145 505 145 505 189 c 0,17,18
 505 228 505 228 492 258.5 c 128,-1,19
 479 289 479 289 447 306 c 128,-1,20
 415 323 415 323 358 321 c 0,21,22
 344 320 344 320 328.5 319.5 c 128,-1,23
 313 319 313 319 298.5 318.5 c 128,-1,24
 284 318 284 318 271 317 c 1,25,-1
 271 413 l 1,26,27
 285 412 285 412 299.5 411.5 c 128,-1,28
 314 411 314 411 329 410.5 c 128,-1,29
 344 410 344 410 359 410 c 0,30,31
 404 408 404 408 432 424.5 c 128,-1,32
 460 441 460 441 472 471 c 128,-1,33
 484 501 484 501 484 540 c 0,34,35
 484 576 484 576 473 603 c 128,-1,36
 462 630 462 630 438.5 645 c 128,-1,37
 415 660 415 660 374 660 c 0,38,39
 323 660 323 660 283.5 639 c 128,-1,40
 244 618 244 618 216.5 576.5 c 128,-1,41
 189 535 189 535 172 473 c 1,42,-1
 91 473 l 1,43,-1
 91 720 l 1,44,-1
 165 720 l 1,45,-1
 179 545 l 1,46,-1
 158 509 l 1,47,48
 163 565 163 565 180 607.5 c 128,-1,49
 197 650 197 650 225.5 678 c 128,-1,50
 254 706 254 706 292 720 c 128,-1,51
 330 734 330 734 377 734 c 0,52,53
 446 734 446 734 493 710 c 128,-1,54
 540 686 540 686 563.5 644 c 128,-1,55
 587 602 587 602 587 548 c 0,56,57
 587 496 587 496 562.5 457 c 128,-1,58
 538 418 538 418 498 395.5 c 128,-1,59
 458 373 458 373 410 370 c 1,60,-1
 418 389 l 1,61,-1
 418 344 l 1,62,-1
 410 367 l 1,63,64
 470 365 470 365 515 342.5 c 128,-1,65
 560 320 560 320 584.5 280.5 c 128,-1,66
 609 241 609 241 609 187 c 0,67,68
 609 139 609 139 593.5 100.5 c 128,-1,69
 578 62 578 62 548.5 34 c 128,-1,70
 519 6 519 6 476.5 -9 c 128,-1,71
 434 -24 434 -24 379 -24 c 0,0,1
EndSplineSet
EndChar

StartChar: Icyr
Encoding: 1048 1048 270
Width: 811
GlyphClass: 2
Flags: W
AnchorPoint: "Anchor-0" 406 741 basechar 0
LayerCount: 2
Fore
SplineSet
185 184 m 1,0,-1
 579 588 l 1,1,-1
 626 536 l 1,2,-1
 232 132 l 1,3,-1
 185 184 l 1,0,-1
55 0 m 1,4,-1
 55 74 l 1,5,-1
 65 74 l 2,6,7
 92 74 92 74 112.5 81 c 128,-1,8
 133 88 133 88 133 110 c 2,9,-1
 133 600 l 2,10,11
 133 622 133 622 112.5 629 c 128,-1,12
 92 636 92 636 65 636 c 2,13,-1
 55 636 l 1,14,-1
 55 710 l 1,15,-1
 318 710 l 1,16,-1
 318 636 l 1,17,-1
 309 636 l 2,18,19
 292 636 292 636 274.5 635 c 128,-1,20
 257 634 257 634 244.5 632 c 128,-1,21
 232 630 232 630 232 626 c 2,22,-1
 232 83 l 2,23,24
 232 81 232 81 244.5 78.5 c 128,-1,25
 257 76 257 76 274.5 75 c 128,-1,26
 292 74 292 74 309 74 c 2,27,-1
 318 74 l 1,28,-1
 318 0 l 1,29,-1
 55 0 l 1,4,-1
493 0 m 1,30,-1
 493 74 l 1,31,-1
 501 74 l 2,32,33
 518 74 518 74 536 75 c 128,-1,34
 554 76 554 76 566.5 78.5 c 128,-1,35
 579 81 579 81 579 84 c 2,36,-1
 579 627 l 2,37,38
 579 630 579 630 566.5 632 c 128,-1,39
 554 634 554 634 536 635 c 128,-1,40
 518 636 518 636 501 636 c 2,41,-1
 493 636 l 1,42,-1
 493 710 l 1,43,-1
 756 710 l 1,44,-1
 756 636 l 1,45,-1
 746 636 l 2,46,47
 719 636 719 636 698.5 629 c 128,-1,48
 678 622 678 622 678 600 c 2,49,-1
 678 110 l 2,50,51
 678 88 678 88 698.5 81 c 128,-1,52
 719 74 719 74 746 74 c 2,53,-1
 756 74 l 1,54,-1
 756 0 l 1,55,-1
 493 0 l 1,30,-1
EndSplineSet
EndChar

StartChar: Elcyr
Encoding: 1051 1051 276
Width: 758
GlyphClass: 2
Flags: W
AnchorPoint: "Anchor-0" 417 741 basechar 0
LayerCount: 2
Fore
SplineSet
236 710 m 1,0,-1
 576 710 l 1,1,-1
 576 635 l 1,2,-1
 236 635 l 1,3,-1
 236 710 l 1,0,-1
441 0 m 1,4,-1
 441 74 l 1,5,-1
 449 74 l 2,6,7
 466 74 466 74 483.5 75 c 128,-1,8
 501 76 501 76 513.5 78.5 c 128,-1,9
 526 81 526 81 526 84 c 2,10,-1
 526 710 l 1,11,-1
 703 710 l 1,12,-1
 703 636 l 1,13,-1
 693 636 l 2,14,15
 666 636 666 636 645.5 629 c 128,-1,16
 625 622 625 622 625 600 c 2,17,-1
 625 110 l 2,18,19
 625 88 625 88 645.5 81 c 128,-1,20
 666 74 666 74 692 74 c 2,21,-1
 703 74 l 1,22,-1
 703 0 l 1,23,-1
 441 0 l 1,4,-1
170 272 m 2,24,-1
 194 600 l 2,25,26
 196 622 196 622 176.5 629 c 128,-1,27
 157 636 157 636 129 636 c 2,28,-1
 119 636 l 1,29,-1
 119 710 l 1,30,-1
 286 710 l 1,31,-1
 254 268 l 2,32,33
 247 167 247 167 224.5 104.5 c 128,-1,34
 202 42 202 42 165 13.5 c 128,-1,35
 128 -15 128 -15 74 -15 c 0,36,37
 55 -15 55 -15 39 -10.5 c 128,-1,38
 23 -6 23 -6 13 0 c 1,39,-1
 13 94 l 1,40,41
 21 89 21 89 36.5 84 c 128,-1,42
 52 79 52 79 71 79 c 0,43,44
 99 79 99 79 119 98.5 c 128,-1,45
 139 118 139 118 152 160.5 c 128,-1,46
 165 203 165 203 170 272 c 2,24,-1
EndSplineSet
Substitution2: "'locl' Localized Forms in Cyrillic lookup 12 subtable" El.bgr
EndChar

StartChar: Pecyr
Encoding: 1055 1055 281
Width: 788
GlyphClass: 2
Flags: W
AnchorPoint: "Anchor-0" 394 741 basechar 0
LayerCount: 2
Fore
SplineSet
195 710 m 1,0,-1
 593 710 l 1,1,-1
 593 635 l 1,2,-1
 195 635 l 1,3,-1
 195 710 l 1,0,-1
55 0 m 1,4,-1
 55 74 l 1,5,-1
 65 74 l 2,6,7
 92 74 92 74 112.5 81 c 128,-1,8
 133 88 133 88 133 110 c 2,9,-1
 133 600 l 2,10,11
 133 622 133 622 112.5 629 c 128,-1,12
 92 636 92 636 65 636 c 2,13,-1
 55 636 l 1,14,-1
 55 710 l 1,15,-1
 232 710 l 1,16,-1
 232 84 l 2,17,18
 232 81 232 81 244.5 78.5 c 128,-1,19
 257 76 257 76 274.5 75 c 128,-1,20
 292 74 292 74 309 74 c 2,21,-1
 318 74 l 1,22,-1
 318 0 l 1,23,-1
 55 0 l 1,4,-1
470 0 m 1,24,-1
 470 74 l 1,25,-1
 478 74 l 2,26,27
 495 74 495 74 513 75 c 128,-1,28
 531 76 531 76 543.5 78.5 c 128,-1,29
 556 81 556 81 556 84 c 2,30,-1
 556 710 l 1,31,-1
 733 710 l 1,32,-1
 733 636 l 1,33,-1
 723 636 l 2,34,35
 696 636 696 636 675.5 629 c 128,-1,36
 655 622 655 622 655 600 c 2,37,-1
 655 110 l 2,38,39
 655 88 655 88 675.5 81 c 128,-1,40
 696 74 696 74 723 74 c 2,41,-1
 733 74 l 1,42,-1
 733 0 l 1,43,-1
 470 0 l 1,24,-1
EndSplineSet
EndChar

StartChar: Ucyr
Encoding: 1059 1059 285
Width: 655
GlyphClass: 2
Flags: W
AnchorPoint: "Anchor-1" 216 0 basechar 0
AnchorPoint: "Anchor-0" 334 741 basechar 0
LayerCount: 2
Fore
SplineSet
388 200 m 2,0,1
 362 141 362 141 339.5 99.5 c 128,-1,2
 317 58 317 58 295 32 c 128,-1,3
 273 6 273 6 247.5 -6.5 c 128,-1,4
 222 -19 222 -19 191 -19 c 0,5,6
 168 -19 168 -19 152 -14 c 128,-1,7
 136 -9 136 -9 125 -2 c 1,8,-1
 125 91 l 1,9,10
 133 86 133 86 150.5 80 c 128,-1,11
 168 74 168 74 187 74 c 0,12,13
 215 74 215 74 237 87.5 c 128,-1,14
 259 101 259 101 280 133 c 128,-1,15
 301 165 301 165 324 222 c 2,16,-1
 485 613 l 2,17,18
 485 620 485 620 476.5 625 c 128,-1,19
 468 630 468 630 455 633 c 128,-1,20
 442 636 442 636 430 636 c 2,21,-1
 421 636 l 1,22,-1
 421 710 l 1,23,-1
 629 710 l 1,24,-1
 629 636 l 1,25,-1
 618 636 l 2,26,27
 604 636 604 636 592.5 631 c 128,-1,28
 581 626 581 626 571.5 615 c 128,-1,29
 562 604 562 604 554 586 c 2,30,-1
 388 200 l 2,0,1
359 220 m 1,31,-1
 300 134 l 1,32,-1
 96 596 l 2,33,34
 89 613 89 613 81 621.5 c 128,-1,35
 73 630 73 630 62.5 633 c 128,-1,36
 52 636 52 636 37 636 c 2,37,-1
 26 636 l 1,38,-1
 26 710 l 1,39,-1
 260 710 l 1,40,-1
 260 636 l 1,41,-1
 246 636 l 2,42,43
 231 636 231 636 216.5 634.5 c 128,-1,44
 202 633 202 633 191.5 631 c 128,-1,45
 181 629 181 629 181 625 c 2,46,-1
 359 220 l 1,31,-1
EndSplineSet
EndChar

StartChar: Efcyr
Encoding: 1060 1060 290
Width: 856
GlyphClass: 2
Flags: W
AnchorPoint: "Anchor-1" 428 0 basechar 0
AnchorPoint: "Anchor-0" 428 741 basechar 0
LayerCount: 2
Fore
SplineSet
382 85 m 2,0,-1
 382 625 l 2,1,2
 382 647 382 647 360.5 654 c 128,-1,3
 339 661 339 661 306 661 c 2,4,-1
 288 661 l 1,5,-1
 288 735 l 1,6,-1
 567 735 l 1,7,-1
 567 661 l 1,8,-1
 549 661 l 2,9,10
 516 661 516 661 495 654 c 128,-1,11
 474 647 474 647 474 625 c 2,12,-1
 474 85 l 2,13,14
 474 63 474 63 495 56 c 128,-1,15
 516 49 516 49 549 49 c 2,16,-1
 567 49 l 1,17,-1
 567 -25 l 1,18,-1
 288 -25 l 1,19,-1
 288 49 l 1,20,-1
 306 49 l 2,21,22
 339 49 339 49 360.5 56 c 128,-1,23
 382 63 382 63 382 85 c 2,0,-1
390 613 m 1,24,-1
 390 538 l 1,25,26
 305 538 305 538 252.5 517.5 c 128,-1,27
 200 497 200 497 177 457.5 c 128,-1,28
 154 418 154 418 154 360 c 0,29,30
 154 303 154 303 177 263 c 128,-1,31
 200 223 200 223 252.5 203 c 128,-1,32
 305 183 305 183 390 183 c 1,33,-1
 390 108 l 1,34,35
 276 108 276 108 199.5 138.5 c 128,-1,36
 123 169 123 169 85.5 226 c 128,-1,37
 48 283 48 283 48 360 c 0,38,39
 48 438 48 438 86 494.5 c 128,-1,40
 124 551 124 551 200.5 582 c 128,-1,41
 277 613 277 613 390 613 c 1,24,-1
466 108 m 1,42,-1
 466 183 l 1,43,44
 552 183 552 183 604 203 c 128,-1,45
 656 223 656 223 679 263 c 128,-1,46
 702 303 702 303 702 360 c 0,47,48
 702 418 702 418 679 457.5 c 128,-1,49
 656 497 656 497 604 517.5 c 128,-1,50
 552 538 552 538 466 538 c 1,51,-1
 466 613 l 1,52,53
 580 613 580 613 656.5 582 c 128,-1,54
 733 551 733 551 770.5 494.5 c 128,-1,55
 808 438 808 438 808 360 c 0,56,57
 808 283 808 283 770 226 c 128,-1,58
 732 169 732 169 655.5 138.5 c 128,-1,59
 579 108 579 108 466 108 c 1,42,-1
EndSplineSet
EndChar

StartChar: Tsecyr
Encoding: 1062 1062 292
Width: 788
GlyphClass: 2
Flags: W
AnchorPoint: "Anchor-0" 394 741 basechar 0
LayerCount: 2
Fore
SplineSet
198 0 m 1,0,-1
 198 75 l 1,1,-1
 588 75 l 1,2,-1
 588 0 l 1,3,-1
 198 0 l 1,0,-1
55 710 m 1,4,-1
 317 710 l 1,5,-1
 317 636 l 1,6,-1
 309 636 l 2,7,8
 292 636 292 636 274.5 635 c 128,-1,9
 257 634 257 634 244.5 632 c 128,-1,10
 232 630 232 630 232 626 c 2,11,-1
 232 0 l 1,12,-1
 55 0 l 1,13,-1
 55 74 l 1,14,-1
 65 74 l 2,15,16
 92 74 92 74 112.5 81 c 128,-1,17
 133 88 133 88 133 110 c 2,18,-1
 133 600 l 2,19,20
 133 622 133 622 112.5 629 c 128,-1,21
 92 636 92 636 65 636 c 2,22,-1
 55 636 l 1,23,-1
 55 710 l 1,4,-1
470 710 m 1,24,-1
 733 710 l 1,25,-1
 733 636 l 1,26,-1
 723 636 l 2,27,28
 696 636 696 636 675.5 629 c 128,-1,29
 655 622 655 622 655 600 c 2,30,-1
 655 0 l 1,31,-1
 556 0 l 1,32,-1
 556 626 l 2,33,34
 556 630 556 630 543.5 632 c 128,-1,35
 531 634 531 634 513 635 c 128,-1,36
 495 636 495 636 478 636 c 2,37,-1
 470 636 l 1,38,-1
 470 710 l 1,24,-1
511 0 m 1,39,-1
 511 75 l 1,40,-1
 743 75 l 1,41,-1
 743 -184 l 1,42,-1
 671 -184 l 1,43,-1
 659 -54 l 2,44,45
 657 -35 657 -35 645 -23 c 128,-1,46
 633 -11 633 -11 607 -5.5 c 128,-1,47
 581 0 581 0 537 0 c 2,48,-1
 511 0 l 1,39,-1
EndSplineSet
EndChar

StartChar: Checyr
Encoding: 1063 1063 293
Width: 752
GlyphClass: 2
Flags: W
AnchorPoint: "Anchor-0" 368 741 basechar 0
LayerCount: 2
Fore
SplineSet
435 0 m 1,0,-1
 435 74 l 1,1,-1
 443 74 l 2,2,3
 460 74 460 74 477.5 75 c 128,-1,4
 495 76 495 76 507.5 78.5 c 128,-1,5
 520 81 520 81 520 84 c 2,6,-1
 520 627 l 2,7,8
 520 630 520 630 507.5 632 c 128,-1,9
 495 634 495 634 477 635 c 128,-1,10
 459 636 459 636 443 636 c 2,11,-1
 435 636 l 1,12,-1
 435 710 l 1,13,-1
 697 710 l 1,14,-1
 697 636 l 1,15,-1
 687 636 l 2,16,17
 660 636 660 636 639.5 629 c 128,-1,18
 619 622 619 622 619 600 c 2,19,-1
 619 110 l 2,20,21
 619 88 619 88 639.5 81 c 128,-1,22
 660 74 660 74 687 74 c 2,23,-1
 697 74 l 1,24,-1
 697 0 l 1,25,-1
 435 0 l 1,0,-1
349 273 m 0,26,27
 265 273 265 273 213 293 c 128,-1,28
 161 313 161 313 137 358.5 c 128,-1,29
 113 404 113 404 113 480 c 2,30,-1
 113 600 l 2,31,32
 113 622 113 622 92.5 629 c 128,-1,33
 72 636 72 636 45 636 c 2,34,-1
 35 636 l 1,35,-1
 35 710 l 1,36,-1
 298 710 l 1,37,-1
 298 636 l 1,38,-1
 289 636 l 2,39,40
 272 636 272 636 254.5 635 c 128,-1,41
 237 634 237 634 224.5 632 c 128,-1,42
 212 630 212 630 212 626 c 2,43,-1
 212 485 l 2,44,45
 212 436 212 436 226 405.5 c 128,-1,46
 240 375 240 375 270 361.5 c 128,-1,47
 300 348 300 348 352 348 c 0,48,49
 402 348 402 348 455.5 358 c 128,-1,50
 509 368 509 368 553 394 c 1,51,-1
 553 319 l 1,52,53
 507 295 507 295 453.5 284 c 128,-1,54
 400 273 400 273 349 273 c 0,26,27
EndSplineSet
EndChar

StartChar: Shacyr
Encoding: 1064 1064 294
Width: 1088
GlyphClass: 2
Flags: W
AnchorPoint: "Anchor-0" 533 741 basechar 0
LayerCount: 2
Fore
SplineSet
885 0 m 1,0,-1
 202 0 l 1,1,-1
 202 75 l 1,2,-1
 885 75 l 1,3,-1
 885 0 l 1,0,-1
1033 710 m 1,4,-1
 1033 636 l 1,5,-1
 1023 636 l 2,6,7
 996 636 996 636 975.5 629 c 128,-1,8
 955 622 955 622 955 600 c 2,9,-1
 955 110 l 2,10,11
 955 88 955 88 975.5 81 c 128,-1,12
 996 74 996 74 1023 74 c 2,13,-1
 1033 74 l 1,14,-1
 1033 0 l 1,15,-1
 856 0 l 1,16,-1
 856 626 l 2,17,18
 856 630 856 630 843.5 632 c 128,-1,19
 831 634 831 634 813 635 c 128,-1,20
 795 636 795 636 778 636 c 2,21,-1
 770 636 l 1,22,-1
 770 710 l 1,23,-1
 1033 710 l 1,4,-1
318 710 m 1,24,-1
 318 636 l 1,25,-1
 309 636 l 2,26,27
 293 636 293 636 275 635 c 128,-1,28
 257 634 257 634 244.5 632 c 128,-1,29
 232 630 232 630 232 626 c 2,30,-1
 232 0 l 1,31,-1
 55 0 l 1,32,-1
 55 74 l 1,33,-1
 65 74 l 2,34,35
 92 74 92 74 112.5 81 c 128,-1,36
 133 88 133 88 133 110 c 2,37,-1
 133 600 l 2,38,39
 133 622 133 622 112.5 629 c 128,-1,40
 92 636 92 636 65 636 c 2,41,-1
 55 636 l 1,42,-1
 55 710 l 1,43,-1
 318 710 l 1,24,-1
413 710 m 1,44,-1
 675 710 l 1,45,-1
 675 636 l 1,46,-1
 667 636 l 2,47,48
 651 636 651 636 634 635 c 128,-1,49
 617 634 617 634 605 632 c 128,-1,50
 593 630 593 630 593 626 c 2,51,-1
 593 0 l 1,52,-1
 494 0 l 1,53,-1
 494 626 l 2,54,55
 494 630 494 630 482 632 c 128,-1,56
 470 634 470 634 453.5 635 c 128,-1,57
 437 636 437 636 421 636 c 2,58,-1
 413 636 l 1,59,-1
 413 710 l 1,44,-1
EndSplineSet
EndChar

StartChar: Shchacyr
Encoding: 1065 1065 295
Width: 1088
GlyphClass: 2
Flags: W
AnchorPoint: "Anchor-0" 533 741 basechar 0
LayerCount: 2
Fore
SplineSet
893 0 m 1,0,-1
 202 0 l 1,1,-1
 202 75 l 1,2,-1
 893 75 l 1,3,-1
 893 0 l 1,0,-1
317 710 m 1,4,-1
 317 636 l 1,5,-1
 309 636 l 2,6,7
 292 636 292 636 274.5 635 c 128,-1,8
 257 634 257 634 244.5 632 c 128,-1,9
 232 630 232 630 232 626 c 2,10,-1
 232 0 l 1,11,-1
 55 0 l 1,12,-1
 55 74 l 1,13,-1
 65 74 l 2,14,15
 92 74 92 74 112.5 81 c 128,-1,16
 133 88 133 88 133 110 c 2,17,-1
 133 600 l 2,18,19
 133 622 133 622 112.5 629 c 128,-1,20
 92 636 92 636 65 636 c 2,21,-1
 55 636 l 1,22,-1
 55 710 l 1,23,-1
 317 710 l 1,4,-1
770 710 m 1,24,-1
 1033 710 l 1,25,-1
 1033 636 l 1,26,-1
 1023 636 l 2,27,28
 996 636 996 636 975.5 629 c 128,-1,29
 955 622 955 622 955 600 c 2,30,-1
 955 0 l 1,31,-1
 856 0 l 1,32,-1
 856 626 l 2,33,34
 856 630 856 630 843.5 632 c 128,-1,35
 831 634 831 634 813 635 c 128,-1,36
 795 636 795 636 778 636 c 2,37,-1
 770 636 l 1,38,-1
 770 710 l 1,24,-1
838 0 m 2,39,-1
 811 0 l 1,40,-1
 811 75 l 1,41,-1
 1043 75 l 1,42,-1
 1043 -184 l 1,43,-1
 971 -184 l 1,44,-1
 959 -54 l 2,45,46
 957 -35 957 -35 945 -23 c 128,-1,47
 933 -11 933 -11 907 -5.5 c 128,-1,48
 881 0 881 0 838 0 c 2,39,-1
413 710 m 1,49,-1
 675 710 l 1,50,-1
 675 636 l 1,51,-1
 667 636 l 2,52,53
 651 636 651 636 634 635 c 128,-1,54
 617 634 617 634 605 632 c 128,-1,55
 593 630 593 630 593 626 c 2,56,-1
 593 0 l 1,57,-1
 494 0 l 1,58,-1
 494 626 l 2,59,60
 494 630 494 630 482 632 c 128,-1,61
 470 634 470 634 453.5 635 c 128,-1,62
 437 636 437 636 421 636 c 2,63,-1
 413 636 l 1,64,-1
 413 710 l 1,49,-1
EndSplineSet
EndChar

StartChar: Hardcyr
Encoding: 1066 1066 296
Width: 763
GlyphClass: 2
Flags: W
AnchorPoint: "Anchor-0" 267 741 basechar 0
LayerCount: 2
Fore
SplineSet
480 0 m 2,0,-1
 176 0 l 1,1,-1
 176 74 l 1,2,-1
 186 74 l 2,3,4
 214 74 214 74 235 81 c 128,-1,5
 256 88 256 88 256 110 c 2,6,-1
 256 637 l 1,7,-1
 231 637 l 2,8,9
 192 637 192 637 171.5 631 c 128,-1,10
 151 625 151 625 142.5 612 c 128,-1,11
 134 599 134 599 132 579 c 2,12,-1
 121 473 l 1,13,-1
 49 473 l 1,14,-1
 49 710 l 1,15,-1
 456 710 l 1,16,-1
 456 636 l 1,17,-1
 438 636 l 2,18,19
 416 636 416 636 397 635 c 128,-1,20
 378 634 378 634 366.5 632 c 128,-1,21
 355 630 355 630 355 626 c 2,22,-1
 355 73 l 1,23,-1
 478 73 l 2,24,25
 522 73 522 73 551 89 c 128,-1,26
 580 105 580 105 594 136.5 c 128,-1,27
 608 168 608 168 608 215 c 0,28,29
 608 264 608 264 594 296.5 c 128,-1,30
 580 329 580 329 551 345 c 128,-1,31
 522 361 522 361 478 361 c 2,32,-1
 302 361 l 1,33,-1
 302 434 l 1,34,-1
 480 434 l 2,35,36
 551 434 551 434 603 410.5 c 128,-1,37
 655 387 655 387 683.5 338.5 c 128,-1,38
 712 290 712 290 712 215 c 0,39,40
 712 147 712 147 682 98.5 c 128,-1,41
 652 50 652 50 600 25 c 128,-1,42
 548 0 548 0 480 0 c 2,0,-1
EndSplineSet
EndChar

StartChar: Ylongcyr
Encoding: 1067 1067 297
Width: 942
GlyphClass: 2
Flags: W
AnchorPoint: "Anchor-1" 462 0 basechar 0
AnchorPoint: "Anchor-0" 462 741 basechar 0
LayerCount: 2
Fore
SplineSet
710 84 m 2,0,-1
 710 627 l 2,1,2
 710 630 710 630 697.5 632 c 128,-1,3
 685 634 685 634 667.5 635 c 128,-1,4
 650 636 650 636 633 636 c 2,5,-1
 625 636 l 1,6,-1
 625 710 l 1,7,-1
 887 710 l 1,8,-1
 887 636 l 1,9,-1
 877 636 l 2,10,11
 847 636 847 636 828 629 c 128,-1,12
 809 622 809 622 809 600 c 2,13,-1
 809 110 l 2,14,15
 809 88 809 88 828 81 c 128,-1,16
 847 74 847 74 877 74 c 2,17,-1
 887 74 l 1,18,-1
 887 0 l 1,19,-1
 625 0 l 1,20,-1
 625 74 l 1,21,-1
 633 74 l 2,22,23
 650 74 650 74 668 75 c 128,-1,24
 686 76 686 76 698 78.5 c 128,-1,25
 710 81 710 81 710 84 c 2,0,-1
359 0 m 2,26,-1
 55 0 l 1,27,-1
 55 74 l 1,28,-1
 65 74 l 2,29,30
 92 74 92 74 112.5 81 c 128,-1,31
 133 88 133 88 133 110 c 2,32,-1
 133 600 l 2,33,34
 133 622 133 622 112.5 629 c 128,-1,35
 92 636 92 636 65 636 c 2,36,-1
 55 636 l 1,37,-1
 55 710 l 1,38,-1
 335 710 l 1,39,-1
 335 636 l 1,40,-1
 317 636 l 2,41,42
 295 636 295 636 276 635 c 128,-1,43
 257 634 257 634 245 632 c 128,-1,44
 233 630 233 630 233 626 c 2,45,-1
 233 73 l 1,46,-1
 357 73 l 2,47,48
 401 73 401 73 430 89 c 128,-1,49
 459 105 459 105 473 136.5 c 128,-1,50
 487 168 487 168 487 215 c 0,51,52
 487 264 487 264 473 296.5 c 128,-1,53
 459 329 459 329 430 345 c 128,-1,54
 401 361 401 361 357 361 c 2,55,-1
 197 361 l 1,56,-1
 197 434 l 1,57,-1
 360 434 l 2,58,59
 430 434 430 434 482 410.5 c 128,-1,60
 534 387 534 387 562.5 338.5 c 128,-1,61
 591 290 591 290 591 215 c 0,62,63
 591 147 591 147 561 98.5 c 128,-1,64
 531 50 531 50 479 25 c 128,-1,65
 427 0 427 0 359 0 c 2,26,-1
EndSplineSet
EndChar

StartChar: Softcyr
Encoding: 1068 1068 298
Width: 642
GlyphClass: 2
Flags: W
AnchorPoint: "Anchor-0" 186 741 basechar 0
LayerCount: 2
Fore
SplineSet
359 0 m 2,0,-1
 55 0 l 1,1,-1
 55 74 l 1,2,-1
 65 74 l 2,3,4
 92 74 92 74 112.5 81 c 128,-1,5
 133 88 133 88 133 110 c 2,6,-1
 133 600 l 2,7,8
 133 622 133 622 112.5 629 c 128,-1,9
 92 636 92 636 65 636 c 2,10,-1
 55 636 l 1,11,-1
 55 710 l 1,12,-1
 335 710 l 1,13,-1
 335 636 l 1,14,-1
 317 636 l 2,15,16
 295 636 295 636 276 635 c 128,-1,17
 257 634 257 634 245 632 c 128,-1,18
 233 630 233 630 233 626 c 2,19,-1
 233 73 l 1,20,-1
 357 73 l 2,21,22
 401 73 401 73 430 89 c 128,-1,23
 459 105 459 105 473 136.5 c 128,-1,24
 487 168 487 168 487 215 c 0,25,26
 487 264 487 264 473 296.5 c 128,-1,27
 459 329 459 329 430 345 c 128,-1,28
 401 361 401 361 357 361 c 2,29,-1
 197 361 l 1,30,-1
 197 434 l 1,31,-1
 360 434 l 2,32,33
 430 434 430 434 482 410.5 c 128,-1,34
 534 387 534 387 562.5 338.5 c 128,-1,35
 591 290 591 290 591 215 c 0,36,37
 591 147 591 147 561 98.5 c 128,-1,38
 531 50 531 50 479 25 c 128,-1,39
 427 0 427 0 359 0 c 2,0,-1
EndSplineSet
EndChar

StartChar: Ereversedcyr
Encoding: 1069 1069 299
Width: 727
GlyphClass: 2
Flags: W
AnchorPoint: "Anchor-1" 349 0 basechar 0
AnchorPoint: "Anchor-0" 349 741 basechar 0
LayerCount: 2
Fore
SplineSet
594 398 m 1,0,-1
 594 330 l 1,1,2
 554 328 554 328 513 326 c 128,-1,3
 472 324 472 324 431 322.5 c 128,-1,4
 390 321 390 321 349 319.5 c 128,-1,5
 308 318 308 318 268 316 c 1,6,-1
 268 412 l 1,7,8
 307 410 307 410 348 408.5 c 128,-1,9
 389 407 389 407 430 405 c 128,-1,10
 471 403 471 403 512.5 401.5 c 128,-1,11
 554 400 554 400 594 398 c 1,0,-1
372 -24 m 0,12,13
 308 -24 308 -24 260 1.5 c 128,-1,14
 212 27 212 27 183.5 77.5 c 128,-1,15
 155 128 155 128 148 204 c 1,16,-1
 169 168 l 1,17,-1
 155 -10 l 1,18,-1
 81 -10 l 1,19,-1
 81 240 l 1,20,-1
 162 240 l 1,21,22
 179 182 179 182 206.5 139 c 128,-1,23
 234 96 234 96 274 73 c 128,-1,24
 314 50 314 50 367 50 c 0,25,26
 418 50 418 50 455 68 c 128,-1,27
 492 86 492 86 516.5 123 c 128,-1,28
 541 160 541 160 553 218 c 128,-1,29
 565 276 565 276 565 355 c 0,30,31
 565 435 565 435 551 493 c 128,-1,32
 537 551 537 551 511 588 c 128,-1,33
 485 625 485 625 449 642.5 c 128,-1,34
 413 660 413 660 370 660 c 0,35,36
 314 660 314 660 273.5 637.5 c 128,-1,37
 233 615 233 615 205.5 573 c 128,-1,38
 178 531 178 531 162 471 c 1,39,-1
 81 471 l 1,40,-1
 81 720 l 1,41,-1
 155 720 l 1,42,-1
 169 542 l 1,43,-1
 148 507 l 1,44,45
 155 582 155 582 183.5 632.5 c 128,-1,46
 212 683 212 683 260.5 708.5 c 128,-1,47
 309 734 309 734 372 734 c 0,48,49
 437 734 437 734 491.5 710.5 c 128,-1,50
 546 687 546 687 586.5 640 c 128,-1,51
 627 593 627 593 649 522 c 128,-1,52
 671 451 671 451 671 355 c 0,53,54
 671 264 671 264 649 193.5 c 128,-1,55
 627 123 627 123 587 74.5 c 128,-1,56
 547 26 547 26 492 1 c 128,-1,57
 437 -24 437 -24 372 -24 c 0,12,13
EndSplineSet
Substitution2: "'ss01' Style Set 1 lookup 61 subtable" Ecyr.alt1
EndChar

StartChar: Yucyr
Encoding: 1070 1070 300
Width: 1034
GlyphClass: 2
Flags: W
AnchorPoint: "Anchor-1" 537 0 basechar 0
AnchorPoint: "Anchor-0" 537 741 basechar 0
LayerCount: 2
Fore
SplineSet
195 404 m 1,0,-1
 402 404 l 1,1,-1
 402 329 l 1,2,-1
 195 329 l 1,3,-1
 195 404 l 1,0,-1
55 0 m 1,4,-1
 55 74 l 1,5,-1
 65 74 l 2,6,7
 92 74 92 74 112.5 81 c 128,-1,8
 133 88 133 88 133 110 c 2,9,-1
 133 600 l 2,10,11
 133 622 133 622 112.5 629 c 128,-1,12
 92 636 92 636 65 636 c 2,13,-1
 55 636 l 1,14,-1
 55 710 l 1,15,-1
 318 710 l 1,16,-1
 318 637 l 1,17,-1
 309 637 l 2,18,19
 297 637 297 637 283.5 636 c 128,-1,20
 270 635 270 635 258.5 633.5 c 128,-1,21
 247 632 247 632 239.5 630.5 c 128,-1,22
 232 629 232 629 232 626 c 2,23,-1
 232 83 l 2,24,25
 232 81 232 81 239.5 79.5 c 128,-1,26
 247 78 247 78 258.5 76.5 c 128,-1,27
 270 75 270 75 283.5 74.5 c 128,-1,28
 297 74 297 74 309 74 c 2,29,-1
 318 74 l 1,30,-1
 318 0 l 1,31,-1
 55 0 l 1,4,-1
668 -24 m 0,32,33
 599 -24 599 -24 542 0.5 c 128,-1,34
 485 25 485 25 444 73.5 c 128,-1,35
 403 122 403 122 380.5 192.5 c 128,-1,36
 358 263 358 263 358 356 c 0,37,38
 358 448 358 448 380.5 518.5 c 128,-1,39
 403 589 403 589 444 637 c 128,-1,40
 485 685 485 685 542 709.5 c 128,-1,41
 599 734 599 734 668 734 c 0,42,43
 738 734 738 734 795 709.5 c 128,-1,44
 852 685 852 685 893 637 c 128,-1,45
 934 589 934 589 956 518.5 c 128,-1,46
 978 448 978 448 978 356 c 0,47,48
 978 263 978 263 956 192.5 c 128,-1,49
 934 122 934 122 893 73.5 c 128,-1,50
 852 25 852 25 795 0.5 c 128,-1,51
 738 -24 738 -24 668 -24 c 0,32,33
668 51 m 0,52,53
 719 51 719 51 756.5 69.5 c 128,-1,54
 794 88 794 88 820 125 c 128,-1,55
 846 162 846 162 859 219 c 128,-1,56
 872 276 872 276 872 355 c 0,57,58
 872 433 872 433 859 490.5 c 128,-1,59
 846 548 846 548 820 585.5 c 128,-1,60
 794 623 794 623 756 641 c 128,-1,61
 718 659 718 659 668 659 c 256,62,63
 618 659 618 659 579.5 641 c 128,-1,64
 541 623 541 623 515.5 585.5 c 128,-1,65
 490 548 490 548 477 490.5 c 128,-1,66
 464 433 464 433 464 355 c 256,67,68
 464 277 464 277 477 219.5 c 128,-1,69
 490 162 490 162 516 125 c 128,-1,70
 542 88 542 88 580 69.5 c 128,-1,71
 618 51 618 51 668 51 c 0,52,53
EndSplineSet
EndChar

StartChar: Yacyr
Encoding: 1071 1071 301
Width: 702
GlyphClass: 2
Flags: W
AnchorPoint: "Anchor-1" 351 0 basechar 0
AnchorPoint: "Anchor-0" 386 741 basechar 0
LayerCount: 2
Fore
SplineSet
340 322 m 1,0,-1
 174 0 l 1,1,-1
 30 0 l 1,2,-1
 30 74 l 1,3,-1
 39 74 l 2,4,5
 60 74 60 74 77 79 c 128,-1,6
 94 84 94 84 109 97.5 c 128,-1,7
 124 111 124 111 138 136 c 2,8,-1
 260 365 l 1,9,-1
 340 322 l 1,0,-1
470 84 m 2,10,-1
 470 637 l 1,11,-1
 344 637 l 2,12,13
 299 637 299 637 269 621.5 c 128,-1,14
 239 606 239 606 224.5 576.5 c 128,-1,15
 210 547 210 547 210 505 c 0,16,17
 210 462 210 462 224 430 c 128,-1,18
 238 398 238 398 268.5 381.5 c 128,-1,19
 299 365 299 365 348 365 c 2,20,-1
 480 365 l 1,21,-1
 480 292 l 1,22,-1
 310 292 l 1,23,-1
 286 301 l 1,24,25
 234 310 234 310 194 334.5 c 128,-1,26
 154 359 154 359 131.5 401.5 c 128,-1,27
 109 444 109 444 109 505 c 0,28,29
 109 571 109 571 136.5 616.5 c 128,-1,30
 164 662 164 662 216 686 c 128,-1,31
 268 710 268 710 339 710 c 2,32,-1
 647 710 l 1,33,-1
 647 636 l 1,34,-1
 637 636 l 2,35,36
 610 636 610 636 589.5 629 c 128,-1,37
 569 622 569 622 569 600 c 2,38,-1
 569 110 l 2,39,40
 569 88 569 88 589.5 81 c 128,-1,41
 610 74 610 74 637 74 c 2,42,-1
 647 74 l 1,43,-1
 647 0 l 1,44,-1
 367 0 l 1,45,-1
 367 74 l 1,46,-1
 385 74 l 2,47,48
 401 74 401 74 416 74.5 c 128,-1,49
 431 75 431 75 443 76.5 c 128,-1,50
 455 78 455 78 462.5 79.5 c 128,-1,51
 470 81 470 81 470 84 c 2,10,-1
EndSplineSet
EndChar

StartChar: Geupcyr
Encoding: 1168 1168 302
Width: 607
GlyphClass: 2
Flags: W
AnchorPoint: "Anchor-0" 286 741 basechar 0
LayerCount: 2
Fore
SplineSet
232 637 m 1,0,-1
 232 110 l 2,1,2
 232 96 232 96 243 88 c 128,-1,3
 254 80 254 80 272 77 c 128,-1,4
 290 74 290 74 314 74 c 2,5,-1
 335 74 l 1,6,-1
 335 0 l 1,7,-1
 55 0 l 1,8,-1
 55 74 l 1,9,-1
 65 74 l 2,10,11
 92 74 92 74 112.5 81 c 128,-1,12
 133 88 133 88 133 110 c 2,13,-1
 133 600 l 2,14,15
 133 622 133 622 112.5 629 c 128,-1,16
 92 636 92 636 65 636 c 2,17,-1
 55 636 l 1,18,-1
 55 710 l 1,19,-1
 356 710 l 2,20,21
 399 710 399 710 425.5 715 c 128,-1,22
 452 720 452 720 464.5 732.5 c 128,-1,23
 477 745 477 745 479 765 c 2,24,-1
 491 894 l 1,25,-1
 563 894 l 1,26,-1
 563 637 l 1,27,-1
 232 637 l 1,0,-1
EndSplineSet
EndChar

StartChar: Gestrokecyr
Encoding: 1170 1170 303
Width: 612
GlyphClass: 2
Flags: W
AnchorPoint: "Anchor-0" 312 741 basechar 0
LayerCount: 2
Fore
SplineSet
51 397 m 1,0,-1
 402 397 l 1,1,-1
 402 324 l 1,2,-1
 51 324 l 1,3,-1
 51 397 l 1,0,-1
232 637 m 1,4,-1
 232 110 l 2,5,6
 232 96 232 96 243 88 c 128,-1,7
 254 80 254 80 272 77 c 128,-1,8
 290 74 290 74 314 74 c 2,9,-1
 335 74 l 1,10,-1
 335 0 l 1,11,-1
 55 0 l 1,12,-1
 55 74 l 1,13,-1
 65 74 l 2,14,15
 92 74 92 74 112.5 81 c 128,-1,16
 133 88 133 88 133 110 c 2,17,-1
 133 600 l 2,18,19
 133 622 133 622 112.5 629 c 128,-1,20
 92 636 92 636 65 636 c 2,21,-1
 55 636 l 1,22,-1
 55 710 l 1,23,-1
 563 710 l 1,24,-1
 563 482 l 1,25,-1
 491 482 l 1,26,-1
 479 582 l 2,27,28
 477 604 477 604 466 616 c 128,-1,29
 455 628 455 628 432 632.5 c 128,-1,30
 409 637 409 637 371 637 c 2,31,-1
 232 637 l 1,4,-1
EndSplineSet
EndChar

StartChar: Zhetailcyr
Encoding: 1174 1174 304
Width: 1044
GlyphClass: 2
Flags: W
AnchorPoint: "Anchor-0" 512 741 basechar 0
LayerCount: 2
Fore
SplineSet
745 0 m 1,0,-1
 745 74 l 1,1,-1
 753 74 l 2,2,3
 771 74 771 74 788 75 c 128,-1,4
 805 76 805 76 816 78.5 c 128,-1,5
 827 81 827 81 827 84 c 2,6,-1
 612 346 l 1,7,-1
 612 372 l 1,8,-1
 837 625 l 2,9,10
 837 629 837 629 826.5 631 c 128,-1,11
 816 633 816 633 799.5 634.5 c 128,-1,12
 783 636 783 636 767 636 c 2,13,-1
 758 636 l 1,14,-1
 758 710 l 1,15,-1
 996 710 l 1,16,-1
 996 636 l 1,17,-1
 970 636 l 2,18,19
 959 636 959 636 949.5 634 c 128,-1,20
 940 632 940 632 930.5 625.5 c 128,-1,21
 921 619 921 619 912 607 c 2,22,-1
 686 355 l 1,23,-1
 690 397 l 1,24,-1
 956 75 l 1,25,-1
 956 0 l 1,26,-1
 745 0 l 1,0,-1
295 0 m 1,27,-1
 24 0 l 1,28,-1
 24 74 l 1,29,-1
 43 74 l 2,30,31
 56 74 56 74 67 75 c 128,-1,32
 78 76 78 76 87.5 81 c 128,-1,33
 97 86 97 86 105 95 c 2,34,-1
 354 397 l 1,35,-1
 351 355 l 1,36,-1
 126 607 l 2,37,38
 116 619 116 619 106.5 625 c 128,-1,39
 97 631 97 631 88 633.5 c 128,-1,40
 79 636 79 636 68 636 c 2,41,-1
 42 636 l 1,42,-1
 42 710 l 1,43,-1
 282 710 l 1,44,-1
 282 636 l 1,45,-1
 273 636 l 2,46,47
 256 636 256 636 239.5 634.5 c 128,-1,48
 223 633 223 633 212.5 631 c 128,-1,49
 202 629 202 629 202 625 c 2,50,-1
 428 372 l 1,51,-1
 428 346 l 1,52,-1
 213 84 l 2,53,54
 213 81 213 81 224 78.5 c 128,-1,55
 235 76 235 76 252 75 c 128,-1,56
 269 74 269 74 286 74 c 2,57,-1
 295 74 l 1,58,-1
 295 0 l 1,27,-1
825 0 m 2,59,-1
 816 0 l 1,60,-1
 831 75 l 1,61,-1
 1030 75 l 1,62,-1
 1030 -184 l 1,63,-1
 958 -184 l 1,64,-1
 946 -54 l 2,65,66
 944 -35 944 -35 932 -23 c 128,-1,67
 920 -11 920 -11 894 -5.5 c 128,-1,68
 868 0 868 0 825 0 c 2,59,-1
391 0 m 1,69,-1
 391 74 l 1,70,-1
 399 74 l 2,71,72
 410 74 410 74 422.5 74.5 c 128,-1,73
 435 75 435 75 446 76.5 c 128,-1,74
 457 78 457 78 463.5 79.5 c 128,-1,75
 470 81 470 81 470 84 c 2,76,-1
 470 627 l 2,77,78
 470 629 470 629 463.5 630.5 c 128,-1,79
 457 632 457 632 446 633.5 c 128,-1,80
 435 635 435 635 422.5 635.5 c 128,-1,81
 410 636 410 636 398 636 c 2,82,-1
 390 636 l 1,83,-1
 390 710 l 1,84,-1
 650 710 l 1,85,-1
 650 636 l 1,86,-1
 642 636 l 2,87,88
 630 636 630 636 617 635.5 c 128,-1,89
 604 635 604 635 593.5 633.5 c 128,-1,90
 583 632 583 632 576 630.5 c 128,-1,91
 569 629 569 629 569 626 c 2,92,-1
 569 83 l 2,93,94
 569 81 569 81 575.5 79.5 c 128,-1,95
 582 78 582 78 593 76.5 c 128,-1,96
 604 75 604 75 617 74.5 c 128,-1,97
 630 74 630 74 641 74 c 2,98,-1
 649 74 l 1,99,-1
 649 0 l 1,100,-1
 391 0 l 1,69,-1
EndSplineSet
EndChar

StartChar: Katailcyr
Encoding: 1178 1178 306
Width: 725
GlyphClass: 2
Flags: W
AnchorPoint: "Anchor-0" 370 741 basechar 0
LayerCount: 2
Fore
SplineSet
55 0 m 1,0,-1
 55 74 l 1,1,-1
 65 74 l 2,2,3
 92 74 92 74 112.5 81 c 128,-1,4
 133 88 133 88 133 110 c 2,5,-1
 133 600 l 2,6,7
 133 622 133 622 112.5 629 c 128,-1,8
 92 636 92 636 65 636 c 2,9,-1
 55 636 l 1,10,-1
 55 710 l 1,11,-1
 314 710 l 1,12,-1
 314 636 l 1,13,-1
 305 636 l 2,14,15
 294 636 294 636 281 635.5 c 128,-1,16
 268 635 268 635 257 633.5 c 128,-1,17
 246 632 246 632 239 630.5 c 128,-1,18
 232 629 232 629 232 626 c 2,19,-1
 232 84 l 2,20,21
 232 81 232 81 239 79.5 c 128,-1,22
 246 78 246 78 257 76.5 c 128,-1,23
 268 75 268 75 281 74.5 c 128,-1,24
 294 74 294 74 304 74 c 2,25,-1
 313 74 l 1,26,-1
 313 0 l 1,27,-1
 55 0 l 1,0,-1
424 0 m 1,28,-1
 424 74 l 1,29,-1
 431 74 l 2,30,31
 450 74 450 74 467 75 c 128,-1,32
 484 76 484 76 495 78.5 c 128,-1,33
 506 81 506 81 506 84 c 2,34,-1
 277 346 l 1,35,-1
 277 372 l 1,36,-1
 516 625 l 2,37,38
 516 629 516 629 505.5 631 c 128,-1,39
 495 633 495 633 478.5 634.5 c 128,-1,40
 462 636 462 636 446 636 c 2,41,-1
 437 636 l 1,42,-1
 437 710 l 1,43,-1
 676 710 l 1,44,-1
 676 636 l 1,45,-1
 652 636 l 2,46,47
 641 636 641 636 631.5 633.5 c 128,-1,48
 622 631 622 631 612.5 625 c 128,-1,49
 603 619 603 619 593 607 c 2,50,-1
 352 355 l 1,51,-1
 354 397 l 1,52,-1
 638 75 l 1,53,-1
 638 0 l 1,54,-1
 424 0 l 1,28,-1
506 0 m 2,55,-1
 497 0 l 1,56,-1
 512 75 l 1,57,-1
 711 75 l 1,58,-1
 711 -184 l 1,59,-1
 639 -184 l 1,60,-1
 627 -54 l 2,61,62
 625 -35 625 -35 613 -23 c 128,-1,63
 601 -11 601 -11 575.5 -5.5 c 128,-1,64
 550 0 550 0 506 0 c 2,55,-1
EndSplineSet
EndChar

StartChar: Kaverticalstrokecyr
Encoding: 1180 1180 307
Width: 815
GlyphClass: 2
Flags: W
AnchorPoint: "Anchor-0" 424 741 basechar 0
LayerCount: 2
Fore
SplineSet
308 171 m 1,0,-1
 308 544 l 1,1,-1
 383 544 l 1,2,-1
 383 171 l 1,3,-1
 308 171 l 1,0,-1
55 0 m 1,4,-1
 55 74 l 1,5,-1
 65 74 l 2,6,7
 92 74 92 74 112.5 81 c 128,-1,8
 133 88 133 88 133 110 c 2,9,-1
 133 600 l 2,10,11
 133 622 133 622 112.5 629 c 128,-1,12
 92 636 92 636 65 636 c 2,13,-1
 55 636 l 1,14,-1
 55 710 l 1,15,-1
 314 710 l 1,16,-1
 314 636 l 1,17,-1
 305 636 l 2,18,19
 294 636 294 636 281 635.5 c 128,-1,20
 268 635 268 635 257 633.5 c 128,-1,21
 246 632 246 632 239 630.5 c 128,-1,22
 232 629 232 629 232 626 c 2,23,-1
 232 84 l 2,24,25
 232 81 232 81 239 79.5 c 128,-1,26
 246 78 246 78 257 76.5 c 128,-1,27
 268 75 268 75 281 74.5 c 128,-1,28
 294 74 294 74 304 74 c 2,29,-1
 313 74 l 1,30,-1
 313 0 l 1,31,-1
 55 0 l 1,4,-1
521 0 m 1,32,-1
 521 74 l 1,33,-1
 529 74 l 2,34,35
 548 74 548 74 565 75 c 128,-1,36
 582 76 582 76 592.5 78.5 c 128,-1,37
 603 81 603 81 603 84 c 2,38,-1
 419 346 l 1,39,-1
 419 372 l 1,40,-1
 616 625 l 2,41,42
 616 629 616 629 605.5 631 c 128,-1,43
 595 633 595 633 578 634.5 c 128,-1,44
 561 636 561 636 543 636 c 2,45,-1
 535 636 l 1,46,-1
 535 710 l 1,47,-1
 771 710 l 1,48,-1
 771 636 l 1,49,-1
 744 636 l 2,50,51
 729 636 729 636 715.5 630.5 c 128,-1,52
 702 625 702 625 688 608 c 2,53,-1
 490 355 l 1,54,-1
 497 398 l 1,55,-1
 710 96 l 2,56,57
 717 86 717 86 727 81 c 128,-1,58
 737 76 737 76 749 75 c 128,-1,59
 761 74 761 74 773 74 c 2,60,-1
 791 74 l 1,61,-1
 791 0 l 1,62,-1
 521 0 l 1,32,-1
EndSplineSet
EndChar

StartChar: Kabashkcyr
Encoding: 1184 1184 308
Width: 861
GlyphClass: 2
Flags: W
AnchorPoint: "Anchor-0" 508 741 basechar 0
LayerCount: 2
Fore
SplineSet
560 0 m 1,0,-1
 560 74 l 1,1,-1
 568 74 l 2,2,3
 586 74 586 74 603 75 c 128,-1,4
 620 76 620 76 631 78.5 c 128,-1,5
 642 81 642 81 642 84 c 2,6,-1
 413 346 l 1,7,-1
 413 372 l 1,8,-1
 652 625 l 2,9,10
 652 629 652 629 641.5 631 c 128,-1,11
 631 633 631 633 614.5 634.5 c 128,-1,12
 598 636 598 636 582 636 c 2,13,-1
 573 636 l 1,14,-1
 573 710 l 1,15,-1
 812 710 l 1,16,-1
 812 636 l 1,17,-1
 788 636 l 2,18,19
 777 636 777 636 767.5 633.5 c 128,-1,20
 758 631 758 631 748.5 625 c 128,-1,21
 739 619 739 619 728 608 c 2,22,-1
 488 355 l 1,23,-1
 491 397 l 1,24,-1
 756 96 l 2,25,26
 764 87 764 87 773.5 82 c 128,-1,27
 783 77 783 77 794 75.5 c 128,-1,28
 805 74 805 74 817 74 c 2,29,-1
 837 74 l 1,30,-1
 837 0 l 1,31,-1
 560 0 l 1,0,-1
191 0 m 1,32,-1
 191 74 l 1,33,-1
 201 74 l 2,34,35
 228 74 228 74 248.5 81 c 128,-1,36
 269 88 269 88 269 110 c 2,37,-1
 269 637 l 1,38,-1
 231 637 l 2,39,40
 192 637 192 637 171.5 631 c 128,-1,41
 151 625 151 625 142.5 612 c 128,-1,42
 134 599 134 599 132 579 c 2,43,-1
 121 473 l 1,44,-1
 49 473 l 1,45,-1
 49 710 l 1,46,-1
 450 710 l 1,47,-1
 450 636 l 1,48,-1
 441 636 l 2,49,50
 427 636 427 636 409.5 635 c 128,-1,51
 392 634 392 634 380 632 c 128,-1,52
 368 630 368 630 368 626 c 2,53,-1
 368 84 l 2,54,55
 368 81 368 81 380 78.5 c 128,-1,56
 392 76 392 76 409.5 75 c 128,-1,57
 427 74 427 74 440 74 c 2,58,-1
 449 74 l 1,59,-1
 449 0 l 1,60,-1
 191 0 l 1,32,-1
EndSplineSet
EndChar

StartChar: Entailcyr
Encoding: 1186 1186 309
Width: 797
GlyphClass: 2
Flags: W
AnchorPoint: "Anchor-0" 399 741 basechar 0
LayerCount: 2
Fore
SplineSet
209 404 m 1,0,-1
 586 404 l 1,1,-1
 586 329 l 1,2,-1
 209 329 l 1,3,-1
 209 404 l 1,0,-1
55 0 m 1,4,-1
 55 74 l 1,5,-1
 65 74 l 2,6,7
 92 74 92 74 112.5 81 c 128,-1,8
 133 88 133 88 133 110 c 2,9,-1
 133 600 l 2,10,11
 133 622 133 622 112.5 629 c 128,-1,12
 92 636 92 636 65 636 c 2,13,-1
 55 636 l 1,14,-1
 55 710 l 1,15,-1
 318 710 l 1,16,-1
 318 637 l 1,17,-1
 309 637 l 2,18,19
 297 637 297 637 283.5 636 c 128,-1,20
 270 635 270 635 258.5 633.5 c 128,-1,21
 247 632 247 632 239.5 630.5 c 128,-1,22
 232 629 232 629 232 626 c 2,23,-1
 232 83 l 2,24,25
 232 81 232 81 239.5 79.5 c 128,-1,26
 247 78 247 78 258.5 76.5 c 128,-1,27
 270 75 270 75 283.5 74.5 c 128,-1,28
 297 74 297 74 309 74 c 2,29,-1
 318 74 l 1,30,-1
 318 0 l 1,31,-1
 55 0 l 1,4,-1
480 0 m 1,32,-1
 480 73 l 1,33,-1
 487 73 l 2,34,35
 500 73 500 73 513.5 74 c 128,-1,36
 527 75 527 75 538.5 76.5 c 128,-1,37
 550 78 550 78 557.5 79.5 c 128,-1,38
 565 81 565 81 565 84 c 2,39,-1
 565 627 l 2,40,41
 565 629 565 629 557.5 630.5 c 128,-1,42
 550 632 550 632 538.5 633.5 c 128,-1,43
 527 635 527 635 513.5 635.5 c 128,-1,44
 500 636 500 636 488 636 c 2,45,-1
 480 636 l 1,46,-1
 480 710 l 1,47,-1
 742 710 l 1,48,-1
 742 636 l 1,49,-1
 732 636 l 2,50,51
 705 636 705 636 684.5 629 c 128,-1,52
 664 622 664 622 664 600 c 2,53,-1
 664 0 l 1,54,-1
 480 0 l 1,32,-1
547 0 m 2,55,-1
 542 0 l 1,56,-1
 557 75 l 1,57,-1
 752 75 l 1,58,-1
 752 -184 l 1,59,-1
 680 -184 l 1,60,-1
 668 -54 l 2,61,62
 666 -35 666 -35 654 -23 c 128,-1,63
 642 -11 642 -11 616 -5.5 c 128,-1,64
 590 0 590 0 547 0 c 2,55,-1
EndSplineSet
EndChar

StartChar: Tetailcyr
Encoding: 1196 1196 311
Width: 675
GlyphClass: 2
Flags: W
AnchorPoint: "Anchor-0" 331 741 basechar 0
LayerCount: 2
Fore
SplineSet
288 110 m 2,0,-1
 288 637 l 1,1,-1
 231 637 l 2,2,3
 192 637 192 637 171.5 631 c 128,-1,4
 151 625 151 625 142.5 612 c 128,-1,5
 134 599 134 599 132 579 c 2,6,-1
 121 473 l 1,7,-1
 49 473 l 1,8,-1
 49 710 l 1,9,-1
 626 710 l 1,10,-1
 626 473 l 1,11,-1
 554 473 l 1,12,-1
 543 579 l 2,13,14
 541 599 541 599 533 612 c 128,-1,15
 525 625 525 625 504 631 c 128,-1,16
 483 637 483 637 443 637 c 2,17,-1
 387 637 l 1,18,-1
 387 0 l 1,19,-1
 194 0 l 1,20,-1
 194 74 l 1,21,-1
 212 74 l 2,22,23
 242 74 242 74 265 81 c 128,-1,24
 288 88 288 88 288 110 c 2,0,-1
285 0 m 2,25,-1
 272 0 l 1,26,-1
 283 75 l 1,27,-1
 490 75 l 1,28,-1
 490 -184 l 1,29,-1
 418 -184 l 1,30,-1
 406 -54 l 2,31,32
 404 -35 404 -35 392 -23 c 128,-1,33
 380 -11 380 -11 354.5 -5.5 c 128,-1,34
 329 0 329 0 285 0 c 2,25,-1
EndSplineSet
EndChar

StartChar: Ustraightstrokecyr
Encoding: 1200 1200 313
Width: 657
GlyphClass: 2
Flags: W
AnchorPoint: "Anchor-1" 329 0 basechar 0
AnchorPoint: "Anchor-0" 329 741 basechar 0
LayerCount: 2
Fore
SplineSet
150 276 m 1,0,-1
 511 276 l 1,1,-1
 511 201 l 1,2,-1
 150 201 l 1,3,-1
 150 276 l 1,0,-1
281 301 m 1,4,-1
 287 265 l 1,5,-1
 97 595 l 2,6,7
 88 612 88 612 79 621 c 128,-1,8
 70 630 70 630 60 633 c 128,-1,9
 50 636 50 636 37 636 c 2,10,-1
 26 636 l 1,11,-1
 26 710 l 1,12,-1
 260 710 l 1,13,-1
 260 636 l 1,14,-1
 246 636 l 2,15,16
 230 636 230 636 216.5 634.5 c 128,-1,17
 203 633 203 633 193.5 631 c 128,-1,18
 184 629 184 629 184 625 c 2,19,-1
 363 305 l 1,20,-1
 320 305 l 1,21,-1
 484 613 l 2,22,23
 484 620 484 620 475 625 c 128,-1,24
 466 630 466 630 453.5 633 c 128,-1,25
 441 636 441 636 431 636 c 2,26,-1
 421 636 l 1,27,-1
 421 710 l 1,28,-1
 629 710 l 1,29,-1
 629 636 l 1,30,-1
 617 636 l 2,31,32
 607 636 607 636 596 631.5 c 128,-1,33
 585 627 585 627 574.5 616 c 128,-1,34
 564 605 564 605 553 585 c 2,35,-1
 373 265 l 1,36,-1
 380 301 l 1,37,-1
 380 110 l 2,38,39
 380 88 380 88 402 81 c 128,-1,40
 424 74 424 74 454 74 c 2,41,-1
 473 74 l 1,42,-1
 473 0 l 1,43,-1
 187 0 l 1,44,-1
 187 74 l 1,45,-1
 206 74 l 2,46,47
 238 74 238 74 259.5 81 c 128,-1,48
 281 88 281 88 281 110 c 2,49,-1
 281 301 l 1,4,-1
EndSplineSet
EndChar

StartChar: Xatailcyr
Encoding: 1202 1202 314
Width: 704
GlyphClass: 2
Flags: W
AnchorPoint: "Anchor-0" 359 741 basechar 0
LayerCount: 2
Fore
SplineSet
39 636 m 1,0,-1
 39 710 l 1,1,-1
 300 710 l 1,2,-1
 300 636 l 1,3,-1
 284 636 l 2,4,5
 267 636 267 636 252 635 c 128,-1,6
 237 634 237 634 227 632 c 128,-1,7
 217 630 217 630 217 627 c 2,8,-1
 383 391 l 1,9,-1
 394 388 l 1,10,-1
 613 75 l 1,11,-1
 613 0 l 1,12,-1
 409 0 l 1,13,-1
 409 74 l 1,14,-1
 425 74 l 2,15,16
 441 74 441 74 456.5 75 c 128,-1,17
 472 76 472 76 482 78.5 c 128,-1,18
 492 81 492 81 492 84 c 2,19,-1
 313 340 l 1,20,-1
 303 344 l 1,21,-1
 120 602 l 2,22,23
 105 625 105 625 88 630.5 c 128,-1,24
 71 636 71 636 52 636 c 2,25,-1
 39 636 l 1,0,-1
27 0 m 1,26,-1
 27 74 l 1,27,-1
 45 74 l 2,28,29
 62 74 62 74 77.5 83.5 c 128,-1,30
 93 93 93 93 111 120 c 2,31,-1
 292 380 l 1,32,-1
 353 338 l 1,33,-1
 183 91 l 2,34,35
 183 87 183 87 193.5 83 c 128,-1,36
 204 79 204 79 218.5 76.5 c 128,-1,37
 233 74 233 74 246 74 c 2,38,-1
 263 74 l 1,39,-1
 263 0 l 1,40,-1
 27 0 l 1,26,-1
407 355 m 1,41,-1
 345 394 l 1,42,-1
 507 619 l 2,43,44
 507 624 507 624 496 628 c 128,-1,45
 485 632 485 632 470 634 c 128,-1,46
 455 636 455 636 442 636 c 2,47,-1
 428 636 l 1,48,-1
 428 710 l 1,49,-1
 661 710 l 1,50,-1
 661 636 l 1,51,-1
 648 636 l 2,52,53
 630 636 630 636 614 627 c 128,-1,54
 598 618 598 618 578 591 c 2,55,-1
 407 355 l 1,41,-1
486 0 m 2,56,-1
 480 0 l 1,57,-1
 495 75 l 1,58,-1
 690 75 l 1,59,-1
 690 -184 l 1,60,-1
 618 -184 l 1,61,-1
 606 -54 l 2,62,63
 605 -35 605 -35 593 -23 c 128,-1,64
 581 -11 581 -11 555 -5.5 c 128,-1,65
 529 0 529 0 486 0 c 2,56,-1
EndSplineSet
EndChar

StartChar: Chetailcyr
Encoding: 1206 1206 315
Width: 752
GlyphClass: 2
Flags: W
AnchorPoint: "Anchor-0" 368 741 basechar 0
LayerCount: 2
Fore
SplineSet
350 273 m 0,0,1
 264 273 264 273 212.5 293 c 128,-1,2
 161 313 161 313 137 358.5 c 128,-1,3
 113 404 113 404 113 480 c 2,4,-1
 113 600 l 2,5,6
 113 622 113 622 92.5 629 c 128,-1,7
 72 636 72 636 45 636 c 2,8,-1
 35 636 l 1,9,-1
 35 710 l 1,10,-1
 298 710 l 1,11,-1
 298 636 l 1,12,-1
 289 636 l 2,13,14
 272 636 272 636 254.5 635 c 128,-1,15
 237 634 237 634 224.5 632 c 128,-1,16
 212 630 212 630 212 626 c 2,17,-1
 212 485 l 2,18,19
 212 436 212 436 225.5 405.5 c 128,-1,20
 239 375 239 375 270 361.5 c 128,-1,21
 301 348 301 348 352 348 c 0,22,23
 402 348 402 348 455 358 c 128,-1,24
 508 368 508 368 553 395 c 1,25,-1
 553 320 l 1,26,27
 507 296 507 296 453.5 284.5 c 128,-1,28
 400 273 400 273 350 273 c 0,0,1
435 0 m 1,29,-1
 435 74 l 1,30,-1
 442 74 l 2,31,32
 459 74 459 74 477 75 c 128,-1,33
 495 76 495 76 507.5 78.5 c 128,-1,34
 520 81 520 81 520 84 c 2,35,-1
 520 626 l 2,36,37
 520 630 520 630 507.5 632 c 128,-1,38
 495 634 495 634 477 635 c 128,-1,39
 459 636 459 636 443 636 c 2,40,-1
 435 636 l 1,41,-1
 435 710 l 1,42,-1
 697 710 l 1,43,-1
 697 636 l 1,44,-1
 687 636 l 2,45,46
 660 636 660 636 639.5 629 c 128,-1,47
 619 622 619 622 619 600 c 2,48,-1
 619 0 l 1,49,-1
 435 0 l 1,29,-1
502 0 m 2,50,-1
 497 0 l 1,51,-1
 517 75 l 1,52,-1
 707 75 l 1,53,-1
 707 -184 l 1,54,-1
 635 -184 l 1,55,-1
 623 -54 l 2,56,57
 621 -35 621 -35 609 -23 c 128,-1,58
 597 -11 597 -11 571.5 -5.5 c 128,-1,59
 546 0 546 0 502 0 c 2,50,-1
EndSplineSet
EndChar

StartChar: Chevertcyr
Encoding: 1208 1208 316
Width: 771
GlyphClass: 2
Flags: W
AnchorPoint: "Anchor-0" 378 741 basechar 0
LayerCount: 2
Fore
SplineSet
454 0 m 1,0,-1
 454 74 l 1,1,-1
 462 74 l 2,2,3
 479 74 479 74 496.5 75 c 128,-1,4
 514 76 514 76 526.5 78.5 c 128,-1,5
 539 81 539 81 539 84 c 2,6,-1
 539 626 l 2,7,8
 539 630 539 630 526.5 632 c 128,-1,9
 514 634 514 634 496.5 635 c 128,-1,10
 479 636 479 636 462 636 c 2,11,-1
 454 636 l 1,12,-1
 454 710 l 1,13,-1
 716 710 l 1,14,-1
 716 636 l 1,15,-1
 706 636 l 2,16,17
 679 636 679 636 658.5 629 c 128,-1,18
 638 622 638 622 638 600 c 2,19,-1
 638 110 l 2,20,21
 638 88 638 88 658.5 81 c 128,-1,22
 679 74 679 74 706 74 c 2,23,-1
 716 74 l 1,24,-1
 716 0 l 1,25,-1
 454 0 l 1,0,-1
359 273 m 0,26,27
 270 273 270 273 216 293 c 128,-1,28
 162 313 162 313 137.5 358.5 c 128,-1,29
 113 404 113 404 113 480 c 2,30,-1
 113 600 l 2,31,32
 113 622 113 622 92.5 629 c 128,-1,33
 72 636 72 636 45 636 c 2,34,-1
 35 636 l 1,35,-1
 35 710 l 1,36,-1
 298 710 l 1,37,-1
 298 636 l 1,38,-1
 289 636 l 2,39,40
 272 636 272 636 254.5 635 c 128,-1,41
 237 634 237 634 224.5 632 c 128,-1,42
 212 630 212 630 212 626 c 2,43,-1
 212 485 l 2,44,45
 212 436 212 436 226.5 405.5 c 128,-1,46
 241 375 241 375 274 361.5 c 128,-1,47
 307 348 307 348 362 348 c 0,48,49
 413 348 413 348 469.5 357.5 c 128,-1,50
 526 367 526 367 573 395 c 1,51,-1
 573 319 l 1,52,53
 524 294 524 294 468 283.5 c 128,-1,54
 412 273 412 273 359 273 c 0,26,27
341 158 m 1,55,-1
 341 531 l 1,56,-1
 416 531 l 1,57,-1
 416 158 l 1,58,-1
 341 158 l 1,55,-1
EndSplineSet
EndChar

StartChar: Shhacyr
Encoding: 1210 1210 317
Width: 752
GlyphClass: 1
Flags: W
LayerCount: 2
Fore
SplineSet
317 710 m 1,0,-1
 317 636 l 1,1,-1
 309 636 l 2,2,3
 292 636 292 636 274.5 635 c 128,-1,4
 257 634 257 634 244.5 632 c 128,-1,5
 232 630 232 630 232 626 c 2,6,-1
 232 83 l 2,7,8
 232 81 232 81 244.5 78.5 c 128,-1,9
 257 76 257 76 274.5 75 c 128,-1,10
 292 74 292 74 309 74 c 2,11,-1
 317 74 l 1,12,-1
 317 0 l 1,13,-1
 55 0 l 1,14,-1
 55 74 l 1,15,-1
 65 74 l 2,16,17
 92 74 92 74 112.5 81 c 128,-1,18
 133 88 133 88 133 110 c 2,19,-1
 133 600 l 2,20,21
 133 622 133 622 112.5 629 c 128,-1,22
 92 636 92 636 65 636 c 2,23,-1
 55 636 l 1,24,-1
 55 710 l 1,25,-1
 317 710 l 1,0,-1
402 438 m 0,26,27
 486 438 486 438 538.5 417.5 c 128,-1,28
 591 397 591 397 615 351.5 c 128,-1,29
 639 306 639 306 639 230 c 2,30,-1
 639 110 l 2,31,32
 639 88 639 88 659.5 81 c 128,-1,33
 680 74 680 74 707 74 c 2,34,-1
 717 74 l 1,35,-1
 717 0 l 1,36,-1
 454 0 l 1,37,-1
 454 74 l 1,38,-1
 462 74 l 2,39,40
 480 74 480 74 497.5 75 c 128,-1,41
 515 76 515 76 527.5 78.5 c 128,-1,42
 540 81 540 81 540 84 c 2,43,-1
 540 225 l 2,44,45
 540 275 540 275 526 305 c 128,-1,46
 512 335 512 335 481 349 c 128,-1,47
 450 363 450 363 400 363 c 0,48,49
 351 363 351 363 297 353 c 128,-1,50
 243 343 243 343 199 316 c 1,51,-1
 199 392 l 1,52,53
 245 415 245 415 298 426.5 c 128,-1,54
 351 438 351 438 402 438 c 0,26,27
EndSplineSet
EndChar

StartChar: Obarcyr
Encoding: 1256 1256 320
Width: 749
GlyphClass: 2
Flags: W
AnchorPoint: "Anchor-1" 367 0 basechar 0
AnchorPoint: "Anchor-0" 367 741 basechar 0
LayerCount: 2
Fore
SplineSet
104 404 m 1,0,-1
 645 404 l 1,1,-1
 645 329 l 1,2,-1
 104 329 l 1,3,-1
 104 404 l 1,0,-1
375 -24 m 256,4,5
 303 -24 303 -24 244.5 0.5 c 128,-1,6
 186 25 186 25 144 73.5 c 128,-1,7
 102 122 102 122 79 192.5 c 128,-1,8
 56 263 56 263 56 355 c 0,9,10
 56 448 56 448 79 518.5 c 128,-1,11
 102 589 102 589 144 637 c 128,-1,12
 186 685 186 685 244.5 709.5 c 128,-1,13
 303 734 303 734 375 734 c 256,14,15
 447 734 447 734 505.5 709.5 c 128,-1,16
 564 685 564 685 605.5 637 c 128,-1,17
 647 589 647 589 670 518.5 c 128,-1,18
 693 448 693 448 693 355 c 0,19,20
 693 263 693 263 670 192.5 c 128,-1,21
 647 122 647 122 605.5 73.5 c 128,-1,22
 564 25 564 25 505.5 0.5 c 128,-1,23
 447 -24 447 -24 375 -24 c 256,4,5
375 51 m 0,24,25
 427 51 427 51 467 69.5 c 128,-1,26
 507 88 507 88 533.5 125 c 128,-1,27
 560 162 560 162 573.5 219 c 128,-1,28
 587 276 587 276 587 355 c 0,29,30
 587 433 587 433 573.5 490.5 c 128,-1,31
 560 548 560 548 533.5 585.5 c 128,-1,32
 507 623 507 623 467 641 c 128,-1,33
 427 659 427 659 375 659 c 0,34,35
 322 659 322 659 282 641 c 128,-1,36
 242 623 242 623 215.5 585.5 c 128,-1,37
 189 548 189 548 175.5 490.5 c 128,-1,38
 162 433 162 433 162 355 c 256,39,40
 162 277 162 277 175.5 219.5 c 128,-1,41
 189 162 189 162 216 125 c 128,-1,42
 243 88 243 88 282.5 69.5 c 128,-1,43
 322 51 322 51 375 51 c 0,24,25
EndSplineSet
EndChar

StartChar: Hastrokecyr
Encoding: 1278 1278 321
Width: 701
GlyphClass: 2
Flags: W
AnchorPoint: "Anchor-1" 330 0 basechar 0
AnchorPoint: "Anchor-0" 358 741 basechar 0
LayerCount: 2
Fore
SplineSet
156 405 m 1,0,-1
 541 405 l 1,1,-1
 541 330 l 1,2,-1
 156 330 l 1,3,-1
 156 405 l 1,0,-1
39 636 m 1,4,-1
 39 710 l 1,5,-1
 300 710 l 1,6,-1
 300 636 l 1,7,-1
 284 636 l 2,8,9
 267 636 267 636 252 635 c 128,-1,10
 237 634 237 634 227 632 c 128,-1,11
 217 630 217 630 217 627 c 2,12,-1
 383 391 l 1,13,-1
 393 388 l 1,14,-1
 590 108 l 2,15,16
 605 86 605 86 621 80 c 128,-1,17
 637 74 637 74 656 74 c 2,18,-1
 675 74 l 1,19,-1
 675 0 l 1,20,-1
 409 0 l 1,21,-1
 409 74 l 1,22,-1
 425 74 l 2,23,24
 441 74 441 74 456.5 75 c 128,-1,25
 472 76 472 76 482 78.5 c 128,-1,26
 492 81 492 81 492 84 c 2,27,-1
 313 340 l 1,28,-1
 304 344 l 1,29,-1
 120 602 l 2,30,31
 105 625 105 625 88 630.5 c 128,-1,32
 71 636 71 636 52 636 c 2,33,-1
 39 636 l 1,4,-1
27 0 m 1,34,-1
 27 74 l 1,35,-1
 45 74 l 2,36,37
 62 74 62 74 77.5 83.5 c 128,-1,38
 93 93 93 93 111 120 c 2,39,-1
 293 380 l 1,40,-1
 353 338 l 1,41,-1
 183 91 l 2,42,43
 183 87 183 87 193.5 83 c 128,-1,44
 204 79 204 79 218.5 76.5 c 128,-1,45
 233 74 233 74 246 74 c 2,46,-1
 263 74 l 1,47,-1
 263 0 l 1,48,-1
 27 0 l 1,34,-1
406 355 m 1,49,-1
 345 394 l 1,50,-1
 507 619 l 2,51,52
 507 624 507 624 496 628 c 128,-1,53
 485 632 485 632 470 634 c 128,-1,54
 455 636 455 636 442 636 c 2,55,-1
 428 636 l 1,56,-1
 428 710 l 1,57,-1
 661 710 l 1,58,-1
 661 636 l 1,59,-1
 648 636 l 2,60,61
 630 636 630 636 614 627.5 c 128,-1,62
 598 619 598 619 578 591 c 2,63,-1
 406 355 l 1,49,-1
EndSplineSet
EndChar

StartChar: a
Encoding: 97 97 322
Width: 569
GlyphClass: 2
Flags: W
AnchorPoint: "Anchor-2" 428 -10 basechar 0
AnchorPoint: "Anchor-1" 293 0 basechar 0
AnchorPoint: "Anchor-0" 264 565 basechar 0
LayerCount: 2
Fore
SplineSet
387 347 m 1,0,-1
 387 286 l 1,1,2
 324 275 324 275 282 263.5 c 128,-1,3
 240 252 240 252 214.5 239.5 c 128,-1,4
 189 227 189 227 176 212 c 128,-1,5
 163 197 163 197 159 178.5 c 128,-1,6
 155 160 155 160 155 138 c 0,7,8
 155 107 155 107 164.5 89.5 c 128,-1,9
 174 72 174 72 190.5 65 c 128,-1,10
 207 58 207 58 229 58 c 0,11,12
 255 58 255 58 280 69 c 128,-1,13
 305 80 305 80 331 106 c 128,-1,14
 357 132 357 132 385 176 c 1,15,-1
 388 115 l 1,16,17
 367 75 367 75 341.5 46.5 c 128,-1,18
 316 18 316 18 284.5 3 c 128,-1,19
 253 -12 253 -12 215 -12 c 0,20,21
 166 -12 166 -12 131 4.5 c 128,-1,22
 96 21 96 21 77.5 54.5 c 128,-1,23
 59 88 59 88 59 138 c 0,24,25
 59 182 59 182 74 214 c 128,-1,26
 89 246 89 246 125.5 270 c 128,-1,27
 162 294 162 294 225.5 312.5 c 128,-1,28
 289 331 289 331 387 347 c 1,0,-1
403 0 m 1,29,-1
 379 119 l 1,30,-1
 379 127 l 1,31,-1
 379 412 l 2,32,33
 379 442 379 442 371.5 462 c 128,-1,34
 364 482 364 482 342 492 c 128,-1,35
 320 502 320 502 275 502 c 0,36,37
 214 502 214 502 173.5 488.5 c 128,-1,38
 133 475 133 475 116 462 c 1,39,40
 117 468 117 468 122 477 c 128,-1,41
 127 486 127 486 136 495.5 c 128,-1,42
 145 505 145 505 156 511.5 c 128,-1,43
 167 518 167 518 181 518 c 1,44,-1
 181 391 l 1,45,-1
 88 391 l 1,46,-1
 88 528 l 1,47,48
 102 538 102 538 127.5 548.5 c 128,-1,49
 153 559 153 559 191 567 c 128,-1,50
 229 575 229 575 278 575 c 0,51,52
 322 575 322 575 358 567.5 c 128,-1,53
 394 560 394 560 419.5 543 c 128,-1,54
 445 526 445 526 459.5 499 c 128,-1,55
 474 472 474 472 474 433 c 2,56,-1
 474 117 l 2,57,58
 474 102 474 102 480 93 c 128,-1,59
 486 84 486 84 500.5 79 c 128,-1,60
 515 74 515 74 538 69 c 2,61,-1
 547 67 l 1,62,-1
 547 0 l 1,63,-1
 403 0 l 1,29,-1
EndSplineSet
Substitution2: "'ss06' Style Set 6 lookup 66 subtable" a.alt
EndChar

StartChar: aogonek
Encoding: 261 261 331
Width: 569
GlyphClass: 1
Flags: W
LayerCount: 2
Fore
SplineSet
245 -161 m 0,0,1
 245 -137 245 -137 253 -118.5 c 128,-1,2
 261 -100 261 -100 281 -80 c 128,-1,3
 301 -60 301 -60 337 -32.5 c 128,-1,4
 373 -5 373 -5 429 37 c 1,5,-1
 458 3 l 1,6,7
 424 -28 424 -28 402 -50.5 c 128,-1,8
 380 -73 380 -73 368 -89.5 c 128,-1,9
 356 -106 356 -106 351.5 -120.5 c 128,-1,10
 347 -135 347 -135 347 -151 c 0,11,12
 347 -169 347 -169 357 -180 c 128,-1,13
 367 -191 367 -191 388 -191 c 0,14,15
 415 -191 415 -191 434 -176 c 128,-1,16
 453 -161 453 -161 465 -145 c 1,17,-1
 504 -182 l 1,18,19
 480 -213 480 -213 447.5 -232.5 c 128,-1,20
 415 -252 415 -252 364 -252 c 256,21,22
 313 -252 313 -252 279 -230 c 128,-1,23
 245 -208 245 -208 245 -161 c 0,0,1
547 0 m 1,24,-1
 404 0 l 1,25,-1
 381 119 l 1,26,-1
 376 127 l 1,27,-1
 376 416 l 2,28,29
 376 445 376 445 369 464.5 c 128,-1,30
 362 484 362 484 340.5 494 c 128,-1,31
 319 504 319 504 275 504 c 0,32,33
 213 504 213 504 172 493 c 128,-1,34
 131 482 131 482 115 470 c 1,35,36
 115 475 115 475 120 483 c 128,-1,37
 125 491 125 491 133.5 499 c 128,-1,38
 142 507 142 507 153.5 512.5 c 128,-1,39
 165 518 165 518 178 518 c 1,40,-1
 178 391 l 1,41,-1
 85 391 l 1,42,-1
 85 528 l 1,43,44
 100 539 100 539 125.5 549.5 c 128,-1,45
 151 560 151 560 189.5 567.5 c 128,-1,46
 228 575 228 575 278 575 c 0,47,48
 321 575 321 575 356.5 567.5 c 128,-1,49
 392 560 392 560 417.5 543 c 128,-1,50
 443 526 443 526 457 499 c 128,-1,51
 471 472 471 472 471 433 c 2,52,-1
 471 114 l 2,53,54
 471 100 471 100 477.5 92 c 128,-1,55
 484 84 484 84 499 79.5 c 128,-1,56
 514 75 514 75 538 69 c 2,57,-1
 547 67 l 1,58,-1
 547 0 l 1,24,-1
55 138 m 0,59,60
 55 183 55 183 70 215.5 c 128,-1,61
 85 248 85 248 121.5 271.5 c 128,-1,62
 158 295 158 295 222 313.5 c 128,-1,63
 286 332 286 332 385 348 c 1,64,-1
 385 287 l 1,65,66
 322 276 322 276 279.5 264.5 c 128,-1,67
 237 253 237 253 211 240 c 128,-1,68
 185 227 185 227 172 212 c 128,-1,69
 159 197 159 197 154.5 178.5 c 128,-1,70
 150 160 150 160 150 138 c 0,71,72
 150 107 150 107 160 89.5 c 128,-1,73
 170 72 170 72 187.5 65 c 128,-1,74
 205 58 205 58 227 58 c 0,75,76
 253 58 253 58 278.5 68.5 c 128,-1,77
 304 79 304 79 330 104 c 128,-1,78
 356 129 356 129 384 172 c 1,79,-1
 386 111 l 1,80,81
 367 72 367 72 340.5 44.5 c 128,-1,82
 314 17 314 17 281.5 2.5 c 128,-1,83
 249 -12 249 -12 211 -12 c 0,84,85
 161 -12 161 -12 126 4.5 c 128,-1,86
 91 21 91 21 73 54.5 c 128,-1,87
 55 88 55 88 55 138 c 0,59,60
EndSplineSet
Substitution2: "'ss06' Style Set 6 lookup 66 subtable" aogonek.alt
EndChar

StartChar: acaron
Encoding: 462 462 332
Width: 569
GlyphClass: 1
Flags: W
LayerCount: 2
Fore
SplineSet
240 655 m 1,0,-1
 306 655 l 1,1,-1
 433 824 l 1,2,-1
 433 844 l 1,3,-1
 381 844 l 1,4,-1
 213 697 l 1,5,-1
 334 701 l 1,6,-1
 169 844 l 1,7,-1
 112 844 l 1,8,-1
 112 824 l 1,9,-1
 240 655 l 1,0,-1
387 347 m 1,10,-1
 387 286 l 1,11,12
 324 275 324 275 282 263.5 c 128,-1,13
 240 252 240 252 214.5 239.5 c 128,-1,14
 189 227 189 227 176 212 c 128,-1,15
 163 197 163 197 159 178.5 c 128,-1,16
 155 160 155 160 155 138 c 0,17,18
 155 107 155 107 164.5 89.5 c 128,-1,19
 174 72 174 72 190.5 65 c 128,-1,20
 207 58 207 58 229 58 c 0,21,22
 255 58 255 58 280 69 c 128,-1,23
 305 80 305 80 331 106 c 128,-1,24
 357 132 357 132 385 176 c 1,25,-1
 388 115 l 1,26,27
 367 75 367 75 341.5 46.5 c 128,-1,28
 316 18 316 18 284.5 3 c 128,-1,29
 253 -12 253 -12 215 -12 c 0,30,31
 166 -12 166 -12 131 4.5 c 128,-1,32
 96 21 96 21 77.5 54.5 c 128,-1,33
 59 88 59 88 59 138 c 0,34,35
 59 182 59 182 74 214 c 128,-1,36
 89 246 89 246 125.5 270 c 128,-1,37
 162 294 162 294 225.5 312.5 c 128,-1,38
 289 331 289 331 387 347 c 1,10,-1
403 0 m 1,39,-1
 379 119 l 1,40,-1
 379 127 l 1,41,-1
 379 412 l 2,42,43
 379 442 379 442 371.5 462 c 128,-1,44
 364 482 364 482 342 492 c 128,-1,45
 320 502 320 502 275 502 c 0,46,47
 214 502 214 502 173.5 488.5 c 128,-1,48
 133 475 133 475 116 462 c 1,49,50
 117 468 117 468 122 477 c 128,-1,51
 127 486 127 486 136 495.5 c 128,-1,52
 145 505 145 505 156 511.5 c 128,-1,53
 167 518 167 518 181 518 c 1,54,-1
 181 391 l 1,55,-1
 88 391 l 1,56,-1
 88 528 l 1,57,58
 102 538 102 538 127.5 548.5 c 128,-1,59
 153 559 153 559 191 567 c 128,-1,60
 229 575 229 575 278 575 c 0,61,62
 322 575 322 575 358 567.5 c 128,-1,63
 394 560 394 560 419.5 543 c 128,-1,64
 445 526 445 526 459.5 499 c 128,-1,65
 474 472 474 472 474 433 c 2,66,-1
 474 117 l 2,67,68
 474 102 474 102 480 93 c 128,-1,69
 486 84 486 84 500.5 79 c 128,-1,70
 515 74 515 74 538 69 c 2,71,-1
 547 67 l 1,72,-1
 547 0 l 1,73,-1
 403 0 l 1,39,-1
EndSplineSet
Substitution2: "'ss06' Style Set 6 lookup 66 subtable" acaron.alt
EndChar

StartChar: adblgrave
Encoding: 513 513 334
Width: 569
GlyphClass: 1
Flags: W
LayerCount: 2
Fore
SplineSet
377 805 m 2,0,-1
 407 691 l 1,1,-1
 404 661 l 1,2,-1
 368 661 l 1,3,-1
 294 746 l 2,4,5
 277 765 277 765 268 782 c 128,-1,6
 259 799 259 799 259 818 c 0,7,8
 259 840 259 840 272.5 855 c 128,-1,9
 286 870 286 870 310 870 c 0,10,11
 337 870 337 870 354 851.5 c 128,-1,12
 371 833 371 833 377 805 c 2,0,-1
193 805 m 2,13,-1
 220 691 l 1,14,-1
 220 661 l 1,15,-1
 183 661 l 1,16,-1
 109 746 l 2,17,18
 92 765 92 765 83 782 c 128,-1,19
 74 799 74 799 74 818 c 0,20,21
 74 840 74 840 88 855 c 128,-1,22
 102 870 102 870 125 870 c 0,23,24
 152 870 152 870 169 851.5 c 128,-1,25
 186 833 186 833 193 805 c 2,13,-1
387 347 m 1,26,-1
 387 286 l 1,27,28
 324 275 324 275 282 263.5 c 128,-1,29
 240 252 240 252 214.5 239.5 c 128,-1,30
 189 227 189 227 176 212 c 128,-1,31
 163 197 163 197 159 178.5 c 128,-1,32
 155 160 155 160 155 138 c 0,33,34
 155 107 155 107 164.5 89.5 c 128,-1,35
 174 72 174 72 190.5 65 c 128,-1,36
 207 58 207 58 229 58 c 0,37,38
 255 58 255 58 280 69 c 128,-1,39
 305 80 305 80 331 106 c 128,-1,40
 357 132 357 132 385 176 c 1,41,-1
 388 115 l 1,42,43
 367 75 367 75 341.5 46.5 c 128,-1,44
 316 18 316 18 284.5 3 c 128,-1,45
 253 -12 253 -12 215 -12 c 0,46,47
 166 -12 166 -12 131 4.5 c 128,-1,48
 96 21 96 21 77.5 54.5 c 128,-1,49
 59 88 59 88 59 138 c 0,50,51
 59 182 59 182 74 214 c 128,-1,52
 89 246 89 246 125.5 270 c 128,-1,53
 162 294 162 294 225.5 312.5 c 128,-1,54
 289 331 289 331 387 347 c 1,26,-1
403 0 m 1,55,-1
 379 119 l 1,56,-1
 379 127 l 1,57,-1
 379 412 l 2,58,59
 379 442 379 442 371.5 462 c 128,-1,60
 364 482 364 482 342 492 c 128,-1,61
 320 502 320 502 275 502 c 0,62,63
 214 502 214 502 173.5 488.5 c 128,-1,64
 133 475 133 475 116 462 c 1,65,66
 117 468 117 468 122 477 c 128,-1,67
 127 486 127 486 136 495.5 c 128,-1,68
 145 505 145 505 156 511.5 c 128,-1,69
 167 518 167 518 181 518 c 1,70,-1
 181 391 l 1,71,-1
 88 391 l 1,72,-1
 88 528 l 1,73,74
 102 538 102 538 127.5 548.5 c 128,-1,75
 153 559 153 559 191 567 c 128,-1,76
 229 575 229 575 278 575 c 0,77,78
 322 575 322 575 358 567.5 c 128,-1,79
 394 560 394 560 419.5 543 c 128,-1,80
 445 526 445 526 459.5 499 c 128,-1,81
 474 472 474 472 474 433 c 2,82,-1
 474 117 l 2,83,84
 474 102 474 102 480 93 c 128,-1,85
 486 84 486 84 500.5 79 c 128,-1,86
 515 74 515 74 538 69 c 2,87,-1
 547 67 l 1,88,-1
 547 0 l 1,89,-1
 403 0 l 1,55,-1
EndSplineSet
Substitution2: "'ss06' Style Set 6 lookup 66 subtable" adblgrave.alt
EndChar

StartChar: ainvertedbreve
Encoding: 515 515 335
Width: 569
GlyphClass: 1
Flags: W
LayerCount: 2
Fore
SplineSet
268 831 m 256,0,1
 215 831 215 831 181 816 c 128,-1,2
 147 801 147 801 131.5 765.5 c 128,-1,3
 116 730 116 730 116 667 c 1,4,-1
 190 667 l 1,5,6
 191 706 191 706 196.5 725.5 c 128,-1,7
 202 745 202 745 218 751.5 c 128,-1,8
 234 758 234 758 265 758 c 0,9,10
 297 758 297 758 312.5 751.5 c 128,-1,11
 328 745 328 745 334.5 725.5 c 128,-1,12
 341 706 341 706 342 667 c 1,13,-1
 420 667 l 1,14,15
 421 730 421 730 405 765.5 c 128,-1,16
 389 801 389 801 355 816 c 128,-1,17
 321 831 321 831 268 831 c 256,0,1
387 347 m 1,18,-1
 387 286 l 1,19,20
 324 275 324 275 282 263.5 c 128,-1,21
 240 252 240 252 214.5 239.5 c 128,-1,22
 189 227 189 227 176 212 c 128,-1,23
 163 197 163 197 159 178.5 c 128,-1,24
 155 160 155 160 155 138 c 0,25,26
 155 107 155 107 164.5 89.5 c 128,-1,27
 174 72 174 72 190.5 65 c 128,-1,28
 207 58 207 58 229 58 c 0,29,30
 255 58 255 58 280 69 c 128,-1,31
 305 80 305 80 331 106 c 128,-1,32
 357 132 357 132 385 176 c 1,33,-1
 388 115 l 1,34,35
 367 75 367 75 341.5 46.5 c 128,-1,36
 316 18 316 18 284.5 3 c 128,-1,37
 253 -12 253 -12 215 -12 c 0,38,39
 166 -12 166 -12 131 4.5 c 128,-1,40
 96 21 96 21 77.5 54.5 c 128,-1,41
 59 88 59 88 59 138 c 0,42,43
 59 182 59 182 74 214 c 128,-1,44
 89 246 89 246 125.5 270 c 128,-1,45
 162 294 162 294 225.5 312.5 c 128,-1,46
 289 331 289 331 387 347 c 1,18,-1
403 0 m 1,47,-1
 379 119 l 1,48,-1
 379 127 l 1,49,-1
 379 412 l 2,50,51
 379 442 379 442 371.5 462 c 128,-1,52
 364 482 364 482 342 492 c 128,-1,53
 320 502 320 502 275 502 c 0,54,55
 214 502 214 502 173.5 488.5 c 128,-1,56
 133 475 133 475 116 462 c 1,57,58
 117 468 117 468 122 477 c 128,-1,59
 127 486 127 486 136 495.5 c 128,-1,60
 145 505 145 505 156 511.5 c 128,-1,61
 167 518 167 518 181 518 c 1,62,-1
 181 391 l 1,63,-1
 88 391 l 1,64,-1
 88 528 l 1,65,66
 102 538 102 538 127.5 548.5 c 128,-1,67
 153 559 153 559 191 567 c 128,-1,68
 229 575 229 575 278 575 c 0,69,70
 322 575 322 575 358 567.5 c 128,-1,71
 394 560 394 560 419.5 543 c 128,-1,72
 445 526 445 526 459.5 499 c 128,-1,73
 474 472 474 472 474 433 c 2,74,-1
 474 117 l 2,75,76
 474 102 474 102 480 93 c 128,-1,77
 486 84 486 84 500.5 79 c 128,-1,78
 515 74 515 74 538 69 c 2,79,-1
 547 67 l 1,80,-1
 547 0 l 1,81,-1
 403 0 l 1,47,-1
EndSplineSet
Substitution2: "'ss06' Style Set 6 lookup 66 subtable" ainvertedbreve.alt
EndChar

StartChar: b
Encoding: 98 98 348
Width: 629
GlyphClass: 2
Flags: W
AnchorPoint: "Anchor-1" 349 0 basechar 0
AnchorPoint: "Anchor-0" 329 755 basechar 0
LayerCount: 2
Fore
SplineSet
356 -13 m 0,0,1
 315 -13 315 -13 280.5 2.5 c 128,-1,2
 246 18 246 18 218.5 48.5 c 128,-1,3
 191 79 191 79 169 122 c 1,4,-1
 174 178 l 1,5,6
 199 139 199 139 226 114 c 128,-1,7
 253 89 253 89 283 77 c 128,-1,8
 313 65 313 65 348 65 c 0,9,10
 381 65 381 65 406.5 78.5 c 128,-1,11
 432 92 432 92 449.5 119 c 128,-1,12
 467 146 467 146 475.5 187.5 c 128,-1,13
 484 229 484 229 484 285 c 0,14,15
 484 342 484 342 476 382 c 128,-1,16
 468 422 468 422 451.5 447.5 c 128,-1,17
 435 473 435 473 410.5 485 c 128,-1,18
 386 497 386 497 354 497 c 0,19,20
 317 497 317 497 286 485.5 c 128,-1,21
 255 474 255 474 227 448.5 c 128,-1,22
 199 423 199 423 171 381 c 1,23,-1
 169 436 l 1,24,25
 191 480 191 480 220 511 c 128,-1,26
 249 542 249 542 285 558.5 c 128,-1,27
 321 575 321 575 366 575 c 0,28,29
 438 575 438 575 486.5 538.5 c 128,-1,30
 535 502 535 502 559.5 437 c 128,-1,31
 584 372 584 372 584 285 c 0,32,33
 584 199 584 199 557.5 131.5 c 128,-1,34
 531 64 531 64 480 25.5 c 128,-1,35
 429 -13 429 -13 356 -13 c 0,0,1
93 663 m 2,36,37
 93 678 93 678 85.5 685.5 c 128,-1,38
 78 693 78 693 63.5 698 c 128,-1,39
 49 703 49 703 29 708 c 2,40,-1
 20 710 l 1,41,-1
 20 780 l 1,42,-1
 188 780 l 1,43,-1
 188 122 l 1,44,-1
 188 121 l 1,45,-1
 159 -17 l 1,46,-1
 93 -17 l 1,47,-1
 93 663 l 2,36,37
EndSplineSet
EndChar

StartChar: c
Encoding: 99 99 349
Width: 540
GlyphClass: 2
Flags: W
AnchorPoint: "Anchor-1" 299 0 basechar 0
AnchorPoint: "Anchor-0" 289 565 basechar 0
LayerCount: 2
Fore
SplineSet
302 62 m 0,0,1
 339 62 339 62 364.5 72 c 128,-1,2
 390 82 390 82 408.5 101.5 c 128,-1,3
 427 121 427 121 442 149 c 1,4,-1
 498 112 l 1,5,6
 482 73 482 73 452.5 45 c 128,-1,7
 423 17 423 17 384.5 2 c 128,-1,8
 346 -13 346 -13 301 -13 c 0,9,10
 220 -13 220 -13 163 21.5 c 128,-1,11
 106 56 106 56 75.5 122 c 128,-1,12
 45 188 45 188 45 282 c 0,13,14
 45 375 45 375 75 440.5 c 128,-1,15
 105 506 105 506 162.5 540.5 c 128,-1,16
 220 575 220 575 301 575 c 0,17,18
 350 575 350 575 386.5 569 c 128,-1,19
 423 563 423 563 446.5 555.5 c 128,-1,20
 470 548 470 548 479 542 c 1,21,-1
 479 370 l 1,22,-1
 382 370 l 1,23,-1
 382 512 l 1,24,25
 391 512 391 512 400.5 507 c 128,-1,26
 410 502 410 502 417.5 495 c 128,-1,27
 425 488 425 488 430 481 c 128,-1,28
 435 474 435 474 436 471 c 1,29,30
 414 482 414 482 380 491 c 128,-1,31
 346 500 346 500 303 500 c 0,32,33
 246 500 246 500 211 475.5 c 128,-1,34
 176 451 176 451 160.5 403 c 128,-1,35
 145 355 145 355 145 282 c 0,36,37
 145 224 145 224 153 182.5 c 128,-1,38
 161 141 161 141 179.5 114 c 128,-1,39
 198 87 198 87 228 74.5 c 128,-1,40
 258 62 258 62 302 62 c 0,0,1
EndSplineSet
EndChar

StartChar: ccaron
Encoding: 269 269 354
Width: 540
GlyphClass: 1
Flags: W
LayerCount: 2
Fore
SplineSet
255 655 m 1,0,-1
 321 655 l 1,1,-1
 447 824 l 1,2,-1
 447 844 l 1,3,-1
 396 844 l 1,4,-1
 227 697 l 1,5,-1
 349 701 l 1,6,-1
 184 844 l 1,7,-1
 126 844 l 1,8,-1
 126 824 l 1,9,-1
 255 655 l 1,0,-1
302 62 m 0,10,11
 339 62 339 62 364.5 72 c 128,-1,12
 390 82 390 82 408.5 101.5 c 128,-1,13
 427 121 427 121 442 149 c 1,14,-1
 498 112 l 1,15,16
 482 73 482 73 452.5 45 c 128,-1,17
 423 17 423 17 384.5 2 c 128,-1,18
 346 -13 346 -13 301 -13 c 0,19,20
 220 -13 220 -13 163 21.5 c 128,-1,21
 106 56 106 56 75.5 122 c 128,-1,22
 45 188 45 188 45 282 c 0,23,24
 45 375 45 375 75 440.5 c 128,-1,25
 105 506 105 506 162.5 540.5 c 128,-1,26
 220 575 220 575 301 575 c 0,27,28
 350 575 350 575 386.5 569 c 128,-1,29
 423 563 423 563 446.5 555.5 c 128,-1,30
 470 548 470 548 479 542 c 1,31,-1
 479 370 l 1,32,-1
 382 370 l 1,33,-1
 382 512 l 1,34,35
 391 512 391 512 400.5 507 c 128,-1,36
 410 502 410 502 417.5 495 c 128,-1,37
 425 488 425 488 430 481 c 128,-1,38
 435 474 435 474 436 471 c 1,39,40
 414 482 414 482 380 491 c 128,-1,41
 346 500 346 500 303 500 c 0,42,43
 246 500 246 500 211 475.5 c 128,-1,44
 176 451 176 451 160.5 403 c 128,-1,45
 145 355 145 355 145 282 c 0,46,47
 145 224 145 224 153 182.5 c 128,-1,48
 161 141 161 141 179.5 114 c 128,-1,49
 198 87 198 87 228 74.5 c 128,-1,50
 258 62 258 62 302 62 c 0,10,11
EndSplineSet
EndChar

StartChar: d
Encoding: 100 100 356
Width: 636
GlyphClass: 2
Flags: W
AnchorPoint: "Anchor-2" 603 735 basechar 0
AnchorPoint: "Anchor-1" 297 0 basechar 0
LayerCount: 2
Fore
SplineSet
536 114 m 2,0,1
 536 92 536 92 553 84.5 c 128,-1,2
 570 77 570 77 600 69 c 2,3,-1
 609 67 l 1,4,-1
 609 0 l 1,5,-1
 470 0 l 1,6,-1
 447 124 l 1,7,-1
 441 121 l 1,8,-1
 441 663 l 2,9,10
 441 678 441 678 433 685.5 c 128,-1,11
 425 693 425 693 409 698 c 128,-1,12
 393 703 393 703 369 708 c 2,13,-1
 360 710 l 1,14,-1
 360 780 l 1,15,-1
 536 780 l 1,16,-1
 536 114 l 2,0,1
273 575 m 0,17,18
 315 575 315 575 349 559.5 c 128,-1,19
 383 544 383 544 410.5 514.5 c 128,-1,20
 438 485 438 485 460 441 c 1,21,-1
 455 385 l 1,22,23
 430 424 430 424 403 448.5 c 128,-1,24
 376 473 376 473 346.5 485 c 128,-1,25
 317 497 317 497 281 497 c 0,26,27
 248 497 248 497 222.5 484 c 128,-1,28
 197 471 197 471 179.5 443.5 c 128,-1,29
 162 416 162 416 153.5 374.5 c 128,-1,30
 145 333 145 333 145 277 c 256,31,32
 145 221 145 221 153.5 180.5 c 128,-1,33
 162 140 162 140 178 114.5 c 128,-1,34
 194 89 194 89 218.5 77 c 128,-1,35
 243 65 243 65 275 65 c 0,36,37
 312 65 312 65 343 77 c 128,-1,38
 374 89 374 89 402.5 115 c 128,-1,39
 431 141 431 141 458 181 c 1,40,-1
 460 127 l 1,41,42
 438 83 438 83 409 51.5 c 128,-1,43
 380 20 380 20 344 3.5 c 128,-1,44
 308 -13 308 -13 263 -13 c 0,45,46
 192 -13 192 -13 143 24 c 128,-1,47
 94 61 94 61 69.5 126.5 c 128,-1,48
 45 192 45 192 45 277 c 0,49,50
 45 364 45 364 71.5 431 c 128,-1,51
 98 498 98 498 149 536.5 c 128,-1,52
 200 575 200 575 273 575 c 0,17,18
EndSplineSet
EndChar

StartChar: e
Encoding: 101 101 360
Width: 547
GlyphClass: 2
Flags: W
AnchorPoint: "Anchor-2" 432 1 basechar 0
AnchorPoint: "Anchor-1" 300 0 basechar 0
AnchorPoint: "Anchor-0" 279 565 basechar 0
LayerCount: 2
Fore
SplineSet
141 276 m 0,0,1
 141 212 141 212 153.5 170 c 128,-1,2
 166 128 166 128 188.5 104.5 c 128,-1,3
 211 81 211 81 240.5 71.5 c 128,-1,4
 270 62 270 62 304 62 c 0,5,6
 341 62 341 62 367 72.5 c 128,-1,7
 393 83 393 83 412.5 103 c 128,-1,8
 432 123 432 123 447 150 c 1,9,-1
 503 113 l 1,10,11
 486 75 486 75 455.5 46.5 c 128,-1,12
 425 18 425 18 385 2.5 c 128,-1,13
 345 -13 345 -13 299 -13 c 0,14,15
 226 -13 226 -13 169 19 c 128,-1,16
 112 51 112 51 78.5 115.5 c 128,-1,17
 45 180 45 180 45 276 c 0,18,19
 45 369 45 369 74.5 436 c 128,-1,20
 104 503 104 503 158 539 c 128,-1,21
 212 575 212 575 284 575 c 0,22,23
 340 575 340 575 380.5 555.5 c 128,-1,24
 421 536 421 536 447.5 495.5 c 128,-1,25
 474 455 474 455 487.5 394 c 128,-1,26
 501 333 501 333 502 250 c 1,27,-1
 110 250 l 1,28,-1
 110 322 l 1,29,-1
 431 322 l 1,30,-1
 407 293 l 1,31,32
 406 353 406 353 398 393 c 128,-1,33
 390 433 390 433 375.5 456.5 c 128,-1,34
 361 480 361 480 338.5 490 c 128,-1,35
 316 500 316 500 285 500 c 0,36,37
 251 500 251 500 224.5 488 c 128,-1,38
 198 476 198 476 179.5 449.5 c 128,-1,39
 161 423 161 423 151 380 c 128,-1,40
 141 337 141 337 141 276 c 0,0,1
EndSplineSet
EndChar

StartChar: eogonek
Encoding: 281 281 368
Width: 547
GlyphClass: 1
Flags: W
LayerCount: 2
Fore
SplineSet
376 39 m 1,0,-1
 376 1 l 1,1,2
 358 -5 358 -5 339.5 -9 c 128,-1,3
 321 -13 321 -13 300 -13 c 0,4,5
 227 -13 227 -13 169.5 19 c 128,-1,6
 112 51 112 51 78.5 115.5 c 128,-1,7
 45 180 45 180 45 276 c 0,8,9
 45 369 45 369 74.5 436 c 128,-1,10
 104 503 104 503 158 539 c 128,-1,11
 212 575 212 575 285 575 c 0,12,13
 340 575 340 575 380.5 555.5 c 128,-1,14
 421 536 421 536 447.5 496 c 128,-1,15
 474 456 474 456 487.5 395 c 128,-1,16
 501 334 501 334 502 252 c 1,17,-1
 110 252 l 1,18,-1
 110 322 l 1,19,-1
 429 322 l 1,20,-1
 407 293 l 1,21,22
 406 353 406 353 398 393 c 128,-1,23
 390 433 390 433 375.5 456.5 c 128,-1,24
 361 480 361 480 339 490 c 128,-1,25
 317 500 317 500 285 500 c 0,26,27
 252 500 252 500 225 488 c 128,-1,28
 198 476 198 476 179.5 449.5 c 128,-1,29
 161 423 161 423 151 380 c 128,-1,30
 141 337 141 337 141 276 c 0,31,32
 141 212 141 212 153.5 170 c 128,-1,33
 166 128 166 128 188.5 104.5 c 128,-1,34
 211 81 211 81 240 71.5 c 128,-1,35
 269 62 269 62 303 62 c 0,36,37
 342 62 342 62 368.5 73 c 128,-1,38
 395 84 395 84 414 104 c 128,-1,39
 433 124 433 124 448 152 c 1,40,-1
 503 113 l 1,41,42
 492 89 492 89 475 68 c 128,-1,43
 458 47 458 47 426 22 c 256,44,45
 394 -3 394 -3 369.5 -27 c 128,-1,46
 345 -51 345 -51 328 -73.5 c 128,-1,47
 311 -96 311 -96 302 -115.5 c 128,-1,48
 293 -135 293 -135 293 -152 c 256,49,50
 293 -169 293 -169 303 -180 c 128,-1,51
 313 -191 313 -191 333 -191 c 0,52,53
 358 -191 358 -191 376.5 -176 c 128,-1,54
 395 -161 395 -161 407 -145 c 1,55,-1
 446 -182 l 1,56,57
 422 -213 422 -213 390.5 -232.5 c 128,-1,58
 359 -252 359 -252 310 -252 c 0,59,60
 277 -252 277 -252 250 -242 c 128,-1,61
 223 -232 223 -232 207 -212 c 128,-1,62
 191 -192 191 -192 191 -161 c 0,63,64
 191 -137 191 -137 199.5 -118 c 128,-1,65
 208 -99 208 -99 228 -78 c 128,-1,66
 248 -57 248 -57 284 -29 c 128,-1,67
 320 -1 320 -1 376 39 c 1,0,-1
EndSplineSet
EndChar

